<svg width="24" height="24" viewBox="0 0 24 24" fill="none" xmlns="http://www.w3.org/2000/svg">
<path opacity="0.5" d="M2.00024 12C2.00024 7.28595 2.00024 4.92893 3.46471 3.46447C4.92918 2 7.2862 2 12.0002 2C16.7143 2 19.0713 2 20.5358 3.46447C22.0002 4.92893 22.0002 7.28595 22.0002 12C22.0002 16.714 22.0002 19.0711 20.5358 20.5355C19.0713 22 16.7143 22 12.0002 22C7.2862 22 4.92918 22 3.46471 20.5355C2.00024 19.0711 2.00024 16.714 2.00024 12Z" fill="#1FAB89"/>
<path d="M10.5433 7.51724C10.829 7.2173 10.8174 6.74256 10.5175 6.4569C10.2175 6.17123 9.74281 6.18281 9.45714 6.48276L7.1431 8.9125L6.54335 8.28276C6.25768 7.98281 5.78295 7.97123 5.483 8.2569C5.18306 8.54256 5.17148 9.01729 5.45714 9.31724L6.6 10.5172C6.74156 10.6659 6.93785 10.75 7.1431 10.75C7.34836 10.75 7.54465 10.6659 7.68621 10.5172L10.5433 7.51724Z" fill="#1FAB89"/>
<path d="M13.0002 8.25C12.586 8.25 12.2502 8.58579 12.2502 9C12.2502 9.41422 12.586 9.75 13.0002 9.75H18.0002C18.4145 9.75 18.7502 9.41422 18.7502 9C18.7502 8.58579 18.4145 8.25 18.0002 8.25H13.0002Z" fill="#1FAB89"/>
<path d="M10.5433 14.5172C10.829 14.2173 10.8174 13.7426 10.5175 13.4569C10.2175 13.1712 9.74281 13.1828 9.45714 13.4828L7.1431 15.9125L6.54335 15.2828C6.25768 14.9828 5.78295 14.9712 5.483 15.2569C5.18306 15.5426 5.17148 16.0173 5.45714 16.3172L6.6 17.5172C6.74156 17.6659 6.93785 17.75 7.1431 17.75C7.34836 17.75 7.54465 17.6659 7.68621 17.5172L10.5433 14.5172Z" fill="#1FAB89"/>
<path d="M13.0002 15.25C12.586 15.25 12.2502 15.5858 12.2502 16C12.2502 16.4142 12.586 16.75 13.0002 16.75H18.0002C18.4145 16.75 18.7502 16.4142 18.7502 16C18.7502 15.5858 18.4145 15.25 18.0002 15.25H13.0002Z" fill="#1FAB89"/>
</svg>
