<svg width="48" height="48" viewBox="0 0 48 48" fill="none" xmlns="http://www.w3.org/2000/svg">
<path d="M0.5 12C0.5 5.64873 5.64873 0.5 12 0.5H36C42.3513 0.5 47.5 5.64873 47.5 12V36C47.5 42.3513 42.3513 47.5 36 47.5H12C5.64873 47.5 0.5 42.3513 0.5 36V12Z" fill="#ECFDF3"/>
<path d="M0.5 12C0.5 5.64873 5.64873 0.5 12 0.5H36C42.3513 0.5 47.5 5.64873 47.5 12V36C47.5 42.3513 42.3513 47.5 36 47.5H12C5.64873 47.5 0.5 42.3513 0.5 36V12Z" stroke="#DCFAE6"/>
<path fill-rule="evenodd" clip-rule="evenodd" d="M34 24C34 29.5228 29.5228 34 24 34C18.4772 34 14 29.5228 14 24C14 18.4772 18.4772 14 24 14C29.5228 14 34 18.4772 34 24ZM28.0303 20.9697C28.3232 21.2626 28.3232 21.7374 28.0303 22.0303L23.0303 27.0303C22.7374 27.3232 22.2626 27.3232 21.9697 27.0303L19.9697 25.0303C19.6768 24.7374 19.6768 24.2626 19.9697 23.9697C20.2626 23.6768 20.7374 23.6768 21.0303 23.9697L22.5 25.4393L24.7348 23.2045L26.9697 20.9697C27.2626 20.6768 27.7374 20.6768 28.0303 20.9697Z" fill="#A4F0DF"/>
</svg>
