<svg width="20" height="20" viewBox="0 0 20 20" fill="none" xmlns="http://www.w3.org/2000/svg">
<path fill-rule="evenodd" clip-rule="evenodd" d="M4.12746 1.875C4.14048 1.875 4.15353 1.875 4.16663 1.875L15.8725 1.875C16.4282 1.87498 16.9034 1.87495 17.2831 1.92285C17.6858 1.97365 18.0751 2.08775 18.3948 2.3877C18.7202 2.69295 18.8494 3.0738 18.9062 3.47004C18.9584 3.83404 18.9583 4.28664 18.9583 4.80299L18.9583 5.4501C18.9583 5.85719 18.9583 6.20912 18.9279 6.50259C18.8952 6.81839 18.8237 7.11466 18.6521 7.39911C18.4817 7.68142 18.2523 7.88633 17.9878 8.07003C17.7387 8.24308 17.4204 8.42225 17.0461 8.63296L14.594 10.0133C14.0359 10.3275 13.8415 10.4406 13.7118 10.5533C13.4138 10.812 13.2431 11.099 13.163 11.4587C13.1287 11.6124 13.125 11.806 13.125 12.3941L13.125 14.6708C13.125 15.4219 13.125 16.0595 13.0478 16.5496C12.9656 17.0709 12.7748 17.5708 12.2748 17.8835C11.7861 18.1892 11.2479 18.1611 10.7248 18.0369C10.221 17.9172 9.60018 17.6745 8.85526 17.3833L8.78286 17.355C8.43392 17.2186 8.12838 17.0991 7.8865 16.9743C7.62654 16.84 7.38512 16.673 7.20042 16.4131C7.01364 16.1502 6.93875 15.8684 6.90536 15.5803C6.87491 15.3175 6.87493 15.0022 6.87496 14.6505L6.87496 12.3941C6.87496 11.806 6.87125 11.6124 6.83698 11.4587C6.75679 11.099 6.58614 10.812 6.28816 10.5533C6.15841 10.4406 5.96406 10.3275 5.40591 10.0133L2.95388 8.63296C2.57953 8.42225 2.26124 8.24308 2.01211 8.07003C1.74766 7.88633 1.51822 7.68142 1.34785 7.39911C1.1762 7.11466 1.10471 6.81839 1.072 6.50259C1.0416 6.20912 1.04161 5.85719 1.04163 5.4501L1.04163 4.84555C1.04163 4.83131 1.04163 4.81712 1.04163 4.80297C1.04159 4.28663 1.04156 3.83403 1.09371 3.47004C1.1505 3.0738 1.27976 2.69295 1.60511 2.3877C1.92482 2.08775 2.31408 1.97365 2.71682 1.92285C3.09656 1.87495 3.57168 1.87498 4.12746 1.875ZM2.87326 3.16303C2.59521 3.1981 2.50679 3.25576 2.46038 3.2993C2.41962 3.33755 2.36582 3.40487 2.33107 3.64736C2.29313 3.91212 2.29163 4.2739 2.29163 4.84555V5.4204C2.29163 5.86558 2.2924 6.15231 2.31534 6.37379C2.33671 6.58005 2.3734 6.67923 2.41808 6.75326C2.46404 6.82943 2.54038 6.915 2.72524 7.04341C2.92001 7.1787 3.18609 7.32923 3.59157 7.55749L6.01909 8.92402C6.04182 8.93682 6.06421 8.94941 6.08627 8.96182C6.55185 9.22376 6.86894 9.40215 7.10762 9.60936C7.60042 10.0372 7.9166 10.5568 8.05702 11.1866C8.12526 11.4927 8.12515 11.8359 8.12498 12.3204C8.12497 12.3446 8.12496 12.3692 8.12496 12.3941V14.6187C8.12496 15.0121 8.12593 15.2542 8.14705 15.4364C8.16614 15.6011 8.19623 15.6565 8.21938 15.6891C8.24461 15.7246 8.2946 15.7782 8.45999 15.8636C8.637 15.955 8.88086 16.0512 9.26598 16.2017C10.0668 16.5148 10.6055 16.7238 11.0136 16.8207C11.4125 16.9154 11.5439 16.8663 11.6119 16.8238C11.6685 16.7884 11.756 16.7164 11.813 16.355C11.8731 15.9738 11.875 15.4362 11.875 14.6187V12.3941C11.875 12.3692 11.875 12.3446 11.8749 12.3204C11.8748 11.8359 11.8747 11.4927 11.9429 11.1866C12.0833 10.5568 12.3995 10.0372 12.8923 9.60936C13.131 9.40215 13.4481 9.22376 13.9136 8.96184C13.9357 8.94942 13.9581 8.93682 13.9808 8.92402L16.4084 7.55749C16.8138 7.32923 17.0799 7.1787 17.2747 7.04341C17.4595 6.915 17.5359 6.82943 17.5819 6.75326C17.6265 6.67923 17.6632 6.58005 17.6846 6.37379C17.7075 6.15231 17.7083 5.86558 17.7083 5.4204V4.84555C17.7083 4.2739 17.7068 3.91212 17.6689 3.64736C17.6341 3.40487 17.5803 3.33755 17.5395 3.2993C17.4931 3.25576 17.4047 3.1981 17.1267 3.16303C16.8345 3.12617 16.4392 3.125 15.8333 3.125H4.16663C3.56077 3.125 3.16541 3.12617 2.87326 3.16303Z" fill="#1FAB89"/>
</svg>
