<svg width="18" height="18" viewBox="0 0 18 18" fill="none" xmlns="http://www.w3.org/2000/svg">
<path d="M16.5 0.200195H1.49844C1.15387 0.200195 0.823404 0.337077 0.579752 0.580729C0.336101 0.82438 0.199219 1.15484 0.199219 1.49942V16.501C0.199219 16.8455 0.336101 17.176 0.579752 17.4197C0.823404 17.6633 1.15387 17.8002 1.49844 17.8002H16.5C16.8446 17.8002 17.175 17.6633 17.4187 17.4197C17.6623 17.176 17.7992 16.8455 17.7992 16.501V1.49942C17.7992 1.15484 17.6623 0.82438 17.4187 0.580729C17.175 0.337077 16.8446 0.200195 16.5 0.200195ZM5.445 15.1932H2.79889V6.78797H5.445V15.1932ZM4.12011 5.6232C3.81995 5.6215 3.52702 5.53094 3.27829 5.36293C3.02956 5.19491 2.83617 4.95698 2.72253 4.67917C2.60889 4.40135 2.58009 4.0961 2.63977 3.80193C2.69946 3.50776 2.84494 3.23786 3.05787 3.0263C3.27079 2.81474 3.54162 2.67099 3.83616 2.6132C4.13071 2.55541 4.43577 2.58616 4.71285 2.70158C4.98993 2.81701 5.22661 3.01192 5.39303 3.26172C5.55944 3.51153 5.64812 3.80504 5.64789 4.1052C5.65072 4.30615 5.61306 4.50562 5.53716 4.69172C5.46126 4.87781 5.34867 5.04672 5.2061 5.18838C5.06354 5.33003 4.89391 5.44154 4.70733 5.51624C4.52075 5.59094 4.32104 5.62732 4.12011 5.6232ZM15.1983 15.2005H12.5534V10.6086C12.5534 9.25442 11.9778 8.83642 11.2347 8.83642C10.45 8.83642 9.68 9.42797 9.68 10.6429V15.2005H7.03389V6.79408H9.57855V7.95886H9.61277C9.86822 7.44186 10.7629 6.5582 12.1281 6.5582C13.6046 6.5582 15.1996 7.43453 15.1996 10.0012L15.1983 15.2005Z" fill="#F1FFFC"/>
</svg>
