<svg width="25" height="24" viewBox="0 0 25 24" fill="none" xmlns="http://www.w3.org/2000/svg">
<path fill-rule="evenodd" clip-rule="evenodd" d="M13.4713 21.1333C15.3109 19.0713 19.6667 13.699 19.6667 9.05882C19.6667 5.16034 16.5327 2 12.6667 2C8.80075 2 5.66675 5.16034 5.66675 9.05882C5.66675 13.699 10.0226 19.0713 11.8622 21.1333C12.2973 21.621 13.0362 21.621 13.4713 21.1333ZM12.6667 12C14.3236 12 15.6667 10.6569 15.6667 9C15.6667 7.34315 14.3236 6 12.6667 6C11.0099 6 9.66675 7.34315 9.66675 9C9.66675 10.6569 11.0099 12 12.6667 12Z" fill="#F1FFFC"/>
</svg>
