<svg width="133" height="49" viewBox="0 0 133 49" fill="none" xmlns="http://www.w3.org/2000/svg">
<path d="M13.64 13.6C15.841 13.6 17.918 14.809 19.003 16.731C19.561 17.661 19.84 18.715 19.84 19.8C19.84 20.885 19.561 21.939 19.003 22.9C17.918 24.822 15.841 26 13.64 26H7.471C4.743 26 2.449 24.171 1.736 21.66C1.612 21.164 1.55 20.637 1.55 20.079H5.797C5.797 20.823 6.262 21.443 6.913 21.66H13.64C14.663 21.66 15.469 20.823 15.469 19.8C15.469 18.777 14.663 17.94 13.64 17.94H7.75C6.014 17.94 4.371 17.196 3.193 15.956C2.883 15.615 2.604 15.243 2.356 14.809C1.829 13.879 1.55 12.825 1.55 11.74C1.55 10.655 1.829 9.601 2.356 8.671C3.441 6.718 5.518 5.54 7.75 5.54H14.012C16.74 5.54 19.034 7.369 19.716 9.88C19.871 10.376 19.933 10.903 19.933 11.461H15.686C15.686 10.717 15.221 10.097 14.539 9.88H7.75C6.727 9.88 5.89 10.717 5.89 11.74C5.89 12.763 6.727 13.6 7.75 13.6H13.64ZM23.0744 26V14.747L27.4144 19.087V26H23.0744ZM40.5584 5.385H41.4884V26H37.1484V14.933L34.8544 17.258L33.9554 18.126L33.7074 18.374L32.9324 19.18L32.3434 19.738L29.4294 16.824L27.4144 14.809L23.0744 10.469V5.385H24.1284L28.2824 9.539L32.3434 13.6L40.5584 5.385ZM44.6594 26V14.747L48.9994 19.087V26H44.6594ZM62.1434 5.385H63.0734V26H58.7334V14.933L56.4394 17.258L55.5404 18.126L55.2924 18.374L54.5174 19.18L53.9284 19.738L51.0144 16.824L48.9994 14.809L44.6594 10.469V5.385H45.7134L49.8674 9.539L53.9284 13.6L62.1434 5.385ZM73.5493 20.925H87.3043V26H73.5493C70.9943 26 68.6143 24.67 67.3543 22.465C66.7593 21.38 66.4443 20.19 66.4443 18.93C66.4443 17.705 66.7593 16.48 67.3543 15.43C68.6143 13.225 70.9943 11.86 73.5493 11.86H80.1643C81.2843 11.86 82.1593 10.985 82.1593 9.9C82.1593 8.815 81.2843 7.905 80.1643 7.905H66.4443V2.83H80.1643C82.7193 2.83 85.0993 4.195 86.3593 6.4C86.9543 7.45 87.3043 8.675 87.3043 9.9C87.3043 11.125 86.9543 12.35 86.3593 13.4C86.0443 13.925 85.6943 14.415 85.2743 14.835C83.9443 16.2 82.1243 16.97 80.1643 16.97H73.5493C72.4293 16.97 71.5543 17.845 71.5543 18.93C71.5543 20.05 72.4293 20.925 73.5493 20.925ZM103.89 2.83H109.035V26H103.89V16.97H89.96V2.83H95.07V11.86H103.89V2.83ZM125.329 2.83H130.439V26H125.329V7.94H112.519V2.83H125.329Z" fill="#1FAB89"/>
<path d="M6.45996 42.4844C6.45996 42.252 6.4235 42.0469 6.35059 41.8691C6.28223 41.6868 6.15918 41.5228 5.98145 41.377C5.80827 41.2311 5.56673 41.0921 5.25684 40.96C4.9515 40.8278 4.56413 40.6934 4.09473 40.5566C3.60254 40.4108 3.1582 40.249 2.76172 40.0713C2.36523 39.889 2.02572 39.6816 1.74316 39.4492C1.46061 39.2168 1.24414 38.9502 1.09375 38.6494C0.943359 38.3486 0.868164 38.0046 0.868164 37.6172C0.868164 37.2298 0.947917 36.8721 1.10742 36.5439C1.26693 36.2158 1.49479 35.931 1.79102 35.6895C2.0918 35.4434 2.44954 35.252 2.86426 35.1152C3.27897 34.9785 3.74154 34.9102 4.25195 34.9102C4.99935 34.9102 5.63281 35.0537 6.15234 35.3408C6.67643 35.6234 7.0752 35.9948 7.34863 36.4551C7.62207 36.9108 7.75879 37.3984 7.75879 37.918H6.44629C6.44629 37.5443 6.36654 37.2139 6.20703 36.9268C6.04753 36.6351 5.80599 36.4072 5.48242 36.2432C5.15885 36.0745 4.7487 35.9902 4.25195 35.9902C3.78255 35.9902 3.39518 36.0609 3.08984 36.2021C2.78451 36.3434 2.55664 36.5348 2.40625 36.7764C2.26042 37.0179 2.1875 37.2936 2.1875 37.6035C2.1875 37.8132 2.23079 38.0046 2.31738 38.1777C2.40853 38.3464 2.54753 38.5036 2.73438 38.6494C2.92578 38.7952 3.16732 38.9297 3.45898 39.0527C3.75521 39.1758 4.1084 39.2943 4.51855 39.4082C5.08366 39.5677 5.57129 39.7454 5.98145 39.9414C6.3916 40.1374 6.72884 40.3584 6.99316 40.6045C7.26204 40.846 7.46029 41.1217 7.58789 41.4316C7.72005 41.737 7.78613 42.0833 7.78613 42.4707C7.78613 42.8763 7.7041 43.2432 7.54004 43.5713C7.37598 43.8994 7.14128 44.1797 6.83594 44.4121C6.5306 44.6445 6.16374 44.8245 5.73535 44.9521C5.31152 45.0752 4.83757 45.1367 4.31348 45.1367C3.85319 45.1367 3.39974 45.0729 2.95312 44.9453C2.51107 44.8177 2.10775 44.6263 1.74316 44.3711C1.38314 44.1159 1.09375 43.8014 0.875 43.4277C0.660807 43.0495 0.553711 42.612 0.553711 42.1152H1.86621C1.86621 42.457 1.93229 42.751 2.06445 42.9971C2.19661 43.2386 2.37663 43.4391 2.60449 43.5986C2.83691 43.7581 3.09896 43.8766 3.39062 43.9541C3.68685 44.027 3.99447 44.0635 4.31348 44.0635C4.77376 44.0635 5.16341 43.9997 5.48242 43.8721C5.80143 43.7445 6.04297 43.5622 6.20703 43.3252C6.37565 43.0882 6.45996 42.8079 6.45996 42.4844ZM10.3848 35.0469H11.6631L14.9238 43.1611L18.1777 35.0469H19.4629L15.416 45H14.418L10.3848 35.0469ZM9.96777 35.0469H11.0957L11.2803 41.1172V45H9.96777V35.0469ZM18.7451 35.0469H19.873V45H18.5605V41.1172L18.7451 35.0469ZM23.1074 35.0469H24.3857L27.6465 43.1611L30.9004 35.0469H32.1855L28.1387 45H27.1406L23.1074 35.0469ZM22.6904 35.0469H23.8184L24.0029 41.1172V45H22.6904V35.0469ZM31.4678 35.0469H32.5957V45H31.2832V41.1172L31.4678 35.0469ZM39.8027 35.0469H41.0811L44.3418 43.1611L47.5957 35.0469H48.8809L44.834 45H43.8359L39.8027 35.0469ZM39.3857 35.0469H40.5137L40.6982 41.1172V45H39.3857V35.0469ZM48.1631 35.0469H49.291V45H47.9785V41.1172L48.1631 35.0469ZM56.2783 43.7354V39.9277C56.2783 39.6361 56.2191 39.3831 56.1006 39.1689C55.9867 38.9502 55.8135 38.7816 55.5811 38.6631C55.3486 38.5446 55.0615 38.4854 54.7197 38.4854C54.4007 38.4854 54.1204 38.54 53.8789 38.6494C53.6419 38.7588 53.4551 38.9023 53.3184 39.0801C53.1862 39.2578 53.1201 39.4492 53.1201 39.6543H51.8555C51.8555 39.39 51.9238 39.1279 52.0605 38.8682C52.1973 38.6084 52.3932 38.3737 52.6484 38.1641C52.9082 37.9499 53.2181 37.7812 53.5781 37.6582C53.9427 37.5306 54.3483 37.4668 54.7949 37.4668C55.3327 37.4668 55.8066 37.5579 56.2168 37.7402C56.6315 37.9225 56.9551 38.1982 57.1875 38.5674C57.4245 38.932 57.543 39.39 57.543 39.9414V43.3867C57.543 43.6328 57.5635 43.8949 57.6045 44.1729C57.6501 44.4508 57.7161 44.6901 57.8027 44.8906V45H56.4834C56.4196 44.8542 56.3695 44.6605 56.333 44.4189C56.2965 44.1729 56.2783 43.945 56.2783 43.7354ZM56.4971 40.5156L56.5107 41.4043H55.2324C54.8724 41.4043 54.5511 41.4339 54.2686 41.4932C53.986 41.5479 53.749 41.6322 53.5576 41.7461C53.3662 41.86 53.2204 42.0036 53.1201 42.1768C53.0199 42.3454 52.9697 42.5436 52.9697 42.7715C52.9697 43.0039 53.0221 43.2158 53.127 43.4072C53.2318 43.5986 53.389 43.7513 53.5986 43.8652C53.8128 43.9746 54.0749 44.0293 54.3848 44.0293C54.7721 44.0293 55.1139 43.9473 55.4102 43.7832C55.7064 43.6191 55.9411 43.4186 56.1143 43.1816C56.292 42.9447 56.3877 42.7145 56.4014 42.4912L56.9414 43.0996C56.9095 43.291 56.8229 43.5029 56.6816 43.7354C56.5404 43.9678 56.3512 44.1911 56.1143 44.4053C55.8818 44.6149 55.6038 44.7904 55.2803 44.9316C54.9613 45.0684 54.6012 45.1367 54.2002 45.1367C53.6989 45.1367 53.2591 45.0387 52.8809 44.8428C52.5072 44.6468 52.2155 44.3848 52.0059 44.0566C51.8008 43.724 51.6982 43.3525 51.6982 42.9424C51.6982 42.5459 51.7757 42.1973 51.9307 41.8965C52.0856 41.5911 52.3089 41.3382 52.6006 41.1377C52.8923 40.9326 53.2432 40.7777 53.6533 40.6729C54.0635 40.568 54.5215 40.5156 55.0273 40.5156H56.4971ZM61.4062 37.6035V45H60.1348V37.6035H61.4062ZM60.0391 35.6416C60.0391 35.4365 60.1006 35.2633 60.2236 35.1221C60.3512 34.9808 60.5381 34.9102 60.7842 34.9102C61.0257 34.9102 61.2103 34.9808 61.3379 35.1221C61.4701 35.2633 61.5361 35.4365 61.5361 35.6416C61.5361 35.8376 61.4701 36.0062 61.3379 36.1475C61.2103 36.2842 61.0257 36.3525 60.7842 36.3525C60.5381 36.3525 60.3512 36.2842 60.2236 36.1475C60.1006 36.0062 60.0391 35.8376 60.0391 35.6416ZM65.2012 39.1826V45H63.9365V37.6035H65.1328L65.2012 39.1826ZM64.9004 41.0215L64.374 41.001C64.3786 40.4951 64.4538 40.028 64.5996 39.5996C64.7454 39.1667 64.9505 38.7907 65.2148 38.4717C65.4792 38.1527 65.7936 37.9066 66.1582 37.7334C66.5273 37.5557 66.9352 37.4668 67.3818 37.4668C67.7464 37.4668 68.0745 37.5169 68.3662 37.6172C68.6579 37.7129 68.9062 37.8678 69.1113 38.082C69.321 38.2962 69.4805 38.5742 69.5898 38.916C69.6992 39.2533 69.7539 39.6657 69.7539 40.1533V45H68.4824V40.1396C68.4824 39.7523 68.4255 39.4424 68.3115 39.21C68.1976 38.973 68.0312 38.8021 67.8125 38.6973C67.5938 38.5879 67.3249 38.5332 67.0059 38.5332C66.6914 38.5332 66.4043 38.5993 66.1445 38.7314C65.8893 38.8636 65.6683 39.0459 65.4814 39.2783C65.2992 39.5107 65.1556 39.7773 65.0508 40.0781C64.9505 40.3743 64.9004 40.6888 64.9004 41.0215ZM80.0098 41.0967H77.3506V40.0234H80.0098C80.5247 40.0234 80.9417 39.9414 81.2607 39.7773C81.5798 39.6133 81.8122 39.3854 81.958 39.0938C82.1084 38.8021 82.1836 38.4694 82.1836 38.0957C82.1836 37.7539 82.1084 37.4326 81.958 37.1318C81.8122 36.8311 81.5798 36.5895 81.2607 36.4072C80.9417 36.2204 80.5247 36.127 80.0098 36.127H77.6582V45H76.3389V35.0469H80.0098C80.7617 35.0469 81.3975 35.1768 81.917 35.4365C82.4365 35.6963 82.8307 36.0563 83.0996 36.5166C83.3685 36.9723 83.5029 37.4941 83.5029 38.082C83.5029 38.7201 83.3685 39.2646 83.0996 39.7158C82.8307 40.167 82.4365 40.5111 81.917 40.748C81.3975 40.9805 80.7617 41.0967 80.0098 41.0967ZM86.7441 38.7656V45H85.4795V37.6035H86.71L86.7441 38.7656ZM89.0547 37.5625L89.0479 38.7383C88.943 38.7155 88.8428 38.7018 88.7471 38.6973C88.6559 38.6882 88.5511 38.6836 88.4326 38.6836C88.141 38.6836 87.8835 38.7292 87.6602 38.8203C87.4368 38.9115 87.2477 39.0391 87.0928 39.2031C86.9378 39.3672 86.8148 39.5632 86.7236 39.791C86.637 40.0143 86.5801 40.2604 86.5527 40.5293L86.1973 40.7344C86.1973 40.2878 86.2406 39.8685 86.3271 39.4766C86.4183 39.0846 86.5573 38.7383 86.7441 38.4375C86.931 38.1322 87.168 37.8952 87.4551 37.7266C87.7467 37.5534 88.0931 37.4668 88.4941 37.4668C88.5853 37.4668 88.6901 37.4782 88.8086 37.501C88.9271 37.5192 89.0091 37.5397 89.0547 37.5625ZM90.252 41.3838V41.2266C90.252 40.6934 90.3294 40.1989 90.4844 39.7432C90.6393 39.2829 90.8626 38.8841 91.1543 38.5469C91.446 38.2051 91.7992 37.9408 92.2139 37.7539C92.6286 37.5625 93.0934 37.4668 93.6084 37.4668C94.1279 37.4668 94.5951 37.5625 95.0098 37.7539C95.429 37.9408 95.7845 38.2051 96.0762 38.5469C96.3724 38.8841 96.598 39.2829 96.7529 39.7432C96.9079 40.1989 96.9854 40.6934 96.9854 41.2266V41.3838C96.9854 41.917 96.9079 42.4115 96.7529 42.8672C96.598 43.3229 96.3724 43.7217 96.0762 44.0635C95.7845 44.4007 95.4313 44.665 95.0166 44.8564C94.6064 45.0433 94.1416 45.1367 93.6221 45.1367C93.1025 45.1367 92.6354 45.0433 92.2207 44.8564C91.806 44.665 91.4505 44.4007 91.1543 44.0635C90.8626 43.7217 90.6393 43.3229 90.4844 42.8672C90.3294 42.4115 90.252 41.917 90.252 41.3838ZM91.5166 41.2266V41.3838C91.5166 41.7529 91.5599 42.1016 91.6465 42.4297C91.7331 42.7533 91.863 43.0404 92.0361 43.291C92.2139 43.5417 92.4349 43.7399 92.6992 43.8857C92.9635 44.027 93.2712 44.0977 93.6221 44.0977C93.9684 44.0977 94.2715 44.027 94.5312 43.8857C94.7956 43.7399 95.0143 43.5417 95.1875 43.291C95.3607 43.0404 95.4906 42.7533 95.5771 42.4297C95.6683 42.1016 95.7139 41.7529 95.7139 41.3838V41.2266C95.7139 40.862 95.6683 40.5179 95.5771 40.1943C95.4906 39.8662 95.3584 39.5768 95.1807 39.3262C95.0075 39.071 94.7887 38.8704 94.5244 38.7246C94.2646 38.5788 93.9593 38.5059 93.6084 38.5059C93.262 38.5059 92.9567 38.5788 92.6924 38.7246C92.4326 38.8704 92.2139 39.071 92.0361 39.3262C91.863 39.5768 91.7331 39.8662 91.6465 40.1943C91.5599 40.5179 91.5166 40.862 91.5166 41.2266ZM101.211 43.8584L103.234 37.6035H104.526L101.867 45H101.02L101.211 43.8584ZM99.5225 37.6035L101.607 43.8926L101.751 45H100.903L98.2236 37.6035H99.5225ZM107.617 37.6035V45H106.346V37.6035H107.617ZM106.25 35.6416C106.25 35.4365 106.312 35.2633 106.435 35.1221C106.562 34.9808 106.749 34.9102 106.995 34.9102C107.237 34.9102 107.421 34.9808 107.549 35.1221C107.681 35.2633 107.747 35.4365 107.747 35.6416C107.747 35.8376 107.681 36.0062 107.549 36.1475C107.421 36.2842 107.237 36.3525 106.995 36.3525C106.749 36.3525 106.562 36.2842 106.435 36.1475C106.312 36.0062 106.25 35.8376 106.25 35.6416ZM114.81 43.5645V34.5H116.081V45H114.919L114.81 43.5645ZM109.833 41.3838V41.2402C109.833 40.6751 109.901 40.1624 110.038 39.7021C110.179 39.2373 110.378 38.8385 110.633 38.5059C110.893 38.1732 111.2 37.918 111.556 37.7402C111.916 37.5579 112.317 37.4668 112.759 37.4668C113.224 37.4668 113.629 37.5488 113.976 37.7129C114.326 37.8724 114.623 38.1071 114.864 38.417C115.11 38.7223 115.304 39.0915 115.445 39.5244C115.587 39.9574 115.685 40.4473 115.739 40.9941V41.623C115.689 42.1654 115.591 42.653 115.445 43.0859C115.304 43.5189 115.11 43.888 114.864 44.1934C114.623 44.4987 114.326 44.7334 113.976 44.8975C113.625 45.057 113.215 45.1367 112.745 45.1367C112.312 45.1367 111.916 45.0433 111.556 44.8564C111.2 44.6696 110.893 44.4076 110.633 44.0703C110.378 43.7331 110.179 43.3366 110.038 42.8809C109.901 42.4206 109.833 41.9215 109.833 41.3838ZM111.104 41.2402V41.3838C111.104 41.7529 111.141 42.0993 111.214 42.4229C111.291 42.7464 111.41 43.0312 111.569 43.2773C111.729 43.5234 111.932 43.7171 112.178 43.8584C112.424 43.9951 112.718 44.0635 113.06 44.0635C113.479 44.0635 113.823 43.9746 114.092 43.7969C114.365 43.6191 114.584 43.3844 114.748 43.0928C114.912 42.8011 115.04 42.4844 115.131 42.1426V40.4951C115.076 40.2445 114.996 40.0029 114.892 39.7705C114.791 39.5335 114.659 39.3239 114.495 39.1416C114.336 38.9548 114.137 38.8066 113.9 38.6973C113.668 38.5879 113.392 38.5332 113.073 38.5332C112.727 38.5332 112.428 38.6061 112.178 38.752C111.932 38.8932 111.729 39.0892 111.569 39.3398C111.41 39.5859 111.291 39.873 111.214 40.2012C111.141 40.5247 111.104 40.8711 111.104 41.2402ZM121.619 45.1367C121.104 45.1367 120.637 45.0501 120.218 44.877C119.803 44.6992 119.445 44.4508 119.145 44.1318C118.848 43.8128 118.62 43.4346 118.461 42.9971C118.301 42.5596 118.222 42.0811 118.222 41.5615V41.2744C118.222 40.6729 118.311 40.1374 118.488 39.668C118.666 39.194 118.908 38.793 119.213 38.4648C119.518 38.1367 119.865 37.8883 120.252 37.7197C120.639 37.5511 121.04 37.4668 121.455 37.4668C121.984 37.4668 122.439 37.5579 122.822 37.7402C123.21 37.9225 123.526 38.1777 123.772 38.5059C124.019 38.8294 124.201 39.2122 124.319 39.6543C124.438 40.0918 124.497 40.5703 124.497 41.0898V41.6572H118.974V40.625H123.232V40.5293C123.214 40.2012 123.146 39.8822 123.027 39.5723C122.913 39.2624 122.731 39.0072 122.48 38.8066C122.23 38.6061 121.888 38.5059 121.455 38.5059C121.168 38.5059 120.904 38.5674 120.662 38.6904C120.421 38.8089 120.213 38.9867 120.04 39.2236C119.867 39.4606 119.732 39.75 119.637 40.0918C119.541 40.4336 119.493 40.8278 119.493 41.2744V41.5615C119.493 41.9124 119.541 42.2428 119.637 42.5527C119.737 42.8581 119.881 43.127 120.067 43.3594C120.259 43.5918 120.489 43.7741 120.758 43.9062C121.031 44.0384 121.341 44.1045 121.688 44.1045C122.134 44.1045 122.512 44.0133 122.822 43.8311C123.132 43.6488 123.403 43.4049 123.636 43.0996L124.401 43.708C124.242 43.9495 124.039 44.1797 123.793 44.3984C123.547 44.6172 123.244 44.7949 122.884 44.9316C122.528 45.0684 122.107 45.1367 121.619 45.1367ZM127.738 38.7656V45H126.474V37.6035H127.704L127.738 38.7656ZM130.049 37.5625L130.042 38.7383C129.937 38.7155 129.837 38.7018 129.741 38.6973C129.65 38.6882 129.545 38.6836 129.427 38.6836C129.135 38.6836 128.878 38.7292 128.654 38.8203C128.431 38.9115 128.242 39.0391 128.087 39.2031C127.932 39.3672 127.809 39.5632 127.718 39.791C127.631 40.0143 127.574 40.2604 127.547 40.5293L127.191 40.7344C127.191 40.2878 127.235 39.8685 127.321 39.4766C127.412 39.0846 127.551 38.7383 127.738 38.4375C127.925 38.1322 128.162 37.8952 128.449 37.7266C128.741 37.5534 129.087 37.4668 129.488 37.4668C129.579 37.4668 129.684 37.4782 129.803 37.501C129.921 37.5192 130.003 37.5397 130.049 37.5625Z" fill="#1FAB89"/>
</svg>
