<svg width="25" height="24" viewBox="0 0 25 24" fill="none" xmlns="http://www.w3.org/2000/svg">
<path fill-rule="evenodd" clip-rule="evenodd" d="M2.66675 8.07745V14.7903L8.32548 10.7483L2.66675 8.07745ZM2.66675 17.968V16.6336L9.74418 11.5783L9.57136 11.3364L11.3981 12.1986C12.2014 12.5777 13.1321 12.5777 13.9354 12.1986L15.7621 11.3364L15.5893 11.5783L22.6667 16.6336V17.968C22.6667 19.0726 21.7713 19.968 20.6667 19.968H4.66675C3.56218 19.968 2.66675 19.0726 2.66675 17.968ZM22.6667 14.7903V8.07745L17.008 10.7483L22.6667 14.7903ZM21.3101 4.07375C21.6151 4.17731 21.8871 4.35247 22.1059 4.5792C22.3103 4.83199 22.4327 5.1538 22.4327 5.5042V6.52921L13.2951 10.8421C12.8973 11.0299 12.4362 11.0299 12.0384 10.8421L2.90076 6.52921V5.50421C2.90076 5.1538 3.02318 4.83198 3.22758 4.5792C3.44643 4.35246 3.71836 4.17731 4.02336 4.07375C4.13542 4.04645 4.25251 4.03198 4.37298 4.03198H20.9605C21.081 4.03198 21.1981 4.04645 21.3101 4.07375Z" fill="#F1FFFC"/>
</svg>
