<svg width="25" height="24" viewBox="0 0 25 24" fill="none" xmlns="http://www.w3.org/2000/svg">
<path d="M13.6667 6C13.6667 6 15.1356 6.21885 16.7917 7.875C18.4479 9.53115 18.6667 11 18.6667 11" stroke="#F1FFFC" stroke-width="1.5" stroke-linecap="round"/>
<path d="M13.6667 3C13.6667 3 16.0169 3.35016 18.6667 6C21.3166 8.64984 21.6667 11 21.6667 11" stroke="#F1FFFC" stroke-width="1.5" stroke-linecap="round"/>
<path d="M9.47921 6.94703L7.89958 4.25861C7.59083 3.73314 6.92085 3.55361 6.41958 3.90026C5.4333 4.58232 3.96336 5.77886 3.59769 7.05816C3.03006 9.04403 5.07632 13.7734 7.85835 16.5555C10.6405 19.3376 15.1286 21.1424 17.1145 20.575C18.3937 20.2095 19.5905 18.7402 20.2729 17.7541C20.6197 17.2528 20.4403 16.5826 19.9147 16.2738L17.2262 14.6942C16.7162 14.3945 16.0611 14.5425 15.7294 15.0323L14.9903 16.1237C14.6705 16.596 14.0495 16.7476 13.5716 16.436C12.802 15.9342 11.604 15.0645 10.3561 13.8166C9.10836 12.5688 8.23875 11.371 7.73689 10.6013C7.42521 10.1234 7.57694 9.50224 8.04953 9.18245L9.14077 8.44403C9.63082 8.11243 9.77895 7.45718 9.47921 6.94703Z" fill="#F1FFFC"/>
</svg>
