<svg width="20" height="20" viewBox="0 0 20 20" fill="none" xmlns="http://www.w3.org/2000/svg">
<path fill-rule="evenodd" clip-rule="evenodd" d="M9.58329 2.29175C5.55622 2.29175 2.29163 5.55634 2.29163 9.58342C2.29163 13.6105 5.55622 16.8751 9.58329 16.8751C13.6104 16.8751 16.875 13.6105 16.875 9.58342C16.875 5.55634 13.6104 2.29175 9.58329 2.29175ZM1.04163 9.58342C1.04163 4.86598 4.86586 1.04175 9.58329 1.04175C14.3007 1.04175 18.125 4.86598 18.125 9.58342C18.125 11.7172 17.3426 13.6682 16.049 15.1653L18.7752 17.8915C19.0193 18.1356 19.0193 18.5313 18.7752 18.7754C18.5312 19.0194 18.1354 19.0194 17.8914 18.7754L15.1651 16.0491C13.6681 17.3427 11.7171 18.1251 9.58329 18.1251C4.86586 18.1251 1.04163 14.3008 1.04163 9.58342Z" fill="#595959"/>
</svg>
