<svg width="78" height="81" viewBox="0 0 78 81" fill="none" xmlns="http://www.w3.org/2000/svg">
<path opacity="0.11" d="M41.6344 71.121C40.7144 72.421 39.8044 73.711 38.8844 75.011L47.4744 69.691C44.1544 71.021 40.8344 72.341 37.5144 73.671C39.3644 73.371 41.2043 73.061 43.0543 72.761C34.8143 71.961 24.0243 69.931 21.6243 59.341C18.2243 44.331 24.9043 33.651 42.1843 25.861C41.4643 25.941 40.7344 26.021 40.0144 26.101C43.4544 26.381 46.3044 26.781 49.3944 28.481C54.9144 31.511 59.6944 36.921 61.6944 42.921C62.2144 44.481 62.9744 45.951 63.5044 47.511C64.6744 50.951 63.8844 54.121 62.8244 57.411C61.8344 60.481 60.8044 66.291 62.1144 69.371C63.1244 71.751 64.9944 71.271 66.3244 69.621C68.9944 66.321 70.6444 64.291 72.2044 60.281C74.3044 54.861 74.5943 47.381 72.8343 41.831C70.4543 34.321 66.2644 29.361 59.6444 25.231C54.9544 22.301 49.8143 20.181 44.1843 20.191C37.3743 20.191 30.7844 23.981 25.6644 28.221C22.5844 30.771 19.0143 34.231 17.0943 37.731C15.1743 41.231 14.7944 45.261 14.3844 49.181C13.8444 54.361 13.8343 59.711 15.3143 64.771C16.4743 68.751 20.9944 72.311 24.2844 74.881C26.7344 76.791 30.2643 78.771 33.3743 79.741C36.3143 80.651 40.5744 79.081 43.2044 77.901C46.3044 76.511 49.6344 74.891 52.0444 72.441C54.4944 69.941 55.3943 67.421 56.6243 64.171C56.6743 63.151 56.2144 62.461 55.2544 62.101C53.7244 61.901 52.3244 62.311 51.0744 63.321C48.0144 64.921 42.8044 67.5709 41.6344 71.111V71.121Z" fill="url(#paint0_linear_58_2039)"/>
<g opacity="0.11" filter="url(#filter0_d_58_2039)">
<path d="M33.5943 62.101C33.3443 63.181 33.1044 64.271 32.8544 65.351L37.2044 59.181C35.4444 61.171 33.6844 63.151 31.9244 65.141C36.6644 60.801 41.4044 56.461 46.1444 52.121C41.6844 55.681 37.2143 59.231 32.7543 62.791C38.0043 59.141 43.2443 55.501 48.4943 51.851C41.1643 55.341 33.8343 58.841 26.5043 62.331C32.0943 60.361 37.6744 58.391 43.2644 56.431C36.6644 57.871 30.0544 59.321 23.4544 60.761C29.0244 59.851 34.5943 58.941 40.1543 58.031L26.7344 58.161L37.1343 58.721C32.8843 57.831 28.6243 56.941 24.3743 56.051C27.7543 56.901 31.1243 57.741 34.5043 58.591C30.2243 56.801 25.9343 55.021 21.6543 53.231C24.4043 54.621 27.1544 56.011 29.8944 57.401C26.5344 54.971 23.1743 52.541 19.8143 50.111C21.9543 51.951 24.0944 53.781 26.2344 55.621C23.7344 52.711 21.2443 49.801 18.7443 46.901L23.4743 53.581C21.0343 48.821 18.6043 44.071 16.1643 39.311C17.9343 43.371 19.7144 47.431 21.4844 51.491C21.2044 45.911 20.9343 40.331 20.6543 34.751C20.4643 37.011 20.2843 39.271 20.0943 41.531C21.0243 38.001 21.9543 34.471 22.8843 30.941C22.1643 33.031 21.4443 35.121 20.7243 37.211C22.3643 34.121 24.0044 31.041 25.6444 27.951C24.3944 29.851 23.1444 31.751 21.8944 33.651C32.0444 24.871 39.5944 24.041 44.5744 31.161C47.6844 33.981 48.9343 37.711 48.3143 42.351C48.3643 45.371 48.6743 48.361 49.2443 51.331C49.5543 53.711 50.0544 56.051 50.7644 58.331C51.1444 59.661 52.9243 64.181 54.8743 61.341C59.3043 54.891 63.1243 48.081 62.0343 39.881C61.1243 33.011 55.7943 23.671 49.2843 20.581C42.6943 17.451 32.1443 16.201 25.4043 19.281C22.1943 20.751 18.9943 23.931 16.7443 26.601C14.3143 29.601 12.2543 32.841 10.5643 36.311C9.58434 39.871 9.19434 43.491 9.37434 47.181C9.60434 52.751 10.7544 57.661 14.2644 62.071C16.2744 64.591 18.6744 66.671 21.4544 68.291C24.7744 70.451 28.3943 70.771 32.3143 69.261C35.9743 68.931 42.1643 62.551 44.1943 60.751C45.9543 59.151 47.7143 57.541 49.4743 55.941C51.5843 54.381 53.1544 52.431 54.2044 50.091C55.2244 47.641 55.6443 45.091 55.4443 42.431C55.6943 37.061 47.4843 45.401 47.5843 45.301C44.1743 48.671 40.8943 52.161 37.7543 55.791C35.7943 57.561 34.4143 59.671 33.5843 62.121L33.5943 62.101Z" fill="url(#paint1_linear_58_2039)"/>
</g>
<path opacity="0.11" d="M30.2243 50.951C30.0143 51.831 29.7943 52.711 29.5843 53.591C30.5243 51.961 31.4643 50.331 32.4143 48.701C29.9443 48.381 27.4743 48.051 25.0043 47.731C24.3443 46.901 23.6843 46.081 23.0143 45.251C19.5043 39.721 18.1943 32.411 19.0243 26.021C19.0843 24.331 19.4543 22.701 20.1243 21.141C20.7943 17.781 22.8443 15.291 26.2743 13.681C29.0143 9.19099 32.9543 7.16099 38.1043 7.58099C42.6043 6.25099 47.1243 6.20099 51.6743 7.43099C50.7243 7.10099 49.7843 6.76099 48.8343 6.43099C52.3043 9.03099 55.2443 12.131 57.6443 15.741C60.4443 19.091 61.6643 22.921 61.3143 27.241C62.5443 31.301 62.0443 35.151 59.8043 38.771C57.9543 42.741 55.5643 46.341 52.6143 49.591C50.3843 52.461 55.4043 55.161 57.3443 52.621C61.0943 47.731 64.3743 43.071 66.4743 37.171C67.4043 35.121 67.9743 32.981 68.1943 30.741C69.0643 28.461 68.9443 26.221 67.8143 24.031C66.2543 18.261 63.7543 12.781 59.9843 8.08099C58.4543 6.18099 56.4243 3.60099 54.1643 2.54099C51.4143 1.25099 47.5543 0.940988 44.4643 0.520988C39.5943 -0.129012 32.4643 -0.489012 27.9443 1.42099C21.0743 4.32099 15.6543 9.88099 11.8843 16.171C7.15433 24.051 5.42434 34.321 9.14434 43.021C11.7843 49.161 16.4543 56.041 23.3943 57.661C26.3943 58.361 29.6743 58.741 32.2443 56.691C35.3043 54.241 36.8043 51.621 37.4543 47.781C37.7143 46.251 35.1643 44.971 33.9543 45.411C32.0743 46.101 30.6543 49.161 30.2243 50.931V50.951Z" fill="url(#paint2_linear_58_2039)"/>
<path opacity="0.11" d="M44.4644 57.621C44.2244 58.701 43.9944 59.771 43.7544 60.851C44.1444 60.131 44.5244 59.411 44.9144 58.691C44.2744 59.421 43.6244 60.151 42.9844 60.881C47.6944 57.091 52.4144 53.291 57.1244 49.501C51.6444 52.881 46.1544 56.251 40.6744 59.631C46.0444 57.091 51.4244 54.551 56.7944 52.021C49.4444 53.911 42.1044 55.801 34.7544 57.691C40.1344 56.921 45.5144 56.151 50.8944 55.381C45.0044 53.791 39.1144 52.201 33.2144 50.611C36.2144 51.951 39.2244 53.281 42.2244 54.621C38.8144 52.371 35.4044 50.121 32.0044 47.871C34.6244 49.741 37.2444 51.611 39.8644 53.471C36.4844 49.041 33.9544 44.121 32.2944 38.701L35.8144 48.111C35.0144 44.061 34.2244 40.021 33.4244 35.971C33.8944 39.271 34.3744 42.561 34.8444 45.861C34.9644 43.861 35.0744 41.861 35.1944 39.861C34.7544 41.971 34.3044 44.091 33.8644 46.201C34.3244 45.171 34.7744 44.141 35.2344 43.121C34.8044 43.791 34.3744 44.461 33.9444 45.131C41.7144 38.251 49.4744 31.371 57.2444 24.491C49.4944 28.461 41.7444 32.431 33.9944 36.401C44.3944 37.431 54.7944 38.461 65.1944 39.491C57.3644 35.701 49.5344 31.911 41.7044 28.121C43.6144 43.471 50.0744 53.001 61.0744 56.721C61.5744 57.121 61.9844 57.041 62.2944 56.471C64.2144 55.361 62.9444 50.721 62.7244 49.021C61.9544 43.071 60.2844 37.441 58.7644 31.681C61.0744 38.311 63.3844 44.951 65.6944 51.581C66.3144 50.051 66.9344 48.521 67.5644 47.001C70.6644 37.751 67.2744 28.791 60.3144 22.361C53.8244 16.361 41.6744 15.591 34.2144 19.801C29.0044 22.741 24.1344 27.431 21.7744 33.071C20.3244 36.541 19.9644 41.211 20.1644 45.031C20.3844 46.721 20.5944 48.411 20.8144 50.101C26.7744 56.191 33.8044 60.961 41.8844 64.421C45.0844 66.521 49.9144 61.451 52.2744 59.721C55.0144 57.771 57.6644 55.701 60.2244 53.531C62.3144 52.191 63.9044 50.431 64.9744 48.261C66.1544 45.861 66.7344 43.331 66.7344 40.661C67.3344 35.471 58.9444 42.671 58.9444 42.671C55.4544 45.611 52.0944 48.681 48.8544 51.901C46.8544 53.441 45.3944 55.351 44.4844 57.641L44.4644 57.621Z" fill="url(#paint3_linear_58_2039)"/>
<path opacity="0.11" d="M36.1643 51.741C35.9243 52.421 35.6743 53.111 35.4343 53.791C36.2343 52.901 37.0343 52.021 37.8443 51.141C30.8343 54.091 24.2343 43.431 23.6543 37.351C23.2843 33.491 24.5043 29.901 26.2443 26.501C28.9543 22.251 31.6643 18.001 34.3643 13.751C40.7043 8.701 48.2443 6.731 56.9943 7.821L52.6943 7.091C61.7943 11.071 68.3143 17.311 72.2443 25.801C71.9843 24.921 71.7243 24.031 71.4643 23.151C71.2643 27.341 70.3943 31.391 68.8643 35.291C67.2143 39.501 64.9743 43.371 62.1543 46.911C61.4743 47.901 60.9943 49.861 61.9243 50.891C62.5843 51.621 65.4643 52.021 66.1343 51.131C69.8543 46.201 73.1443 41.471 75.3043 35.601C76.2543 33.551 76.8543 31.401 77.1143 29.161C77.7443 27.711 77.9043 26.241 77.5843 24.751C76.2443 19.651 72.4443 14.291 69.1743 10.481C65.2343 5.901 61.5143 2.381 55.3243 1.141C51.4943 0.370996 47.4243 0.0109959 43.5243 0.370996C34.8843 1.171 26.1143 4.991 21.1043 12.441C15.9143 20.171 12.8643 29.911 15.1243 39.121C16.7243 45.661 20.5443 51.921 26.3243 55.541C31.3543 58.691 39.3443 60.211 41.5243 53.211C42.4443 50.261 37.4243 48.271 36.1843 51.741H36.1643Z" fill="url(#paint4_linear_58_2039)"/>
<path opacity="0.18" d="M26.3944 55.301C25.8244 57.121 25.2644 58.941 24.6944 60.761C25.8044 58.901 26.9143 57.031 28.0243 55.171C26.7343 56.861 25.4444 58.551 24.1444 60.241C26.5244 57.661 28.8943 55.091 31.2743 52.511C28.4643 54.661 25.2744 55.601 21.6844 55.301C18.9144 54.281 16.6044 52.671 14.7644 50.461C12.8744 48.771 11.3644 46.771 10.2644 44.451C6.24437 31.301 10.4044 20.721 22.7344 12.721C21.9844 13.181 21.2344 13.641 20.4944 14.101C24.6944 13.461 28.8844 13.491 33.0744 14.201C37.4944 14.951 41.7044 16.331 45.7144 18.331C48.5844 21.151 50.8544 24.401 52.5344 28.071C57.4144 37.781 55.1544 47.381 45.7444 56.881C44.8944 57.771 45.6544 61.281 46.5644 61.961C47.7244 62.821 49.8544 62.341 50.7344 61.281C56.1844 54.731 60.9244 47.991 60.8844 39.061C60.8544 31.961 57.3944 24.081 53.1744 18.461C51.3844 15.191 48.7844 13.021 45.3544 11.981C42.1044 10.281 38.6644 9.07104 35.0344 8.35104C30.4944 7.32104 25.9144 7.04104 21.2844 7.49104C18.9544 8.35104 16.8744 9.68104 15.0444 11.461C7.82437 17.111 0.794352 25.201 0.214352 34.701C-0.0156479 38.501 0.134358 42.501 0.814358 46.231C2.78436 56.921 12.3344 69.141 24.3944 65.751C26.5444 65.151 27.8143 63.701 29.3043 62.071C30.8743 60.351 33.9344 57.541 34.4844 55.231C34.9444 53.311 35.3944 51.391 35.8544 49.461C36.3544 47.331 34.8243 46.381 33.0543 46.831C30.3243 47.521 27.5244 53.031 26.3844 55.271L26.3944 55.301Z" fill="url(#paint5_linear_58_2039)"/>
<path opacity="0.11" d="M34.6744 72.151C34.3444 73.251 34.0144 74.351 33.6744 75.451C34.5444 74.281 35.4244 73.111 36.2944 71.941C34.8644 73.281 33.4244 74.631 31.9944 75.971C34.9044 73.981 37.8144 71.991 40.7244 70.001L30.9844 74.051C32.9544 73.641 34.9244 73.221 36.8944 72.811C35.1244 72.751 33.3544 72.681 31.5844 72.621C25.8144 68.631 20.0344 64.631 14.2644 60.641C12.6244 55.791 13.1444 49.861 13.9644 44.971C13.8344 42.711 14.6344 40.861 16.3544 39.421C17.5344 37.621 18.9744 36.061 20.6744 34.741C31.1644 25.051 40.1744 23.491 57.2744 33.641C56.7444 33.141 56.2244 32.651 55.6944 32.151C57.4544 35.901 59.2144 39.651 60.9844 43.411C61.2144 46.251 61.1344 49.091 60.7344 51.911C60.9944 54.011 60.6144 55.941 59.5744 57.701C58.8344 59.631 57.7444 61.351 56.3044 62.861C55.1244 64.481 54.8844 70.041 55.8744 71.781C56.8644 73.511 58.9144 73.371 60.0944 71.981C64.3344 67.001 68.0344 61.871 68.8544 55.141C69.5744 49.201 68.7744 42.461 66.0744 37.071C63.1544 31.231 58.4044 27.681 52.5844 25.001C46.7544 22.311 39.3644 20.531 32.9244 21.661C28.2844 22.471 22.3644 26.111 18.7744 29.101C16.9844 30.741 15.2044 32.391 13.4144 34.031C10.4144 36.341 8.72438 39.301 8.35438 42.891C6.94438 48.601 6.48438 54.341 7.00438 60.201C6.82438 64.961 8.65439 68.761 12.4844 71.591C14.0644 72.921 15.6444 74.241 17.2244 75.571C19.4544 77.221 22.6144 78.941 25.2544 79.911C26.9044 80.691 28.6344 80.711 30.4444 79.961C32.7244 80.081 34.8344 79.571 36.7844 78.431C39.7944 76.881 43.2644 75.011 45.5144 72.461C47.8144 69.841 48.5444 67.301 49.5144 63.971C49.5144 62.941 49.0044 62.281 48.0144 61.991C46.4344 61.911 45.0444 62.431 43.8344 63.551C40.7344 65.451 35.7944 68.421 34.6744 72.131V72.151Z" fill="url(#paint6_linear_58_2039)"/>
<path opacity="0.11" d="M47.6144 57.941C47.2644 58.691 46.9143 59.451 46.5643 60.201C48.3243 59.391 50.0843 58.581 51.8343 57.771C48.5643 58.831 45.1243 59.371 41.9043 58.001C40.7743 57.331 39.6543 56.661 38.5243 56.001C33.0343 49.611 32.0143 43.431 35.4543 37.461C35.5043 35.181 36.4543 33.711 38.2943 33.021C39.0543 32.741 39.6843 32.301 40.2043 31.701C41.3343 30.471 42.7743 29.691 44.5243 29.361C49.3443 26.661 54.6343 25.511 60.3843 25.911L52.1043 26.491L63.3644 27.791C60.7544 27.271 58.1343 26.741 55.5243 26.221C58.8143 27.541 62.0943 28.861 65.3843 30.181C62.9743 28.991 60.5743 27.811 58.1643 26.621C60.9643 28.701 63.7643 30.771 66.5643 32.851C64.4143 31.041 62.2644 29.231 60.1144 27.421C62.7944 30.691 65.4843 33.971 68.1643 37.241C66.7143 35.261 65.2643 33.281 63.8143 31.291C65.5343 34.701 67.2543 38.121 68.9743 41.531C68.1843 39.451 67.3843 37.361 66.5943 35.281C67.6643 39.931 68.7343 44.591 69.8143 49.241C69.3943 45.881 68.9843 42.511 68.5643 39.151C68.1543 44.261 68.0343 49.371 68.1943 54.481C68.0243 55.241 68.1543 55.931 68.5843 56.551C69.1743 57.571 70.2144 58.231 71.3944 57.571C73.7243 56.271 72.8743 51.721 73.8043 49.961C74.5243 48.991 75.2443 48.021 75.9643 47.041C76.2643 45.161 76.5743 43.271 76.8743 41.381C78.0243 31.381 73.2743 22.691 65.1543 17.101C60.6343 13.981 53.5143 12.091 48.0243 12.761C42.6743 13.411 38.0943 15.441 33.8043 18.701C25.3643 25.121 21.5743 34.891 22.2043 45.411C22.5043 50.461 23.6143 54.501 27.0843 58.471C29.4843 61.211 32.2443 63.861 35.5343 65.481C39.9043 67.641 43.8043 67.861 48.3343 65.681C50.7643 64.511 53.0743 62.831 55.0943 61.031C57.5343 58.871 58.8143 56.531 59.7243 53.411C60.3343 51.331 59.5443 49.551 57.0343 50.161C55.2043 51.101 53.5143 52.251 51.9643 53.621C50.3243 54.881 48.8744 56.321 47.6144 57.951V57.941Z" fill="url(#paint7_linear_58_2039)"/>
<path opacity="0.28" d="M30.3343 49.5509C29.7443 51.4009 29.1443 53.2509 28.5543 55.1109C29.7443 53.1309 30.9444 51.1409 32.1344 49.1609C30.8044 50.9409 29.4743 52.7109 28.1543 54.4909C30.6743 51.7009 33.1944 48.9109 35.7044 46.1209C33.1244 47.9809 30.2844 49.2809 27.1744 50.0209C28.7044 49.7309 30.2343 49.4409 31.7743 49.1409C29.2743 48.9009 22.5943 44.9909 20.5643 42.9009C14.4043 36.6009 19.1444 22.1709 20.9544 17.0309C20.2144 18.6609 19.4744 20.2809 18.7344 21.9109C20.4744 19.3109 22.2144 16.7209 23.9544 14.1209L20.3544 18.1109C27.8644 12.9609 36.4444 10.9409 46.1044 12.0609L42.4943 11.2609C46.0843 13.6509 49.1643 16.5809 51.7243 20.0509C54.2144 23.4809 56.1543 27.2109 57.5343 31.2209C58.0943 37.5809 53.6244 43.3909 49.9244 47.9609C48.9044 49.2209 49.2843 53.7409 50.2443 54.9709C51.2743 56.3009 53.5043 55.9809 54.4643 54.7809C58.0343 50.3309 61.1143 46.1909 62.9043 40.6509C63.7243 38.7709 64.1644 36.8109 64.1944 34.7609C64.8444 32.5209 64.5944 30.3609 63.4544 28.2909C61.6744 22.4709 58.9243 17.0009 54.9343 12.3609C53.2343 10.3809 51.1443 7.84093 48.5943 7.02093C43.6743 5.44093 38.2544 5.14093 33.1444 5.46093C29.9544 5.66093 26.2744 5.85093 23.2344 7.00093L18.1044 10.4809C16.9244 11.6509 15.7443 12.8209 14.5643 13.9909C12.4543 16.3909 10.6543 18.9409 9.05434 21.6909C1.78434 34.1509 4.17434 54.1609 19.0543 60.1009C22.3143 61.4009 26.6443 61.6209 29.8443 59.7309C31.7643 58.5909 33.4144 56.3009 34.8244 54.6509C38.4044 50.4709 38.9743 48.7509 40.2143 43.2009C40.7143 40.9809 39.3544 40.0109 37.4444 40.5309C36.2644 40.9209 35.3844 41.7209 34.7944 42.9409C33.1544 45.0509 31.6743 47.2609 30.3343 49.5809V49.5509Z" fill="url(#paint8_linear_58_2039)"/>
<path opacity="0.11" d="M44.1344 41.911C42.1244 45.861 40.1244 49.811 38.1144 53.761C38.9344 52.171 39.7444 50.581 40.5644 48.991C40.4044 48.991 40.2544 48.981 40.0944 48.971C42.4544 47.241 44.8144 45.511 47.1744 43.781C43.1144 45.661 39.0444 47.541 34.9844 49.421C37.7444 48.361 40.4944 47.301 43.2544 46.251C37.3844 43.991 31.7944 41.121 26.4944 37.651L36.0244 44.131C33.6044 34.231 32.0344 24.161 31.3044 13.931C31.2644 20.451 31.2244 26.981 31.1944 33.501C33.9144 27.491 36.6344 21.481 39.3444 15.471C37.0044 19.741 34.6744 24.001 32.3344 28.271C35.8844 23.901 39.4344 19.531 42.9844 15.151C39.8244 18.401 36.6744 21.661 33.5144 24.911C37.7944 21.801 42.0744 18.691 46.3544 15.581C42.4744 17.861 38.5944 20.131 34.7144 22.411C39.6344 20.521 44.5444 18.621 49.4644 16.731C44.9044 18.021 40.3444 19.311 35.7844 20.601C40.1744 20.191 44.5744 19.781 48.9644 19.361C46.3444 19.381 43.7244 19.391 41.1044 19.411C46.4244 20.141 51.7344 20.861 57.0544 21.591C53.3244 20.771 49.5844 19.961 45.8544 19.141C50.4644 21.011 55.0744 22.891 59.6844 24.761C56.3644 23.011 53.0544 21.261 49.7344 19.511C53.6444 22.421 57.5644 25.321 61.4744 28.231C58.6144 25.561 55.7544 22.891 52.8844 20.221C54.4944 27.471 56.1044 34.721 57.7144 41.971C57.6344 43.421 57.2144 48.821 58.9344 50.191C60.3244 51.301 61.6344 50.221 62.3144 48.921C65.3044 43.181 67.2344 37.611 67.3144 31.051C67.3644 26.271 64.9444 22.341 62.0544 18.661C53.6444 7.91095 37.2844 5.32095 26.1944 13.201C18.9344 18.361 14.7344 26.241 14.5244 35.211C14.4444 38.791 14.7144 43.001 16.4044 46.231C18.0944 49.461 20.5144 52.461 23.2444 54.871C26.8344 58.031 29.9844 58.721 34.5444 58.691C37.4844 58.671 41.7444 54.561 43.5144 53.051C46.1544 50.811 49.4044 48.541 50.6544 45.221C51.5144 42.941 52.3744 40.671 53.2244 38.391C53.7544 36.991 53.8244 34.881 51.7144 34.951C48.9044 35.041 45.4144 40.271 44.1244 41.891L44.1344 41.911Z" fill="url(#paint9_linear_58_2039)"/>
<path opacity="0.11" d="M46.9144 65.251C46.5544 66.331 46.1943 67.411 45.8343 68.501C46.7143 67.361 47.5944 66.221 48.4744 65.081L44.1543 69.131C47.0143 67.201 49.8843 65.281 52.7443 63.351C49.4643 64.791 46.1744 66.231 42.8944 67.681L48.6543 66.391C44.6443 66.181 41.2144 65.661 37.5644 63.771C31.4244 61.471 31.3044 55.971 37.1944 47.291C33.7344 35.781 36.8643 30.001 46.5843 29.951C48.0743 30.351 49.4043 31.001 50.9343 31.281C54.2343 30.501 56.6744 31.351 58.2544 33.821C62.2644 38.011 65.4443 42.821 67.8043 48.261C66.8843 46.101 65.9644 43.951 65.0444 41.791C65.8044 45.131 66.5644 48.461 67.3244 51.801C67.0244 49.501 66.7144 47.201 66.4144 44.891C66.3244 48.261 66.2344 51.631 66.1344 55.001C66.0744 57.241 65.3544 61.081 66.6944 62.981C67.1444 63.611 68.6044 65.231 69.5644 63.851C72.4143 59.781 74.6844 56.041 75.7844 51.091C76.8244 46.411 77.0443 41.071 75.4043 36.471C72.1343 27.341 65.0844 21.421 55.6944 19.051C46.4044 16.711 36.8944 19.271 29.5943 25.481C24.1844 30.081 21.2543 35.531 20.2143 42.421C19.3743 47.981 19.0143 55.011 21.5243 60.141C23.2843 63.751 26.9544 67.131 30.1044 69.551C34.3744 72.841 34.5344 72.331 40.4444 72.521C43.0144 73.421 45.4044 73.311 47.6044 72.191C49.2244 71.571 50.7544 70.771 52.1944 69.781C54.0444 68.611 55.8644 67.391 57.4544 65.891C60.0344 63.441 60.6644 60.851 61.8644 57.651C61.8844 56.621 61.4044 55.951 60.4244 55.631C58.8644 55.501 57.4644 55.961 56.2344 57.031C53.0944 58.821 48.1243 61.611 46.9043 65.251H46.9144Z" fill="url(#paint10_linear_58_2039)"/>
<path opacity="0.21" d="M27.1744 62.161C26.9344 63.251 26.6944 64.331 26.4444 65.421C28.0544 63.261 29.6643 61.101 31.2743 58.941C29.9243 60.171 28.5844 61.411 27.2344 62.641C29.4544 61.111 31.6744 59.571 33.8844 58.041C16.4144 61.061 10.8544 57.421 10.2344 40.021C10.2644 41.321 9.55435 37.751 9.58434 39.061C13.1943 30.391 16.1243 19.591 28.0243 19.631C43.1643 19.691 53.0144 27.331 56.5243 46.181C56.6044 45.461 56.6943 44.741 56.7743 44.021C54.9044 49.941 52.4044 53.031 47.5444 56.891C44.7644 59.101 47.5744 68.781 50.8744 65.461C55.5544 60.751 59.3244 56.571 61.1944 50.051C62.4744 45.601 61.7744 40.981 60.3144 36.651C59.1644 33.211 57.7244 30.181 55.7844 27.151C54.7444 25.111 53.3644 23.341 51.6444 21.841C49.4044 18.881 46.3644 17.061 42.5144 16.381C36.8444 14.481 31.1144 13.421 25.1144 13.611C20.4144 13.761 19.9144 14.081 15.4144 17.491C11.5344 20.431 8.08434 23.881 5.08434 27.711C2.28434 30.191 0.924368 33.201 1.01437 36.711C0.464368 39.971 0.434351 43.241 0.934351 46.531C1.35435 50.221 1.92436 54.131 3.22436 57.621C4.75436 61.741 8.45435 65.481 11.9643 68.001C16.8643 71.521 23.4344 73.381 28.6244 69.381C31.5344 67.131 34.3144 64.471 36.6944 61.651C39.2744 58.611 39.5044 56.331 40.4744 52.251C41.1044 49.591 39.8044 48.081 37.1744 49.621C35.1744 51.421 33.3544 53.391 31.7344 55.541C29.9944 57.601 28.4744 59.811 27.1644 62.161H27.1744Z" fill="url(#paint11_linear_58_2039)"/>
<path opacity="0.9" d="M69.1044 27.341C67.2244 23.341 66.9544 19.101 64.0644 15.831C56.9744 7.81102 50.7344 11.231 42.4944 11.231C36.1744 11.231 30.6944 6.81102 24.9544 8.11102C14.0744 10.581 3.19437 30.861 10.2444 40.011C17.4244 49.331 11.1244 58.631 16.4744 64.401C21.2944 69.601 30.2044 70.821 37.5444 71.971C39.1944 72.231 40.8744 72.361 42.5944 72.361C44.3144 72.361 46.0044 72.231 47.6444 71.971C55.3744 70.761 62.2044 66.801 67.0944 61.141C71.9844 55.471 71.8744 47.481 74.9444 40.021C77.7444 33.211 71.0844 31.521 69.1244 27.351L69.1044 27.341Z" fill="url(#paint12_linear_58_2039)"/>
<path d="M20.7005 23.021L35.135 42.3253L20.6106 58.021H23.8804L36.5977 44.2799L46.8721 58.021H57.9973L42.7514 37.6308L56.2714 23.021H53.0016L41.2908 35.6763L31.8279 23.021H20.7027H20.7005ZM25.5076 25.4296H30.6174L53.1858 55.6124H48.076L25.5076 25.4296Z" fill="white"/>
<defs>
<filter id="filter0_d_58_2039" x="5.33179" y="17.5066" width="60.8904" height="60.6882" filterUnits="userSpaceOnUse" color-interpolation-filters="sRGB">
<feFlood flood-opacity="0" result="BackgroundImageFix"/>
<feColorMatrix in="SourceAlpha" type="matrix" values="0 0 0 0 0 0 0 0 0 0 0 0 0 0 0 0 0 0 127 0" result="hardAlpha"/>
<feOffset dy="4"/>
<feGaussianBlur stdDeviation="2"/>
<feComposite in2="hardAlpha" operator="out"/>
<feColorMatrix type="matrix" values="0 0 0 0 0 0 0 0 0 0 0 0 0 0 0 0 0 0 0.25 0"/>
<feBlend mode="normal" in2="BackgroundImageFix" result="effect1_dropShadow_58_2039"/>
<feBlend mode="normal" in="SourceGraphic" in2="effect1_dropShadow_58_2039" result="shape"/>
</filter>
<linearGradient id="paint0_linear_58_2039" x1="22.3304" y1="25.5705" x2="66.997" y2="74.8203" gradientUnits="userSpaceOnUse">
<stop stop-color="#5E5E5E"/>
<stop offset="0.96" stop-color="#383D38"/>
</linearGradient>
<linearGradient id="paint1_linear_58_2039" x1="16.6379" y1="22.2447" x2="55.9706" y2="65.6966" gradientUnits="userSpaceOnUse">
<stop stop-color="#5E5E5E"/>
<stop offset="0.96" stop-color="#383D38"/>
</linearGradient>
<linearGradient id="paint2_linear_58_2039" x1="15.6436" y1="5.23549" x2="58.8162" y2="55.536" gradientUnits="userSpaceOnUse">
<stop stop-color="#5E5E5E"/>
<stop offset="0.96" stop-color="#383D38"/>
</linearGradient>
<linearGradient id="paint3_linear_58_2039" x1="26.8276" y1="21.4462" x2="62.4394" y2="61.3205" gradientUnits="userSpaceOnUse">
<stop stop-color="#5E5E5E"/>
<stop offset="0.96" stop-color="#383D38"/>
</linearGradient>
<linearGradient id="paint4_linear_58_2039" x1="23.1235" y1="5.44266" x2="65.8701" y2="56.8832" gradientUnits="userSpaceOnUse">
<stop stop-color="#5E5E5E"/>
<stop offset="0.96" stop-color="#383D38"/>
</linearGradient>
<linearGradient id="paint5_linear_58_2039" x1="8.50846" y1="12.5932" x2="52.4629" y2="62.3802" gradientUnits="userSpaceOnUse">
<stop stop-color="#5E5E5E"/>
<stop offset="0.96" stop-color="#383D38"/>
</linearGradient>
<linearGradient id="paint6_linear_58_2039" x1="15.404" y1="26.6387" x2="59.3373" y2="77.5311" gradientUnits="userSpaceOnUse">
<stop stop-color="#5E5E5E"/>
<stop offset="0.96" stop-color="#383D38"/>
</linearGradient>
<linearGradient id="paint7_linear_58_2039" x1="29.7219" y1="17.5351" x2="70.463" y2="62.6352" gradientUnits="userSpaceOnUse">
<stop stop-color="#5E5E5E"/>
<stop offset="0.96" stop-color="#383D38"/>
</linearGradient>
<linearGradient id="paint8_linear_58_2039" x1="13.3035" y1="10.3614" x2="54.6119" y2="58.8298" gradientUnits="userSpaceOnUse">
<stop stop-color="#5E5E5E"/>
<stop offset="0.96" stop-color="#383D38"/>
</linearGradient>
<linearGradient id="paint9_linear_58_2039" x1="21.806" y1="13.1241" x2="58.9574" y2="56.2409" gradientUnits="userSpaceOnUse">
<stop stop-color="#5E5E5E"/>
<stop offset="0.96" stop-color="#383D38"/>
</linearGradient>
<linearGradient id="paint10_linear_58_2039" x1="27.4626" y1="23.1345" x2="68.3084" y2="69.7927" gradientUnits="userSpaceOnUse">
<stop stop-color="#5E5E5E"/>
<stop offset="0.96" stop-color="#383D38"/>
</linearGradient>
<linearGradient id="paint11_linear_58_2039" x1="9.04516" y1="18.8092" x2="52.1086" y2="68.843" gradientUnits="userSpaceOnUse">
<stop stop-color="#5E5E5E"/>
<stop offset="0.96" stop-color="#383D38"/>
</linearGradient>
<linearGradient id="paint12_linear_58_2039" x1="17.3444" y1="13.671" x2="65.2344" y2="68.931" gradientUnits="userSpaceOnUse">
<stop stop-color="#5E5E5E"/>
<stop offset="0.96" stop-color="#383D38"/>
</linearGradient>
</defs>
</svg>
