<svg width="79" height="81" viewBox="0 0 79 81" fill="none" xmlns="http://www.w3.org/2000/svg">
<path opacity="0.11" d="M42.3725 71.121C41.4525 72.421 40.5425 73.711 39.6225 75.011L48.2125 69.691C44.8925 71.021 41.5725 72.341 38.2525 73.671C40.1025 73.371 41.9425 73.061 43.7925 72.761C35.5525 71.961 24.7625 69.931 22.3625 59.341C18.9625 44.331 25.6425 33.651 42.9225 25.861C42.2025 25.941 41.4725 26.021 40.7525 26.101C44.1925 26.381 47.0425 26.781 50.1325 28.481C55.6525 31.511 60.4325 36.921 62.4325 42.921C62.9525 44.481 63.7125 45.951 64.2425 47.511C65.4125 50.951 64.6225 54.121 63.5625 57.411C62.5725 60.481 61.5425 66.291 62.8525 69.371C63.8625 71.751 65.7325 71.271 67.0625 69.621C69.7325 66.321 71.3825 64.291 72.9425 60.281C75.0425 54.861 75.3325 47.381 73.5725 41.831C71.1925 34.321 67.0025 29.361 60.3825 25.231C55.6925 22.301 50.5525 20.181 44.9225 20.191C38.1125 20.191 31.5225 23.981 26.4025 28.221C23.3225 30.771 19.7525 34.231 17.8325 37.731C15.9125 41.231 15.5325 45.261 15.1225 49.181C14.5825 54.361 14.5725 59.711 16.0525 64.771C17.2125 68.751 21.7325 72.311 25.0225 74.881C27.4725 76.791 31.0025 78.771 34.1125 79.741C37.0525 80.651 41.3125 79.081 43.9425 77.901C47.0425 76.511 50.3725 74.891 52.7825 72.441C55.2325 69.941 56.1325 67.421 57.3625 64.171C57.4125 63.151 56.9525 62.461 55.9925 62.101C54.4625 61.901 53.0625 62.311 51.8125 63.321C48.7525 64.921 43.5425 67.5709 42.3725 71.111V71.121Z" fill="url(#paint0_linear_58_2019)"/>
<path opacity="0.11" d="M34.3325 62.101C34.0825 63.181 33.8425 64.271 33.5925 65.351L37.9425 59.181C36.1825 61.171 34.4225 63.151 32.6625 65.141C37.4025 60.801 42.1425 56.461 46.8825 52.121C42.4225 55.681 37.9525 59.231 33.4925 62.791C38.7425 59.141 43.9825 55.501 49.2325 51.851C41.9025 55.341 34.5725 58.841 27.2425 62.331C32.8325 60.361 38.4125 58.391 44.0025 56.431C37.4025 57.871 30.7925 59.321 24.1925 60.761C29.7625 59.851 35.3325 58.941 40.8925 58.031L27.4725 58.161L37.8725 58.721C33.6225 57.831 29.3625 56.941 25.1125 56.051C28.4925 56.901 31.8625 57.741 35.2425 58.591C30.9625 56.801 26.6725 55.021 22.3925 53.231C25.1425 54.621 27.8925 56.011 30.6325 57.401C27.2725 54.971 23.9125 52.541 20.5525 50.111C22.6925 51.951 24.8325 53.781 26.9725 55.621C24.4725 52.711 21.9825 49.801 19.4825 46.901L24.2125 53.581C21.7725 48.821 19.3425 44.071 16.9025 39.311C18.6725 43.371 20.4525 47.431 22.2225 51.491C21.9425 45.911 21.6725 40.331 21.3925 34.751C21.2025 37.011 21.0225 39.271 20.8325 41.531C21.7625 38.001 22.6925 34.471 23.6225 30.941C22.9025 33.031 22.1825 35.121 21.4625 37.211C23.1025 34.121 24.7425 31.041 26.3825 27.951C25.1325 29.851 23.8825 31.751 22.6325 33.651C32.7825 24.871 40.3325 24.041 45.3125 31.161C48.4225 33.981 49.6725 37.711 49.0525 42.351C49.1025 45.371 49.4125 48.361 49.9825 51.331C50.2925 53.711 50.7925 56.051 51.5025 58.331C51.8825 59.661 53.6625 64.181 55.6125 61.341C60.0425 54.891 63.8625 48.081 62.7725 39.881C61.8625 33.011 56.5325 23.671 50.0225 20.581C43.4325 17.451 32.8825 16.201 26.1425 19.281C22.9325 20.751 19.7325 23.931 17.4825 26.601C15.0525 29.601 12.9925 32.841 11.3025 36.311C10.3225 39.871 9.9325 43.491 10.1125 47.181C10.3425 52.751 11.4925 57.661 15.0025 62.071C17.0125 64.591 19.4125 66.671 22.1925 68.291C25.5125 70.451 29.1325 70.771 33.0525 69.261C36.7125 68.931 42.9025 62.551 44.9325 60.751C46.6925 59.151 48.4525 57.541 50.2125 55.941C52.3225 54.381 53.8925 52.431 54.9425 50.091C55.9625 47.641 56.3825 45.091 56.1825 42.431C56.4325 37.061 48.2225 45.401 48.3225 45.301C44.9125 48.671 41.6325 52.161 38.4925 55.791C36.5325 57.561 35.1525 59.671 34.3225 62.121L34.3325 62.101Z" fill="url(#paint1_linear_58_2019)"/>
<path opacity="0.11" d="M30.9625 50.951C30.7525 51.831 30.5325 52.711 30.3225 53.591C31.2625 51.961 32.2025 50.331 33.1525 48.701C30.6825 48.381 28.2125 48.051 25.7425 47.731C25.0825 46.901 24.4225 46.081 23.7525 45.251C20.2425 39.721 18.9325 32.411 19.7625 26.021C19.8225 24.331 20.1925 22.701 20.8625 21.141C21.5325 17.781 23.5825 15.291 27.0125 13.681C29.7525 9.19099 33.6925 7.16099 38.8425 7.58099C43.3425 6.25099 47.8625 6.20099 52.4125 7.43099C51.4625 7.10099 50.5225 6.76099 49.5725 6.43099C53.0425 9.03099 55.9825 12.131 58.3825 15.741C61.1825 19.091 62.4025 22.921 62.0525 27.241C63.2825 31.301 62.7825 35.151 60.5425 38.771C58.6925 42.741 56.3025 46.341 53.3525 49.591C51.1225 52.461 56.1425 55.161 58.0825 52.621C61.8325 47.731 65.1125 43.071 67.2125 37.171C68.1425 35.121 68.7125 32.981 68.9325 30.741C69.8025 28.461 69.6825 26.221 68.5525 24.031C66.9925 18.261 64.4925 12.781 60.7225 8.08099C59.1925 6.18099 57.1625 3.60099 54.9025 2.54099C52.1525 1.25099 48.2925 0.940988 45.2025 0.520988C40.3325 -0.129012 33.2025 -0.489012 28.6825 1.42099C21.8125 4.32099 16.3925 9.88099 12.6225 16.171C7.89249 24.051 6.1625 34.321 9.8825 43.021C12.5225 49.161 17.1925 56.041 24.1325 57.661C27.1325 58.361 30.4125 58.741 32.9825 56.691C36.0425 54.241 37.5425 51.621 38.1925 47.781C38.4525 46.251 35.9025 44.971 34.6925 45.411C32.8125 46.101 31.3925 49.161 30.9625 50.931V50.951Z" fill="url(#paint2_linear_58_2019)"/>
<path opacity="0.11" d="M45.2025 57.621C44.9625 58.701 44.7325 59.771 44.4925 60.851C44.8825 60.131 45.2625 59.411 45.6525 58.691C45.0125 59.421 44.3625 60.151 43.7225 60.881C48.4325 57.091 53.1525 53.291 57.8625 49.501C52.3825 52.881 46.8925 56.251 41.4125 59.631C46.7825 57.091 52.1625 54.551 57.5325 52.021C50.1825 53.911 42.8425 55.801 35.4925 57.691C40.8725 56.921 46.2525 56.151 51.6325 55.381C45.7425 53.791 39.8525 52.201 33.9525 50.611C36.9525 51.951 39.9625 53.281 42.9625 54.621C39.5525 52.371 36.1425 50.121 32.7425 47.871C35.3625 49.741 37.9825 51.611 40.6025 53.471C37.2225 49.041 34.6925 44.121 33.0325 38.701L36.5525 48.111C35.7525 44.061 34.9625 40.021 34.1625 35.971C34.6325 39.271 35.1125 42.561 35.5825 45.861C35.7025 43.861 35.8125 41.861 35.9325 39.861C35.4925 41.971 35.0425 44.091 34.6025 46.201C35.0625 45.171 35.5125 44.141 35.9725 43.121C35.5425 43.791 35.1125 44.461 34.6825 45.131C42.4525 38.251 50.2125 31.371 57.9825 24.491C50.2325 28.461 42.4825 32.431 34.7325 36.401C45.1325 37.431 55.5325 38.461 65.9325 39.491C58.1025 35.701 50.2725 31.911 42.4425 28.121C44.3525 43.471 50.8125 53.001 61.8125 56.721C62.3125 57.121 62.7225 57.041 63.0325 56.471C64.9525 55.361 63.6825 50.721 63.4625 49.021C62.6925 43.071 61.0225 37.441 59.5025 31.681C61.8125 38.311 64.1225 44.951 66.4325 51.581C67.0525 50.051 67.6725 48.521 68.3025 47.001C71.4025 37.751 68.0125 28.791 61.0525 22.361C54.5625 16.361 42.4125 15.591 34.9525 19.801C29.7425 22.741 24.8725 27.431 22.5125 33.071C21.0625 36.541 20.7025 41.211 20.9025 45.031C21.1225 46.721 21.3325 48.411 21.5525 50.101C27.5125 56.191 34.5425 60.961 42.6225 64.421C45.8225 66.521 50.6525 61.451 53.0125 59.721C55.7525 57.771 58.4025 55.701 60.9625 53.531C63.0525 52.191 64.6425 50.431 65.7125 48.261C66.8925 45.861 67.4725 43.331 67.4725 40.661C68.0725 35.471 59.6825 42.671 59.6825 42.671C56.1925 45.611 52.8325 48.681 49.5925 51.901C47.5925 53.441 46.1325 55.351 45.2225 57.641L45.2025 57.621Z" fill="url(#paint3_linear_58_2019)"/>
<path opacity="0.11" d="M36.9025 51.741C36.6625 52.421 36.4125 53.111 36.1725 53.791C36.9725 52.901 37.7725 52.021 38.5825 51.141C31.5725 54.091 24.9725 43.431 24.3925 37.351C24.0225 33.491 25.2425 29.901 26.9825 26.501C29.6925 22.251 32.4025 18.001 35.1025 13.751C41.4425 8.701 48.9825 6.731 57.7325 7.821L53.4325 7.091C62.5325 11.071 69.0525 17.311 72.9825 25.801C72.7225 24.921 72.4625 24.031 72.2025 23.151C72.0025 27.341 71.1325 31.391 69.6025 35.291C67.9525 39.501 65.7125 43.371 62.8925 46.911C62.2125 47.901 61.7325 49.861 62.6625 50.891C63.3225 51.621 66.2025 52.021 66.8725 51.131C70.5925 46.201 73.8825 41.471 76.0425 35.601C76.9925 33.551 77.5925 31.401 77.8525 29.161C78.4825 27.711 78.6425 26.241 78.3225 24.751C76.9825 19.651 73.1825 14.291 69.9125 10.481C65.9725 5.901 62.2525 2.381 56.0625 1.141C52.2325 0.370996 48.1625 0.0109959 44.2625 0.370996C35.6225 1.171 26.8525 4.991 21.8425 12.441C16.6525 20.171 13.6025 29.911 15.8625 39.121C17.4625 45.661 21.2825 51.921 27.0625 55.541C32.0925 58.691 40.0825 60.211 42.2625 53.211C43.1825 50.261 38.1625 48.271 36.9225 51.741H36.9025Z" fill="url(#paint4_linear_58_2019)"/>
<path opacity="0.18" d="M27.1325 55.301C26.5625 57.121 26.0025 58.941 25.4325 60.761C26.5425 58.901 27.6525 57.031 28.7625 55.171C27.4725 56.861 26.1825 58.551 24.8825 60.241C27.2625 57.661 29.6325 55.091 32.0125 52.511C29.2025 54.661 26.0125 55.601 22.4225 55.301C19.6525 54.281 17.3425 52.671 15.5025 50.461C13.6125 48.771 12.1025 46.771 11.0025 44.451C6.9825 31.301 11.1425 20.721 23.4725 12.721C22.7225 13.181 21.9725 13.641 21.2325 14.101C25.4325 13.461 29.6225 13.491 33.8125 14.201C38.2325 14.951 42.4425 16.331 46.4525 18.331C49.3225 21.151 51.5925 24.401 53.2725 28.071C58.1525 37.781 55.8925 47.381 46.4825 56.881C45.6325 57.771 46.3925 61.281 47.3025 61.961C48.4625 62.821 50.5925 62.341 51.4725 61.281C56.9225 54.731 61.6625 47.991 61.6225 39.061C61.5925 31.961 58.1325 24.081 53.9125 18.461C52.1225 15.191 49.5225 13.021 46.0925 11.981C42.8425 10.281 39.4025 9.07104 35.7725 8.35104C31.2325 7.32104 26.6525 7.04104 22.0225 7.49104C19.6925 8.35104 17.6125 9.68104 15.7825 11.461C8.5625 17.111 1.53248 25.201 0.952481 34.701C0.722481 38.501 0.872487 42.501 1.55249 46.231C3.52249 56.921 13.0725 69.141 25.1325 65.751C27.2825 65.151 28.5525 63.701 30.0425 62.071C31.6125 60.351 34.6725 57.541 35.2225 55.231C35.6825 53.311 36.1325 51.391 36.5925 49.461C37.0925 47.331 35.5625 46.381 33.7925 46.831C31.0625 47.521 28.2625 53.031 27.1225 55.271L27.1325 55.301Z" fill="url(#paint5_linear_58_2019)"/>
<path opacity="0.11" d="M35.4125 72.151C35.0825 73.251 34.7525 74.351 34.4125 75.451C35.2825 74.281 36.1625 73.111 37.0325 71.941C35.6025 73.281 34.1625 74.631 32.7325 75.971C35.6425 73.981 38.5525 71.991 41.4625 70.001L31.7225 74.051C33.6925 73.641 35.6625 73.221 37.6325 72.811C35.8625 72.751 34.0925 72.681 32.3225 72.621C26.5525 68.631 20.7725 64.631 15.0025 60.641C13.3625 55.791 13.8825 49.861 14.7025 44.971C14.5725 42.711 15.3725 40.861 17.0925 39.421C18.2725 37.621 19.7125 36.061 21.4125 34.741C31.9025 25.051 40.9125 23.491 58.0125 33.641C57.4825 33.141 56.9625 32.651 56.4325 32.151C58.1925 35.901 59.9525 39.651 61.7225 43.411C61.9525 46.251 61.8725 49.091 61.4725 51.911C61.7325 54.011 61.3525 55.941 60.3125 57.701C59.5725 59.631 58.4825 61.351 57.0425 62.861C55.8625 64.481 55.6225 70.041 56.6125 71.781C57.6025 73.511 59.6525 73.371 60.8325 71.981C65.0725 67.001 68.7725 61.871 69.5925 55.141C70.3125 49.201 69.5125 42.461 66.8125 37.071C63.8925 31.231 59.1425 27.681 53.3225 25.001C47.4925 22.311 40.1025 20.531 33.6625 21.661C29.0225 22.471 23.1025 26.111 19.5125 29.101C17.7225 30.741 15.9425 32.391 14.1525 34.031C11.1525 36.341 9.46251 39.301 9.09251 42.891C7.68251 48.601 7.22251 54.341 7.74251 60.201C7.56251 64.961 9.39252 68.761 13.2225 71.591C14.8025 72.921 16.3825 74.241 17.9625 75.571C20.1925 77.221 23.3525 78.941 25.9925 79.911C27.6425 80.691 29.3725 80.711 31.1825 79.961C33.4625 80.081 35.5725 79.571 37.5225 78.431C40.5325 76.881 44.0025 75.011 46.2525 72.461C48.5525 69.841 49.2825 67.301 50.2525 63.971C50.2525 62.941 49.7425 62.281 48.7525 61.991C47.1725 61.911 45.7825 62.431 44.5725 63.551C41.4725 65.451 36.5325 68.421 35.4125 72.131V72.151Z" fill="url(#paint6_linear_58_2019)"/>
<path opacity="0.11" d="M48.3525 57.941C48.0025 58.691 47.6525 59.451 47.3025 60.201C49.0625 59.391 50.8225 58.581 52.5725 57.771C49.3025 58.831 45.8625 59.371 42.6425 58.001C41.5125 57.331 40.3925 56.661 39.2625 56.001C33.7725 49.611 32.7525 43.431 36.1925 37.461C36.2425 35.181 37.1925 33.711 39.0325 33.021C39.7925 32.741 40.4225 32.301 40.9425 31.701C42.0725 30.471 43.5125 29.691 45.2625 29.361C50.0825 26.661 55.3725 25.511 61.1225 25.911L52.8425 26.491L64.1025 27.791C61.4925 27.271 58.8725 26.741 56.2625 26.221C59.5525 27.541 62.8325 28.861 66.1225 30.181C63.7125 28.991 61.3125 27.811 58.9025 26.621C61.7025 28.701 64.5025 30.771 67.3025 32.851C65.1525 31.041 63.0025 29.231 60.8525 27.421C63.5325 30.691 66.2225 33.971 68.9025 37.241C67.4525 35.261 66.0025 33.281 64.5525 31.291C66.2725 34.701 67.9925 38.121 69.7125 41.531C68.9225 39.451 68.1225 37.361 67.3325 35.281C68.4025 39.931 69.4725 44.591 70.5525 49.241C70.1325 45.881 69.7225 42.511 69.3025 39.151C68.8925 44.261 68.7725 49.371 68.9325 54.481C68.7625 55.241 68.8925 55.931 69.3225 56.551C69.9125 57.571 70.9525 58.231 72.1325 57.571C74.4625 56.271 73.6125 51.721 74.5425 49.961C75.2625 48.991 75.9825 48.021 76.7025 47.041C77.0025 45.161 77.3125 43.271 77.6125 41.381C78.7625 31.381 74.0125 22.691 65.8925 17.101C61.3725 13.981 54.2525 12.091 48.7625 12.761C43.4125 13.411 38.8325 15.441 34.5425 18.701C26.1025 25.121 22.3125 34.891 22.9425 45.411C23.2425 50.461 24.3525 54.501 27.8225 58.471C30.2225 61.211 32.9825 63.861 36.2725 65.481C40.6425 67.641 44.5425 67.861 49.0725 65.681C51.5025 64.511 53.8125 62.831 55.8325 61.031C58.2725 58.871 59.5525 56.531 60.4625 53.411C61.0725 51.331 60.2825 49.551 57.7725 50.161C55.9425 51.101 54.2525 52.251 52.7025 53.621C51.0625 54.881 49.6125 56.321 48.3525 57.951V57.941Z" fill="url(#paint7_linear_58_2019)"/>
<path opacity="0.28" d="M31.0725 49.5509C30.4825 51.4009 29.8825 53.2509 29.2925 55.1109C30.4825 53.1309 31.6825 51.1409 32.8725 49.1609C31.5425 50.9409 30.2125 52.7109 28.8925 54.4909C31.4125 51.7009 33.9325 48.9109 36.4425 46.1209C33.8625 47.9809 31.0225 49.2809 27.9125 50.0209C29.4425 49.7309 30.9725 49.4409 32.5125 49.1409C30.0125 48.9009 23.3325 44.9909 21.3025 42.9009C15.1425 36.6009 19.8825 22.1709 21.6925 17.0309C20.9525 18.6609 20.2125 20.2809 19.4725 21.9109C21.2125 19.3109 22.9525 16.7209 24.6925 14.1209L21.0925 18.1109C28.6025 12.9609 37.1825 10.9409 46.8425 12.0609L43.2325 11.2609C46.8225 13.6509 49.9025 16.5809 52.4625 20.0509C54.9525 23.4809 56.8925 27.2109 58.2725 31.2209C58.8325 37.5809 54.3625 43.3909 50.6625 47.9609C49.6425 49.2209 50.0225 53.7409 50.9825 54.9709C52.0125 56.3009 54.2425 55.9809 55.2025 54.7809C58.7725 50.3309 61.8525 46.1909 63.6425 40.6509C64.4625 38.7709 64.9025 36.8109 64.9325 34.7609C65.5825 32.5209 65.3325 30.3609 64.1925 28.2909C62.4125 22.4709 59.6625 17.0009 55.6725 12.3609C53.9725 10.3809 51.8825 7.84093 49.3325 7.02093C44.4125 5.44093 38.9925 5.14093 33.8825 5.46093C30.6925 5.66093 27.0125 5.85093 23.9725 7.00093L18.8425 10.4809C17.6625 11.6509 16.4825 12.8209 15.3025 13.9909C13.1925 16.3909 11.3925 18.9409 9.79247 21.6909C2.52247 34.1509 4.91247 54.1609 19.7925 60.1009C23.0525 61.4009 27.3825 61.6209 30.5825 59.7309C32.5025 58.5909 34.1525 56.3009 35.5625 54.6509C39.1425 50.4709 39.7125 48.7509 40.9525 43.2009C41.4525 40.9809 40.0925 40.0109 38.1825 40.5309C37.0025 40.9209 36.1225 41.7209 35.5325 42.9409C33.8925 45.0509 32.4125 47.2609 31.0725 49.5809V49.5509Z" fill="url(#paint8_linear_58_2019)"/>
<path opacity="0.11" d="M44.8725 41.911C42.8625 45.861 40.8625 49.811 38.8525 53.761C39.6725 52.171 40.4825 50.581 41.3025 48.991C41.1425 48.991 40.9925 48.981 40.8325 48.971C43.1925 47.241 45.5525 45.511 47.9125 43.781C43.8525 45.661 39.7825 47.541 35.7225 49.421C38.4825 48.361 41.2325 47.301 43.9925 46.251C38.1225 43.991 32.5325 41.121 27.2325 37.651L36.7625 44.131C34.3425 34.231 32.7725 24.161 32.0425 13.931C32.0025 20.451 31.9625 26.981 31.9325 33.501C34.6525 27.491 37.3725 21.481 40.0825 15.471C37.7425 19.741 35.4125 24.001 33.0725 28.271C36.6225 23.901 40.1725 19.531 43.7225 15.151C40.5625 18.401 37.4125 21.661 34.2525 24.911C38.5325 21.801 42.8125 18.691 47.0925 15.581C43.2125 17.861 39.3325 20.131 35.4525 22.411C40.3725 20.521 45.2825 18.621 50.2025 16.731C45.6425 18.021 41.0825 19.311 36.5225 20.601C40.9125 20.191 45.3125 19.781 49.7025 19.361C47.0825 19.381 44.4625 19.391 41.8425 19.411C47.1625 20.141 52.4725 20.861 57.7925 21.591C54.0625 20.771 50.3225 19.961 46.5925 19.141C51.2025 21.011 55.8125 22.891 60.4225 24.761C57.1025 23.011 53.7925 21.261 50.4725 19.511C54.3825 22.421 58.3025 25.321 62.2125 28.231C59.3525 25.561 56.4925 22.891 53.6225 20.221C55.2325 27.471 56.8425 34.721 58.4525 41.971C58.3725 43.421 57.9525 48.821 59.6725 50.191C61.0625 51.301 62.3725 50.221 63.0525 48.921C66.0425 43.181 67.9725 37.611 68.0525 31.051C68.1025 26.271 65.6825 22.341 62.7925 18.661C54.3825 7.91095 38.0225 5.32095 26.9325 13.201C19.6725 18.361 15.4725 26.241 15.2625 35.211C15.1825 38.791 15.4525 43.001 17.1425 46.231C18.8325 49.461 21.2525 52.461 23.9825 54.871C27.5725 58.031 30.7225 58.721 35.2825 58.691C38.2225 58.671 42.4825 54.561 44.2525 53.051C46.8925 50.811 50.1425 48.541 51.3925 45.221C52.2525 42.941 53.1125 40.671 53.9625 38.391C54.4925 36.991 54.5625 34.881 52.4525 34.951C49.6425 35.041 46.1525 40.271 44.8625 41.891L44.8725 41.911Z" fill="url(#paint9_linear_58_2019)"/>
<path opacity="0.11" d="M47.6525 65.251C47.2925 66.331 46.9325 67.411 46.5725 68.501C47.4525 67.361 48.3325 66.221 49.2125 65.081L44.8925 69.131C47.7525 67.201 50.6225 65.281 53.4825 63.351C50.2025 64.791 46.9125 66.231 43.6325 67.681L49.3925 66.391C45.3825 66.181 41.9525 65.661 38.3025 63.771C32.1625 61.471 32.0425 55.971 37.9325 47.291C34.4725 35.781 37.6025 30.001 47.3225 29.951C48.8125 30.351 50.1425 31.001 51.6725 31.281C54.9725 30.501 57.4125 31.351 58.9925 33.821C63.0025 38.011 66.1825 42.821 68.5425 48.261C67.6225 46.101 66.7025 43.951 65.7825 41.791C66.5425 45.131 67.3025 48.461 68.0625 51.801C67.7625 49.501 67.4525 47.201 67.1525 44.891C67.0625 48.261 66.9725 51.631 66.8725 55.001C66.8125 57.241 66.0925 61.081 67.4325 62.981C67.8825 63.611 69.3425 65.231 70.3025 63.851C73.1525 59.781 75.4225 56.041 76.5225 51.091C77.5625 46.411 77.7825 41.071 76.1425 36.471C72.8725 27.341 65.8225 21.421 56.4325 19.051C47.1425 16.711 37.6325 19.271 30.3325 25.481C24.9225 30.081 21.9925 35.531 20.9525 42.421C20.1125 47.981 19.7525 55.011 22.2625 60.141C24.0225 63.751 27.6925 67.131 30.8425 69.551C35.1125 72.841 35.2725 72.331 41.1825 72.521C43.7525 73.421 46.1425 73.311 48.3425 72.191C49.9625 71.571 51.4925 70.771 52.9325 69.781C54.7825 68.611 56.6025 67.391 58.1925 65.891C60.7725 63.441 61.4025 60.851 62.6025 57.651C62.6225 56.621 62.1425 55.951 61.1625 55.631C59.6025 55.501 58.2025 55.961 56.9725 57.031C53.8325 58.821 48.8625 61.611 47.6425 65.251H47.6525Z" fill="url(#paint10_linear_58_2019)"/>
<path opacity="0.21" d="M27.9125 62.161C27.6725 63.251 27.4325 64.331 27.1825 65.421C28.7925 63.261 30.4025 61.101 32.0125 58.941C30.6625 60.171 29.3225 61.411 27.9725 62.641C30.1925 61.111 32.4125 59.571 34.6225 58.041C17.1525 61.061 11.5925 57.421 10.9725 40.021C11.0025 41.321 10.2925 37.751 10.3225 39.061C13.9325 30.391 16.8625 19.591 28.7625 19.631C43.9025 19.691 53.7525 27.331 57.2625 46.181C57.3425 45.461 57.4325 44.741 57.5125 44.021C55.6425 49.941 53.1425 53.031 48.2825 56.891C45.5025 59.101 48.3125 68.781 51.6125 65.461C56.2925 60.751 60.0625 56.571 61.9325 50.051C63.2125 45.601 62.5125 40.981 61.0525 36.651C59.9025 33.211 58.4625 30.181 56.5225 27.151C55.4825 25.111 54.1025 23.341 52.3825 21.841C50.1425 18.881 47.1025 17.061 43.2525 16.381C37.5825 14.481 31.8525 13.421 25.8525 13.611C21.1525 13.761 20.6525 14.081 16.1525 17.491C12.2725 20.431 8.82247 23.881 5.82247 27.711C3.02247 30.191 1.6625 33.201 1.7525 36.711C1.2025 39.971 1.17248 43.241 1.67248 46.531C2.09248 50.221 2.66249 54.131 3.96249 57.621C5.49249 61.741 9.19248 65.481 12.7025 68.001C17.6025 71.521 24.1725 73.381 29.3625 69.381C32.2725 67.131 35.0525 64.471 37.4325 61.651C40.0125 58.611 40.2425 56.331 41.2125 52.251C41.8425 49.591 40.5425 48.081 37.9125 49.621C35.9125 51.421 34.0925 53.391 32.4725 55.541C30.7325 57.601 29.2125 59.811 27.9025 62.161H27.9125Z" fill="url(#paint11_linear_58_2019)"/>
<path opacity="0.9" d="M69.8425 27.341C67.9625 23.341 67.6925 19.101 64.8025 15.831C57.7125 7.81102 51.4725 11.231 43.2325 11.231C36.9125 11.231 31.4325 6.81102 25.6925 8.11102C14.8125 10.581 3.9325 30.861 10.9825 40.011C18.1625 49.331 11.8625 58.631 17.2125 64.401C22.0325 69.601 30.9425 70.821 38.2825 71.971C39.9325 72.231 41.6125 72.361 43.3325 72.361C45.0525 72.361 46.7425 72.231 48.3825 71.971C56.1125 70.761 62.9425 66.801 67.8325 61.141C72.7225 55.471 72.6125 47.481 75.6825 40.021C78.4825 33.211 71.8225 31.521 69.8625 27.351L69.8425 27.341Z" fill="url(#paint12_linear_58_2019)"/>
<path fill-rule="evenodd" clip-rule="evenodd" d="M50.6325 33.951C53.2825 35.841 56.5225 36.951 60.0225 36.951V30.211C59.3625 30.211 58.7025 30.141 58.0525 30.001V35.301C54.5525 35.301 51.3125 34.191 48.6625 32.301V46.051C48.6625 52.931 43.0825 58.501 36.2025 58.501C33.6325 58.501 31.2525 57.721 29.2725 56.391C31.5325 58.701 34.6925 60.141 38.1825 60.141C45.0625 60.141 50.6425 54.571 50.6425 47.691V33.941L50.6325 33.951ZM53.0625 27.151C51.7125 25.671 50.8225 23.761 50.6325 21.651V20.781H48.7625C49.2325 23.461 50.8425 25.751 53.0625 27.141V27.151ZM33.6225 51.121C32.8625 50.131 32.4625 48.921 32.4625 47.671C32.4625 44.521 35.0125 41.971 38.1625 41.971C38.7525 41.971 39.3325 42.061 39.8925 42.241V35.351C39.2425 35.261 38.5825 35.221 37.9225 35.241V40.601C37.3625 40.421 36.7825 40.331 36.1925 40.331C33.0425 40.331 30.4925 42.881 30.4925 46.031C30.4925 48.251 31.7625 50.181 33.6225 51.121Z" fill="#ED1D52"/>
<path fill-rule="evenodd" clip-rule="evenodd" d="M48.6625 32.311C51.3125 34.201 54.5525 35.311 58.0525 35.311V30.011C56.1025 29.591 54.3625 28.571 53.0625 27.151C50.8325 25.761 49.2325 23.471 48.7625 20.791H43.8525V47.691C43.8425 50.831 41.2925 53.371 38.1525 53.371C36.3025 53.371 34.6625 52.491 33.6125 51.121C31.7525 50.181 30.4825 48.261 30.4825 46.031C30.4825 42.881 33.0325 40.331 36.1825 40.331C36.7825 40.331 37.3625 40.421 37.9125 40.601V35.241C31.1525 35.381 25.7225 40.901 25.7225 47.691C25.7225 51.081 27.0725 54.151 29.2725 56.401C31.2525 57.731 33.6425 58.511 36.2025 58.511C43.0825 58.511 48.6625 52.941 48.6625 46.061V32.311Z" fill="white"/>
<path fill-rule="evenodd" clip-rule="evenodd" d="M58.0525 30.011V28.581C56.2925 28.581 54.5625 28.091 53.0625 27.161C54.3825 28.611 56.1325 29.611 58.0525 30.021V30.011ZM48.7625 20.791C48.7225 20.531 48.6825 20.281 48.6625 20.021V19.151H41.8825V46.051C41.8725 49.191 39.3225 51.731 36.1825 51.731C35.2625 51.731 34.3925 51.511 33.6225 51.121C34.6625 52.491 36.3125 53.371 38.1625 53.371C41.3025 53.371 43.8525 50.831 43.8625 47.691V20.791H48.7725H48.7625ZM37.9125 35.251V33.721C37.3425 33.641 36.7725 33.601 36.2025 33.601C29.3225 33.601 23.7425 39.171 23.7425 46.051C23.7425 50.361 25.9325 54.161 29.2625 56.391C27.0625 54.151 25.7125 51.071 25.7125 47.681C25.7125 40.891 31.1525 35.371 37.9025 35.231L37.9125 35.251Z" fill="#69C8CF"/>
<defs>
<linearGradient id="paint0_linear_58_2019" x1="14.8025" y1="50.101" x2="74.7325" y2="50.101" gradientUnits="userSpaceOnUse">
<stop stop-color="#22004A"/>
<stop offset="0.96" stop-color="#010003"/>
<stop offset="1"/>
</linearGradient>
<linearGradient id="paint1_linear_58_2019" x1="10.0725" y1="43.851" x2="62.9625" y2="43.851" gradientUnits="userSpaceOnUse">
<stop stop-color="#22004A"/>
<stop offset="0.96" stop-color="#010003"/>
<stop offset="1"/>
</linearGradient>
<linearGradient id="paint2_linear_58_2019" x1="7.8625" y1="29.131" x2="69.4925" y2="29.131" gradientUnits="userSpaceOnUse">
<stop stop-color="#22004A"/>
<stop offset="0.96" stop-color="#010003"/>
<stop offset="1"/>
</linearGradient>
<linearGradient id="paint3_linear_58_2019" x1="20.8325" y1="41.021" x2="69.4325" y2="41.021" gradientUnits="userSpaceOnUse">
<stop stop-color="#22004A"/>
<stop offset="0.96" stop-color="#010003"/>
<stop offset="1"/>
</linearGradient>
<linearGradient id="paint4_linear_58_2019" x1="15.0825" y1="29.211" x2="78.4725" y2="29.211" gradientUnits="userSpaceOnUse">
<stop stop-color="#22004A"/>
<stop offset="0.96" stop-color="#010003"/>
<stop offset="1"/>
</linearGradient>
<linearGradient id="paint5_linear_58_2019" x1="0.852482" y1="36.811" x2="61.6225" y2="36.811" gradientUnits="userSpaceOnUse">
<stop stop-color="#22004A"/>
<stop offset="0.96" stop-color="#010003"/>
<stop offset="1"/>
</linearGradient>
<linearGradient id="paint6_linear_58_2019" x1="7.54251" y1="50.941" x2="69.8425" y2="50.941" gradientUnits="userSpaceOnUse">
<stop stop-color="#22004A"/>
<stop offset="0.96" stop-color="#010003"/>
<stop offset="1"/>
</linearGradient>
<linearGradient id="paint7_linear_58_2019" x1="22.8725" y1="39.911" x2="77.7825" y2="39.911" gradientUnits="userSpaceOnUse">
<stop stop-color="#22004A"/>
<stop offset="0.96" stop-color="#010003"/>
<stop offset="1"/>
</linearGradient>
<linearGradient id="paint8_linear_58_2019" x1="5.82247" y1="33.2009" x2="65.2825" y2="33.2009" gradientUnits="userSpaceOnUse">
<stop stop-color="#22004A"/>
<stop offset="0.96" stop-color="#010003"/>
<stop offset="1"/>
</linearGradient>
<linearGradient id="paint9_linear_58_2019" x1="15.2525" y1="33.671" x2="68.0525" y2="33.671" gradientUnits="userSpaceOnUse">
<stop stop-color="#22004A"/>
<stop offset="0.96" stop-color="#010003"/>
<stop offset="1"/>
</linearGradient>
<linearGradient id="paint10_linear_58_2019" x1="20.3425" y1="45.661" x2="77.3525" y2="45.661" gradientUnits="userSpaceOnUse">
<stop stop-color="#22004A"/>
<stop offset="0.96" stop-color="#010003"/>
<stop offset="1"/>
</linearGradient>
<linearGradient id="paint11_linear_58_2019" x1="1.33249" y1="42.601" x2="62.6025" y2="42.601" gradientUnits="userSpaceOnUse">
<stop stop-color="#22004A"/>
<stop offset="0.96" stop-color="#010003"/>
<stop offset="1"/>
</linearGradient>
<linearGradient id="paint12_linear_58_2019" x1="18.0825" y1="13.671" x2="65.9725" y2="68.931" gradientUnits="userSpaceOnUse">
<stop stop-color="#22004A"/>
<stop offset="0.96" stop-color="#010003"/>
<stop offset="1"/>
</linearGradient>
</defs>
</svg>
