<svg width="78" height="81" viewBox="0 0 78 81" fill="none" xmlns="http://www.w3.org/2000/svg">
<path opacity="0.11" d="M41.5206 71.121C40.6106 72.421 39.6906 73.711 38.7706 75.011C41.6306 73.241 44.5006 71.461 47.3606 69.691C44.0406 71.021 40.7206 72.341 37.4006 73.671C39.2506 73.371 41.0906 73.061 42.9406 72.761C34.7006 71.961 23.9106 69.931 21.5106 59.341C18.1106 44.331 24.7906 33.651 42.0706 25.861C41.3506 25.941 40.6206 26.021 39.9006 26.101C43.3406 26.381 46.1906 26.781 49.2806 28.481C54.8006 31.511 59.5806 36.921 61.5806 42.921C62.1006 44.481 62.8606 45.951 63.3906 47.511C64.5606 50.951 63.7706 54.121 62.7106 57.411C61.7206 60.481 60.6906 66.291 61.9906 69.371C63.0006 71.751 64.8706 71.271 66.2006 69.621C68.8706 66.321 70.5206 64.291 72.0806 60.281C74.1806 54.861 74.4706 47.381 72.7106 41.831C70.3306 34.321 66.1406 29.361 59.5206 25.231C54.8306 22.301 49.6906 20.181 44.0606 20.191C37.2506 20.191 30.6606 23.981 25.5406 28.221C22.4606 30.771 18.8906 34.231 16.9706 37.731C15.0506 41.231 14.6706 45.261 14.2606 49.181C13.7206 54.361 13.7106 59.711 15.1906 64.771C16.3506 68.751 20.8706 72.311 24.1606 74.881C26.6106 76.791 30.1406 78.771 33.2506 79.741C36.1906 80.651 40.4506 79.081 43.0806 77.901C46.1806 76.511 49.5106 74.891 51.9206 72.441C54.3706 69.941 55.2706 67.421 56.5006 64.171C56.5506 63.151 56.0906 62.461 55.1306 62.101C53.6006 61.901 52.2006 62.311 50.9506 63.321C47.8906 64.921 42.6806 67.5709 41.5106 71.111L41.5206 71.121Z" fill="url(#paint0_linear_58_1965)"/>
<path opacity="0.11" d="M33.4706 62.101C33.2206 63.181 32.9806 64.271 32.7306 65.351L37.0806 59.181C35.3206 61.171 33.5606 63.151 31.8006 65.141C36.5406 60.801 41.2806 56.461 46.0206 52.121C41.5606 55.681 37.1006 59.231 32.6306 62.791C37.8806 59.141 43.1206 55.501 48.3706 51.851C41.0406 55.341 33.7106 58.841 26.3806 62.331C31.9706 60.361 37.5506 58.391 43.1406 56.431C36.5406 57.871 29.9306 59.321 23.3306 60.761C28.9006 59.851 34.4706 58.941 40.0306 58.031C35.5606 58.071 31.0906 58.121 26.6106 58.161C30.0806 58.351 33.5406 58.541 37.0106 58.721C32.7606 57.831 28.5006 56.941 24.2506 56.051C27.6306 56.901 31.0006 57.741 34.3806 58.591C30.1006 56.801 25.8106 55.021 21.5306 53.231C24.2806 54.621 27.0306 56.011 29.7706 57.401C26.4106 54.971 23.0506 52.541 19.6906 50.111C21.8306 51.951 23.9706 53.781 26.1106 55.621C23.6106 52.711 21.1206 49.801 18.6206 46.901C20.2006 49.131 21.7706 51.351 23.3506 53.581C20.9106 48.821 18.4806 44.071 16.0406 39.311C17.8106 43.371 19.5906 47.431 21.3606 51.491L20.5306 34.751C20.3406 37.011 20.1606 39.271 19.9706 41.531C20.9006 38.001 21.8306 34.471 22.7606 30.941C22.0406 33.031 21.3206 35.121 20.6006 37.211C22.2406 34.121 23.8806 31.041 25.5206 27.951C24.2706 29.851 23.0206 31.751 21.7706 33.651C31.9206 24.871 39.4706 24.041 44.4506 31.161C47.5606 33.981 48.8106 37.711 48.1906 42.351C48.2406 45.371 48.5506 48.361 49.1206 51.331C49.4306 53.711 49.9306 56.051 50.6406 58.331C51.0206 59.661 52.8006 64.181 54.7506 61.341C59.1806 54.891 63.0006 48.081 61.9106 39.881C61.0006 33.011 55.6706 23.671 49.1606 20.581C42.5706 17.451 32.0206 16.201 25.2806 19.281C22.0706 20.751 18.8706 23.931 16.6206 26.601C14.1906 29.601 12.1306 32.841 10.4406 36.311C9.46058 39.871 9.07058 43.491 9.25058 47.181C9.48058 52.751 10.6306 57.661 14.1406 62.071C16.1506 64.591 18.5506 66.671 21.3306 68.291C24.6506 70.451 28.2706 70.771 32.1906 69.261C35.8506 68.931 42.0406 62.551 44.0706 60.751C45.8306 59.151 47.5906 57.541 49.3506 55.941C51.4606 54.381 53.0306 52.431 54.0806 50.091C55.1006 47.641 55.5206 45.091 55.3206 42.431C55.5706 37.061 47.3606 45.401 47.4606 45.301C44.0506 48.671 40.7706 52.161 37.6306 55.791C35.6706 57.561 34.2906 59.671 33.4606 62.121L33.4706 62.101Z" fill="url(#paint1_linear_58_1965)"/>
<path opacity="0.11" d="M30.1006 50.951C29.8806 51.831 29.6706 52.711 29.4606 53.591C30.4006 51.961 31.3406 50.331 32.2906 48.701C29.8206 48.381 27.3506 48.051 24.8806 47.731C24.2206 46.901 23.5606 46.081 22.8906 45.251C19.3806 39.721 18.0706 32.411 18.9006 26.021C18.9606 24.331 19.3306 22.701 20.0006 21.141C20.6706 17.781 22.7206 15.291 26.1506 13.681C28.8906 9.19099 32.8306 7.16099 37.9806 7.58099C42.4806 6.25099 47.0006 6.20099 51.5506 7.43099C50.6006 7.10099 49.6606 6.76099 48.7106 6.43099C52.1806 9.03099 55.1206 12.131 57.5206 15.741C60.3206 19.091 61.5406 22.921 61.1906 27.241C62.4206 31.301 61.9206 35.151 59.6806 38.771C57.8306 42.741 55.4406 46.341 52.4906 49.591C50.2606 52.461 55.2806 55.161 57.2206 52.621C60.9706 47.731 64.2506 43.071 66.3506 37.171C67.2806 35.121 67.8506 32.981 68.0706 30.741C68.9406 28.461 68.8206 26.221 67.6906 24.031C66.1306 18.261 63.6306 12.781 59.8606 8.08099C58.3306 6.18099 56.3006 3.60099 54.0406 2.54099C51.2906 1.25099 47.4306 0.940988 44.3406 0.520988C39.4706 -0.129012 32.3406 -0.489012 27.8206 1.42099C20.9506 4.32099 15.5306 9.88099 11.7606 16.171C7.03058 24.051 5.30058 34.321 9.02058 43.021C11.6606 49.161 16.3306 56.041 23.2706 57.661C26.2706 58.361 29.5506 58.741 32.1206 56.691C35.1906 54.241 36.6806 51.621 37.3306 47.781C37.5906 46.251 35.0406 44.971 33.8306 45.411C31.9506 46.101 30.5306 49.161 30.1006 50.931V50.951Z" fill="url(#paint2_linear_58_1965)"/>
<path opacity="0.11" d="M44.3506 57.621C44.1106 58.701 43.8806 59.771 43.6406 60.851L44.8006 58.691C44.1606 59.421 43.5106 60.151 42.8706 60.881C47.5806 57.091 52.3006 53.291 57.0106 49.501C51.5306 52.881 46.0406 56.251 40.5606 59.631C45.9306 57.091 51.3106 54.551 56.6806 52.021C49.3306 53.911 41.9906 55.801 34.6406 57.691C40.0206 56.921 45.4006 56.151 50.7806 55.381C44.8906 53.791 39.0006 52.201 33.1006 50.611C36.1006 51.951 39.1106 53.281 42.1106 54.621C38.7006 52.371 35.2906 50.121 31.8906 47.871C34.5106 49.741 37.1306 51.611 39.7506 53.471C36.3706 49.041 33.8406 44.121 32.1806 38.701L35.7006 48.111C34.9006 44.061 34.1106 40.021 33.3106 35.971C33.7806 39.271 34.2606 42.561 34.7306 45.861L35.0806 39.861C34.6406 41.971 34.1906 44.091 33.7506 46.201C34.2106 45.171 34.6606 44.141 35.1206 43.121C34.6906 43.791 34.2606 44.461 33.8306 45.131C41.6006 38.251 49.3606 31.371 57.1306 24.491C49.3806 28.461 41.6306 32.431 33.8806 36.401C44.2806 37.431 54.6806 38.461 65.0806 39.491C57.2506 35.701 49.4206 31.911 41.5906 28.121C43.5006 43.471 49.9606 53.001 60.9606 56.721C61.4606 57.121 61.8706 57.041 62.1806 56.471C64.1006 55.361 62.8306 50.721 62.6106 49.021C61.8406 43.071 60.1706 37.441 58.6506 31.681C60.9606 38.311 63.2706 44.951 65.5806 51.581C66.2006 50.051 66.8206 48.521 67.4506 47.001C70.5506 37.751 67.1606 28.791 60.2006 22.361C53.7106 16.361 41.5606 15.591 34.1006 19.801C28.8906 22.741 24.0206 27.431 21.6606 33.071C20.2106 36.541 19.8506 41.211 20.0506 45.031C20.2706 46.721 20.4806 48.411 20.7006 50.101C26.6606 56.191 33.6906 60.961 41.7706 64.421C44.9706 66.521 49.8006 61.451 52.1606 59.721C54.9006 57.771 57.5506 55.701 60.1106 53.531C62.2006 52.191 63.7906 50.431 64.8606 48.261C66.0406 45.861 66.6206 43.331 66.6206 40.661C67.2206 35.471 58.8306 42.671 58.8306 42.671C55.3406 45.611 51.9806 48.681 48.7406 51.901C46.7406 53.441 45.2806 55.351 44.3706 57.641L44.3506 57.621Z" fill="url(#paint3_linear_58_1965)"/>
<path opacity="0.11" d="M36.0406 51.741C35.8006 52.421 35.5506 53.111 35.3106 53.791C36.1106 52.901 36.9106 52.021 37.7206 51.141C30.7106 54.091 24.1106 43.431 23.5306 37.351C23.1606 33.491 24.3806 29.901 26.1206 26.501C28.8306 22.251 31.5406 18.001 34.2406 13.751C40.5806 8.701 48.1206 6.731 56.8706 7.821C55.4406 7.581 54.0006 7.331 52.5706 7.091C61.6706 11.071 68.1906 17.311 72.1206 25.801C71.8606 24.921 71.6006 24.031 71.3406 23.151C71.1406 27.341 70.2706 31.391 68.7406 35.291C67.0906 39.501 64.8506 43.371 62.0306 46.911C61.3506 47.901 60.8706 49.861 61.8006 50.891C62.4606 51.621 65.3406 52.021 66.0106 51.131C69.7306 46.201 73.0206 41.471 75.1806 35.601C76.1306 33.551 76.7306 31.401 76.9906 29.161C77.6206 27.711 77.7806 26.241 77.4606 24.751C76.1206 19.651 72.3206 14.291 69.0506 10.481C65.1106 5.901 61.3906 2.381 55.2006 1.141C51.3706 0.370996 47.3006 0.0109959 43.4006 0.370996C34.7606 1.171 25.9906 4.991 20.9806 12.441C15.7906 20.171 12.7406 29.911 15.0006 39.121C16.6006 45.661 20.4206 51.921 26.2006 55.541C31.2306 58.691 39.2206 60.211 41.4006 53.211C42.3206 50.261 37.3006 48.271 36.0606 51.741H36.0406Z" fill="url(#paint4_linear_58_1965)"/>
<path opacity="0.18" d="M26.2806 55.301C25.7106 57.121 25.1506 58.941 24.5806 60.761C25.6906 58.901 26.8006 57.031 27.9106 55.171C26.6206 56.861 25.3306 58.551 24.0306 60.241C26.4106 57.661 28.7806 55.091 31.1606 52.511C28.3506 54.661 25.1606 55.601 21.5706 55.301C18.8006 54.281 16.4906 52.671 14.6506 50.461C12.7606 48.771 11.2506 46.771 10.1506 44.451C6.13058 31.301 10.2906 20.721 22.6206 12.721C21.8706 13.181 21.1206 13.641 20.3806 14.101C24.5806 13.461 28.7706 13.491 32.9606 14.201C37.3806 14.951 41.5906 16.331 45.6006 18.331C48.4706 21.151 50.7406 24.401 52.4206 28.071C57.3006 37.781 55.0406 47.381 45.6306 56.881C44.7806 57.771 45.5406 61.281 46.4506 61.961C47.6106 62.821 49.7406 62.341 50.6206 61.281C56.0706 54.731 60.8106 47.991 60.7706 39.061C60.7406 31.961 57.2806 24.081 53.0606 18.461C51.2706 15.191 48.6706 13.021 45.2406 11.981C41.9906 10.281 38.5506 9.07104 34.9206 8.35104C30.3806 7.32104 25.8006 7.04104 21.1706 7.49104C18.8406 8.35104 16.7606 9.68104 14.9306 11.461C7.71058 17.111 0.670584 25.201 0.100584 34.711C-0.129416 38.511 0.0205837 42.511 0.700584 46.241C2.67058 56.931 12.2206 69.151 24.2806 65.761C26.4306 65.161 27.7006 63.711 29.1906 62.081C30.7606 60.361 33.8206 57.551 34.3706 55.241C34.8306 53.321 35.2806 51.401 35.7406 49.471C36.2406 47.341 34.7106 46.391 32.9406 46.841C30.2106 47.531 27.4106 53.041 26.2706 55.281L26.2806 55.301Z" fill="url(#paint5_linear_58_1965)"/>
<path opacity="0.11" d="M34.5606 72.151C34.2306 73.251 33.9006 74.351 33.5606 75.451C34.4306 74.281 35.3106 73.111 36.1806 71.941L31.8806 75.971C34.7906 73.981 37.7006 71.991 40.6106 70.001C37.3606 71.351 34.1206 72.701 30.8706 74.051C32.8406 73.641 34.8106 73.221 36.7806 72.811C35.0106 72.751 33.2406 72.681 31.4706 72.621C25.7006 68.631 19.9206 64.631 14.1506 60.641C12.5106 55.791 13.0306 49.861 13.8506 44.971C13.7206 42.711 14.5206 40.861 16.2406 39.421C17.4206 37.621 18.8606 36.061 20.5606 34.741C31.0506 25.051 40.0606 23.491 57.1606 33.641C56.6306 33.141 56.1106 32.651 55.5806 32.151C57.3406 35.901 59.1006 39.651 60.8706 43.411C61.1006 46.251 61.0206 49.091 60.6206 51.911C60.8806 54.011 60.5006 55.941 59.4606 57.701C58.7206 59.631 57.6306 61.351 56.1906 62.861C55.0106 64.481 54.7706 70.041 55.7606 71.781C56.7506 73.511 58.8006 73.371 59.9806 71.981C64.2206 67.001 67.9206 61.871 68.7406 55.141C69.4606 49.201 68.6606 42.461 65.9606 37.071C63.0406 31.231 58.2906 27.681 52.4706 25.001C46.6406 22.311 39.2506 20.531 32.8106 21.661C28.1706 22.471 22.2506 26.111 18.6606 29.101C16.8706 30.741 15.0906 32.391 13.3006 34.031C10.3006 36.341 8.61058 39.301 8.24058 42.891C6.83059 48.601 6.37059 54.341 6.89059 60.201C6.71059 64.961 8.54059 68.761 12.3706 71.591C13.9506 72.921 15.5306 74.241 17.1106 75.571C19.3406 77.221 22.5006 78.941 25.1406 79.911C26.7906 80.691 28.5206 80.711 30.3306 79.961C32.6106 80.081 34.7206 79.571 36.6706 78.431C39.6806 76.881 43.1506 75.011 45.4006 72.461C47.7006 69.841 48.4306 67.301 49.4006 63.971C49.4006 62.941 48.8906 62.281 47.9006 61.991C46.3206 61.911 44.9306 62.431 43.7206 63.551C40.6206 65.451 35.6806 68.421 34.5606 72.131V72.151Z" fill="url(#paint6_linear_58_1965)"/>
<path opacity="0.11" d="M47.5006 57.941C47.1506 58.691 46.8006 59.451 46.4506 60.201C48.2106 59.391 49.9706 58.581 51.7206 57.771C48.4506 58.831 45.0106 59.371 41.7906 58.001C40.6606 57.331 39.5406 56.661 38.4106 56.001C32.9206 49.611 31.9006 43.431 35.3406 37.461C35.3906 35.181 36.3406 33.711 38.1806 33.021C38.9406 32.741 39.5706 32.301 40.0906 31.701C41.2206 30.471 42.6606 29.691 44.4106 29.361C49.2306 26.661 54.5206 25.511 60.2706 25.911C57.5106 26.101 54.7506 26.291 51.9906 26.491C55.7406 26.921 59.4906 27.351 63.2506 27.791C60.6406 27.271 58.0206 26.741 55.4106 26.221C58.7006 27.541 61.9806 28.861 65.2706 30.181C62.8606 28.991 60.4606 27.811 58.0506 26.621C60.8506 28.701 63.6506 30.771 66.4506 32.851C64.3006 31.041 62.1506 29.231 60.0006 27.421C62.6806 30.691 65.3706 33.971 68.0506 37.241C66.6006 35.261 65.1506 33.281 63.7006 31.291C65.4206 34.701 67.1406 38.121 68.8606 41.531C68.0706 39.451 67.2706 37.361 66.4806 35.281C67.5506 39.931 68.6206 44.591 69.7006 49.241C69.2806 45.881 68.8706 42.511 68.4506 39.151C68.0406 44.261 67.9206 49.371 68.0806 54.481C67.9106 55.241 68.0406 55.931 68.4706 56.551C69.0606 57.571 70.1006 58.231 71.2806 57.571C73.6106 56.271 72.7606 51.721 73.6906 49.961C74.4106 48.991 75.1306 48.021 75.8506 47.041C76.1506 45.161 76.4606 43.271 76.7606 41.381C77.9106 31.381 73.1606 22.691 65.0406 17.101C60.5206 13.981 53.4006 12.091 47.9106 12.761C42.5606 13.411 37.9806 15.441 33.6906 18.701C25.2506 25.121 21.4606 34.891 22.0906 45.411C22.3906 50.461 23.5006 54.501 26.9706 58.471C29.3706 61.211 32.1306 63.861 35.4206 65.481C39.7906 67.641 43.6906 67.861 48.2206 65.681C50.6506 64.511 52.9606 62.831 54.9806 61.031C57.4206 58.871 58.7006 56.531 59.6106 53.411C60.2206 51.331 59.4306 49.551 56.9206 50.161C55.0906 51.101 53.4006 52.251 51.8506 53.621C50.2106 54.881 48.7606 56.321 47.5006 57.951V57.941Z" fill="url(#paint7_linear_58_1965)"/>
<path opacity="0.28" d="M30.2206 49.5509C29.6306 51.4009 29.0306 53.2509 28.4406 55.1109C29.6306 53.1309 30.8306 51.1409 32.0206 49.1609C30.6906 50.9409 29.3606 52.7109 28.0406 54.4909C30.5606 51.7009 33.0806 48.9109 35.5906 46.1209C33.0106 47.9809 30.1706 49.2809 27.0606 50.0209C28.5906 49.7309 30.1206 49.4409 31.6606 49.1409C29.1606 48.9009 22.4806 44.9909 20.4506 42.9009C14.2906 36.6009 19.0406 22.1709 20.8406 17.0309C20.1006 18.6609 19.3606 20.2809 18.6206 21.9109C20.3606 19.3109 22.1006 16.7209 23.8406 14.1209C22.6406 15.4509 21.4406 16.7809 20.2406 18.1109C27.7506 12.9609 36.3306 10.9409 45.9906 12.0609L42.3806 11.2609C45.9706 13.6509 49.0506 16.5809 51.6106 20.0509C54.1006 23.4809 56.0406 27.2109 57.4206 31.2209C57.9806 37.5809 53.5106 43.3909 49.8106 47.9609C48.7906 49.2209 49.1706 53.7409 50.1306 54.9709C51.1606 56.3009 53.3906 55.9809 54.3506 54.7809C57.9206 50.3309 61.0006 46.1909 62.7906 40.6509C63.6106 38.7709 64.0506 36.8109 64.0806 34.7609C64.7306 32.5209 64.4806 30.3609 63.3406 28.2909C61.5606 22.4709 58.8106 17.0009 54.8206 12.3609C53.1206 10.3809 51.0306 7.84093 48.4806 7.02093C43.5606 5.44093 38.1406 5.14093 33.0306 5.46093C29.8406 5.66093 26.1606 5.85093 23.1206 7.00093C21.4106 8.16093 19.7006 9.32093 17.9906 10.4809C16.8106 11.6509 15.6306 12.8209 14.4506 13.9909C12.3406 16.3909 10.5406 18.9409 8.94058 21.6909C1.67058 34.1509 4.06059 54.1609 18.9406 60.1009C22.2006 61.4009 26.5306 61.6209 29.7306 59.7309C31.6506 58.5909 33.3006 56.3009 34.7106 54.6509C38.2906 50.4709 38.8606 48.7509 40.1006 43.2009C40.6006 40.9809 39.2406 40.0109 37.3306 40.5309C36.1506 40.9209 35.2706 41.7209 34.6806 42.9409C33.0406 45.0509 31.5606 47.2609 30.2206 49.5809V49.5509Z" fill="url(#paint8_linear_58_1965)"/>
<path opacity="0.11" d="M44.0206 41.911C42.0106 45.861 40.0106 49.811 38.0006 53.761C38.8206 52.171 39.6306 50.581 40.4506 48.991C40.2906 48.991 40.1406 48.981 39.9806 48.971C42.3406 47.241 44.7006 45.511 47.0606 43.781C43.0006 45.661 38.9306 47.541 34.8706 49.421C37.6306 48.361 40.3806 47.301 43.1406 46.251C37.2706 43.991 31.6806 41.121 26.3806 37.651L35.9106 44.131C33.4906 34.231 31.9206 24.161 31.1906 13.931C31.1506 20.451 31.1106 26.981 31.0806 33.501C33.8006 27.491 36.5206 21.481 39.2306 15.471C36.8906 19.741 34.5606 24.001 32.2206 28.271C35.7706 23.901 39.3206 19.531 42.8706 15.151L33.4006 24.911C37.6806 21.801 41.9606 18.691 46.2406 15.581C42.3606 17.861 38.4806 20.131 34.6006 22.411C39.5206 20.521 44.4306 18.621 49.3506 16.731C44.7906 18.021 40.2306 19.311 35.6706 20.601C40.0606 20.191 44.4606 19.781 48.8506 19.361C46.2306 19.381 43.6106 19.391 40.9906 19.411C46.3106 20.141 51.6206 20.861 56.9406 21.591C53.2106 20.771 49.4706 19.961 45.7406 19.141C50.3506 21.011 54.9606 22.891 59.5706 24.761C56.2506 23.011 52.9406 21.261 49.6206 19.511C53.5306 22.421 57.4506 25.321 61.3606 28.231C58.5006 25.561 55.6406 22.891 52.7706 20.221C54.3806 27.471 55.9906 34.721 57.6006 41.971C57.5206 43.421 57.1006 48.821 58.8206 50.191C60.2106 51.301 61.5206 50.221 62.2106 48.921C65.2006 43.181 67.1306 37.611 67.2106 31.051C67.2606 26.271 64.8406 22.341 61.9506 18.661C53.5406 7.91095 37.1806 5.32095 26.0906 13.201C18.8306 18.361 14.6306 26.241 14.4206 35.211C14.3406 38.791 14.6106 43.001 16.3006 46.231C17.9906 49.461 20.4106 52.461 23.1406 54.871C26.7306 58.031 29.8806 58.721 34.4406 58.691C37.3806 58.671 41.6406 54.561 43.4106 53.051C46.0506 50.811 49.3006 48.541 50.5506 45.221C51.4106 42.941 52.2706 40.671 53.1206 38.391C53.6506 36.991 53.7206 34.881 51.6106 34.951C48.8006 35.041 45.3106 40.271 44.0206 41.891V41.911Z" fill="url(#paint9_linear_58_1965)"/>
<path opacity="0.11" d="M46.8006 65.251C46.4406 66.331 46.0806 67.411 45.7206 68.501C46.6006 67.361 47.4806 66.221 48.3606 65.081C46.9206 66.431 45.4806 67.781 44.0406 69.131C46.9006 67.201 49.7706 65.281 52.6306 63.351C49.3506 64.791 46.0606 66.231 42.7806 67.681C44.7006 67.251 46.6206 66.821 48.5406 66.391C44.5306 66.181 41.1006 65.661 37.4506 63.771C31.3106 61.471 31.1906 55.971 37.0806 47.291C33.6206 35.781 36.7506 30.001 46.4706 29.951C47.9606 30.351 49.2906 31.001 50.8206 31.281C54.1206 30.501 56.5606 31.351 58.1406 33.821C62.1506 38.011 65.3306 42.821 67.6906 48.261C66.7706 46.101 65.8506 43.951 64.9306 41.791C65.6906 45.131 66.4506 48.461 67.2106 51.801C66.9106 49.501 66.6006 47.201 66.3006 44.891C66.2106 48.261 66.1206 51.631 66.0206 55.001C65.9606 57.241 65.2406 61.081 66.5806 62.981C67.0306 63.611 68.4906 65.231 69.4506 63.851C72.3006 59.781 74.5706 56.041 75.6706 51.091C76.7106 46.411 76.9306 41.071 75.2906 36.471C72.0206 27.341 64.9706 21.421 55.5806 19.051C46.2906 16.711 36.7806 19.271 29.4806 25.481C24.0706 30.081 21.1406 35.531 20.1006 42.421C19.2606 47.981 18.9006 55.011 21.4106 60.141C23.1706 63.751 26.8406 67.131 29.9906 69.551C34.2606 72.841 34.4206 72.331 40.3306 72.521C42.9006 73.421 45.2906 73.311 47.4906 72.191C49.1106 71.571 50.6406 70.771 52.0806 69.781C53.9306 68.611 55.7506 67.391 57.3406 65.891C59.9206 63.441 60.5506 60.851 61.7506 57.651C61.7706 56.621 61.2906 55.951 60.3106 55.631C58.7506 55.501 57.3506 55.961 56.1206 57.031C52.9806 58.821 48.0106 61.611 46.7906 65.251H46.8006Z" fill="url(#paint10_linear_58_1965)"/>
<path opacity="0.21" d="M27.0606 62.161C26.8206 63.251 26.5806 64.331 26.3306 65.421C27.9406 63.261 29.5506 61.101 31.1606 58.941C29.8106 60.171 28.4706 61.411 27.1206 62.641C29.3406 61.111 31.5606 59.571 33.7706 58.041C16.3006 61.061 10.7406 57.421 10.1206 40.021C10.1506 41.321 9.44059 37.751 9.47059 39.061C13.0806 30.391 16.0106 19.591 27.9106 19.631C43.0506 19.691 52.9006 27.331 56.4106 46.181C56.4906 45.461 56.5806 44.741 56.6606 44.021C54.7906 49.941 52.2906 53.031 47.4306 56.891C44.6406 59.101 47.4606 68.781 50.7606 65.461C55.4406 60.751 59.2106 56.571 61.0806 50.051C62.3606 45.601 61.6606 40.981 60.2006 36.651C59.0506 33.211 57.6106 30.181 55.6706 27.151C54.6306 25.111 53.2506 23.341 51.5306 21.841C49.2906 18.881 46.2506 17.061 42.4006 16.381C36.7306 14.481 31.0006 13.421 25.0006 13.611C20.3006 13.761 19.8006 14.081 15.3006 17.491C11.4206 20.431 7.97059 23.881 4.97059 27.711C2.17059 30.191 0.810586 33.201 0.900586 36.711C0.350586 39.971 0.320586 43.241 0.820586 46.531C1.24059 50.221 1.81059 54.131 3.11059 57.621C4.64059 61.741 8.34059 65.481 11.8506 68.001C16.7506 71.521 23.3206 73.381 28.5106 69.381C31.4206 67.131 34.2006 64.471 36.5806 61.651C39.1506 58.611 39.3906 56.331 40.3606 52.251C40.9906 49.591 39.6906 48.081 37.0606 49.621C35.0606 51.421 33.2406 53.391 31.6206 55.541C29.8806 57.601 28.3606 59.811 27.0506 62.161H27.0606Z" fill="url(#paint11_linear_58_1965)"/>
<path opacity="0.84" d="M74.8106 40.021C77.6106 33.211 70.9506 31.521 68.9906 27.351C67.1106 23.351 66.8406 19.111 63.9506 15.841C56.8606 7.82103 50.6206 11.241 42.3806 11.241C36.0606 11.241 30.5806 6.82103 24.8406 8.12103C13.9606 10.591 3.08058 30.871 10.1306 40.021C17.3106 49.341 11.0106 58.641 16.3606 64.411C21.1806 69.611 30.0906 70.831 37.4306 71.981V49.381H29.2206V40.031H37.4306V32.901C37.4306 24.791 42.2606 20.321 49.6506 20.321C53.1906 20.321 56.8906 20.951 56.8906 20.951V28.911H52.8106C48.7906 28.911 47.5406 31.401 47.5406 33.961V40.031H56.5106L55.0806 49.381H47.5406V71.981C55.2706 70.771 62.0906 66.811 66.9806 61.151C71.8706 55.491 71.7606 47.491 74.8306 40.031L74.8106 40.021Z" fill="url(#paint12_linear_58_1965)"/>
<path d="M55.0606 49.371L56.4906 40.021H47.5206V33.951C47.5206 31.391 48.7706 28.901 52.7906 28.901H56.8706V20.941C56.8706 20.941 53.1706 20.311 49.6306 20.311C42.2406 20.311 37.4106 24.791 37.4106 32.891V40.021H29.2006V49.371H37.4106V71.971C39.0606 72.231 40.7406 72.361 42.4606 72.361C44.1806 72.361 45.8706 72.231 47.5106 71.971V49.371H55.0506H55.0606Z" fill="white"/>
<defs>
<linearGradient id="paint0_linear_58_1965" x1="8.32058" y1="3.71095" x2="48.1506" y2="58.091" gradientUnits="userSpaceOnUse">
<stop offset="0.35" stop-color="#4676ED"/>
<stop offset="0.47" stop-color="#436DE4"/>
<stop offset="0.67" stop-color="#3B54CD"/>
<stop offset="0.91" stop-color="#2F2DA7"/>
<stop offset="1" stop-color="#2B1E98"/>
</linearGradient>
<linearGradient id="paint1_linear_58_1965" x1="6.40059" y1="5.121" x2="46.2206" y2="59.501" gradientUnits="userSpaceOnUse">
<stop offset="0.35" stop-color="#4676ED"/>
<stop offset="0.47" stop-color="#436DE4"/>
<stop offset="0.67" stop-color="#3B54CD"/>
<stop offset="0.91" stop-color="#2F2DA7"/>
<stop offset="1" stop-color="#2B1E98"/>
</linearGradient>
<linearGradient id="paint2_linear_58_1965" x1="14.5206" y1="-0.819011" x2="54.3406" y2="53.551" gradientUnits="userSpaceOnUse">
<stop offset="0.35" stop-color="#4676ED"/>
<stop offset="0.47" stop-color="#436DE4"/>
<stop offset="0.67" stop-color="#3B54CD"/>
<stop offset="0.91" stop-color="#2F2DA7"/>
<stop offset="1" stop-color="#2B1E98"/>
</linearGradient>
<linearGradient id="paint3_linear_58_1965" x1="13.9606" y1="-0.409026" x2="53.7806" y2="53.971" gradientUnits="userSpaceOnUse">
<stop offset="0.35" stop-color="#4676ED"/>
<stop offset="0.47" stop-color="#436DE4"/>
<stop offset="0.67" stop-color="#3B54CD"/>
<stop offset="0.91" stop-color="#2F2DA7"/>
<stop offset="1" stop-color="#2B1E98"/>
</linearGradient>
<linearGradient id="paint4_linear_58_1965" x1="19.3606" y1="-4.369" x2="59.1806" y2="50.011" gradientUnits="userSpaceOnUse">
<stop offset="0.35" stop-color="#4676ED"/>
<stop offset="0.47" stop-color="#436DE4"/>
<stop offset="0.67" stop-color="#3B54CD"/>
<stop offset="0.91" stop-color="#2F2DA7"/>
<stop offset="1" stop-color="#2B1E98"/>
</linearGradient>
<linearGradient id="paint5_linear_58_1965" x1="5.68058" y1="5.65103" x2="45.5006" y2="60.031" gradientUnits="userSpaceOnUse">
<stop offset="0.35" stop-color="#4676ED"/>
<stop offset="0.47" stop-color="#436DE4"/>
<stop offset="0.67" stop-color="#3B54CD"/>
<stop offset="0.91" stop-color="#2F2DA7"/>
<stop offset="1" stop-color="#2B1E98"/>
</linearGradient>
<linearGradient id="paint6_linear_58_1965" x1="4.12059" y1="6.80098" x2="43.9406" y2="61.171" gradientUnits="userSpaceOnUse">
<stop offset="0.35" stop-color="#4676ED"/>
<stop offset="0.47" stop-color="#436DE4"/>
<stop offset="0.67" stop-color="#3B54CD"/>
<stop offset="0.91" stop-color="#2F2DA7"/>
<stop offset="1" stop-color="#2B1E98"/>
</linearGradient>
<linearGradient id="paint7_linear_58_1965" x1="17.2606" y1="-2.829" x2="57.0806" y2="51.551" gradientUnits="userSpaceOnUse">
<stop offset="0.35" stop-color="#4676ED"/>
<stop offset="0.47" stop-color="#436DE4"/>
<stop offset="0.67" stop-color="#3B54CD"/>
<stop offset="0.91" stop-color="#2F2DA7"/>
<stop offset="1" stop-color="#2B1E98"/>
</linearGradient>
<linearGradient id="paint8_linear_58_1965" x1="10.1906" y1="2.35093" x2="50.0106" y2="56.7309" gradientUnits="userSpaceOnUse">
<stop offset="0.35" stop-color="#4676ED"/>
<stop offset="0.47" stop-color="#436DE4"/>
<stop offset="0.67" stop-color="#3B54CD"/>
<stop offset="0.91" stop-color="#2F2DA7"/>
<stop offset="1" stop-color="#2B1E98"/>
</linearGradient>
<linearGradient id="paint9_linear_58_1965" x1="14.5506" y1="-0.839045" x2="54.3706" y2="53.541" gradientUnits="userSpaceOnUse">
<stop offset="0.35" stop-color="#4676ED"/>
<stop offset="0.47" stop-color="#436DE4"/>
<stop offset="0.67" stop-color="#3B54CD"/>
<stop offset="0.91" stop-color="#2F2DA7"/>
<stop offset="1" stop-color="#2B1E98"/>
</linearGradient>
<linearGradient id="paint10_linear_58_1965" x1="13.5106" y1="-0.0789838" x2="53.3306" y2="54.301" gradientUnits="userSpaceOnUse">
<stop offset="0.35" stop-color="#4676ED"/>
<stop offset="0.47" stop-color="#436DE4"/>
<stop offset="0.67" stop-color="#3B54CD"/>
<stop offset="0.91" stop-color="#2F2DA7"/>
<stop offset="1" stop-color="#2B1E98"/>
</linearGradient>
<linearGradient id="paint11_linear_58_1965" x1="3.47058" y1="7.27096" x2="43.2906" y2="61.651" gradientUnits="userSpaceOnUse">
<stop offset="0.35" stop-color="#4676ED"/>
<stop offset="0.47" stop-color="#436DE4"/>
<stop offset="0.67" stop-color="#3B54CD"/>
<stop offset="0.91" stop-color="#2F2DA7"/>
<stop offset="1" stop-color="#2B1E98"/>
</linearGradient>
<linearGradient id="paint12_linear_58_1965" x1="8.55058" y1="7.62103" x2="56.7506" y2="57.181" gradientUnits="userSpaceOnUse">
<stop offset="0.35" stop-color="#4676ED"/>
<stop offset="0.47" stop-color="#436DE4"/>
<stop offset="0.67" stop-color="#3B54CD"/>
<stop offset="0.91" stop-color="#2F2DA7"/>
<stop offset="1" stop-color="#2B1E98"/>
</linearGradient>
</defs>
</svg>
