<svg width="79" height="81" viewBox="0 0 79 81" fill="none" xmlns="http://www.w3.org/2000/svg">
<path opacity="0.11" d="M42.0134 71.1209C41.0934 72.4209 40.1834 73.7109 39.2634 75.0109C42.1234 73.2409 44.9934 71.461 47.8534 69.691C44.5334 71.021 41.2134 72.3409 37.8934 73.6709C39.7435 73.3709 41.5834 73.0609 43.4334 72.7609C35.1934 71.9609 24.4035 69.9309 22.0035 59.3409C18.6035 44.3309 25.2834 33.651 42.5634 25.861C41.8434 25.941 41.1134 26.021 40.3934 26.101C43.8335 26.381 46.6834 26.7809 49.7734 28.4809C55.2934 31.5109 60.0734 36.9209 62.0734 42.9209C62.5934 44.4809 63.3534 45.9509 63.8834 47.5109C65.0534 50.9509 64.2635 54.121 63.2034 57.411C62.2134 60.481 61.1834 66.2909 62.4934 69.3709C63.5034 71.7509 65.3734 71.2709 66.7034 69.6209C69.3735 66.3209 71.0235 64.2909 72.5835 60.2809C74.6835 54.8609 74.9734 47.381 73.2134 41.831C70.8334 34.321 66.6434 29.3609 60.0234 25.2309C55.3334 22.3009 50.1934 20.181 44.5634 20.191C37.7534 20.191 31.1634 23.981 26.0434 28.221C22.9634 30.771 19.3935 34.2309 17.4735 37.7309C15.5535 41.2309 15.1734 45.2609 14.7634 49.1809C14.2234 54.3609 14.2134 59.711 15.6934 64.771C16.8534 68.751 21.3734 72.311 24.6634 74.881C27.1134 76.791 30.6434 78.771 33.7535 79.741C36.6935 80.651 40.9535 79.0809 43.5835 77.9009C46.6835 76.5109 50.0135 74.891 52.4235 72.441C54.8735 69.941 55.7735 67.4209 57.0035 64.1709C57.0535 63.1509 56.5934 62.461 55.6334 62.101C54.1034 61.901 52.7034 62.3109 51.4534 63.3209C48.3934 64.9209 43.1834 67.5709 42.0134 71.111V71.1209Z" fill="url(#paint0_linear_58_2002)"/>
<path opacity="0.11" d="M33.9634 62.101C33.7134 63.181 33.4734 64.271 33.2234 65.351L37.5734 59.181C35.8134 61.171 34.0534 63.151 32.2934 65.141C37.0334 60.801 41.7734 56.461 46.5134 52.121C42.0534 55.681 37.5934 59.231 33.1234 62.791L48.8634 51.851C41.5334 55.341 34.2034 58.841 26.8734 62.331C32.4634 60.361 38.0434 58.391 43.6334 56.431C37.0334 57.871 30.4234 59.321 23.8234 60.761C29.3934 59.851 34.9634 58.941 40.5234 58.031C36.0534 58.071 31.5834 58.121 27.1034 58.161C30.5734 58.351 34.0434 58.541 37.5034 58.721C33.2534 57.831 28.9934 56.941 24.7434 56.051C28.1234 56.901 31.4934 57.741 34.8734 58.591C30.5934 56.801 26.3034 55.021 22.0234 53.231C24.7734 54.621 27.5234 56.011 30.2634 57.401C26.9034 54.971 23.5434 52.541 20.1834 50.111C22.3234 51.951 24.4634 53.781 26.6034 55.621C24.1034 52.711 21.6134 49.801 19.1134 46.901C20.6934 49.131 22.2634 51.351 23.8434 53.581C21.4034 48.821 18.9734 44.071 16.5334 39.311C18.3034 43.371 20.0834 47.431 21.8534 51.491C21.5734 45.911 21.3034 40.331 21.0234 34.751C20.8334 37.011 20.6534 39.271 20.4634 41.531C21.3934 38.001 22.3234 34.471 23.2534 30.941C22.5334 33.031 21.8134 35.121 21.0934 37.211C22.7334 34.121 24.3734 31.041 26.0134 27.951C24.7634 29.851 23.5134 31.751 22.2634 33.651C32.4134 24.871 39.9634 24.041 44.9434 31.161C48.0534 33.981 49.3034 37.711 48.6834 42.351C48.7334 45.371 49.0434 48.361 49.6134 51.331C49.9234 53.711 50.4234 56.051 51.1334 58.331C51.5134 59.661 53.2934 64.181 55.2434 61.341C59.6734 54.891 63.4934 48.081 62.4034 39.881C61.4934 33.011 56.1634 23.671 49.6534 20.581C43.0634 17.451 32.5134 16.201 25.7734 19.281C22.5634 20.751 19.3634 23.931 17.1134 26.601C14.6834 29.601 12.6234 32.841 10.9334 36.311C9.95342 39.871 9.56342 43.491 9.74342 47.181C9.97342 52.751 11.1234 57.661 14.6334 62.071C16.6434 64.591 19.0434 66.671 21.8234 68.291C25.1434 70.451 28.7634 70.771 32.6834 69.261C36.3434 68.931 42.5334 62.551 44.5634 60.751C46.3234 59.151 48.0834 57.541 49.8434 55.941C51.9534 54.381 53.5234 52.431 54.5734 50.091C55.5934 47.641 56.0134 45.091 55.8134 42.431C56.0634 37.061 47.8534 45.401 47.9534 45.301C44.5434 48.671 41.2634 52.161 38.1234 55.791C36.1634 57.561 34.7834 59.671 33.9534 62.121L33.9634 62.101Z" fill="url(#paint1_linear_58_2002)"/>
<path opacity="0.11" d="M30.5934 50.951C30.3834 51.831 30.1634 52.711 29.9534 53.591C30.8934 51.961 31.8334 50.331 32.7834 48.701C30.3134 48.381 27.8434 48.051 25.3734 47.731L23.3834 45.251C19.8734 39.731 18.5634 32.411 19.3934 26.021C19.4534 24.331 19.8234 22.701 20.4934 21.141C21.1634 17.781 23.2134 15.291 26.6434 13.681C29.3834 9.19099 33.3234 7.16099 38.4734 7.58099C42.9734 6.25099 47.4934 6.20099 52.0434 7.43099C51.0934 7.10099 50.1534 6.76099 49.2034 6.43099C52.6734 9.03099 55.6134 12.131 58.0134 15.741C60.8134 19.091 62.0334 22.921 61.6834 27.241C62.9134 31.301 62.4134 35.151 60.1734 38.771C58.3234 42.741 55.9334 46.341 52.9834 49.591C50.7534 52.461 55.7734 55.161 57.7134 52.621C61.4634 47.731 64.7434 43.071 66.8434 37.171C67.7734 35.121 68.3434 32.981 68.5634 30.741C69.4334 28.461 69.3134 26.221 68.1834 24.031C66.6234 18.261 64.1234 12.781 60.3534 8.08099C58.8234 6.18099 56.7934 3.60099 54.5334 2.54099C51.7834 1.25099 47.9234 0.940988 44.8334 0.520988C39.9634 -0.129012 32.8334 -0.489011 28.3134 1.42099C21.4434 4.32099 16.0234 9.88099 12.2534 16.171C7.52342 24.051 5.79342 34.321 9.51342 43.021C12.1534 49.161 16.8234 56.041 23.7634 57.661C26.7734 58.361 30.0434 58.741 32.6134 56.691C35.6734 54.241 37.1734 51.621 37.8234 47.781C38.0834 46.251 35.5334 44.971 34.3234 45.411C32.4434 46.101 31.0234 49.161 30.5934 50.931V50.951Z" fill="url(#paint2_linear_58_2002)"/>
<path opacity="0.11" d="M44.8334 57.631C44.5934 58.711 44.3634 59.781 44.1234 60.861C44.5134 60.141 44.8934 59.421 45.2834 58.701L43.3534 60.891C48.0634 57.101 52.7834 53.301 57.4934 49.511C52.0134 52.891 46.5234 56.261 41.0434 59.641C46.4134 57.101 51.7934 54.561 57.1634 52.031C49.8134 53.921 42.4734 55.811 35.1234 57.701C40.5034 56.931 45.8834 56.161 51.2634 55.391C45.3734 53.801 39.4834 52.211 33.5834 50.621C36.5834 51.961 39.5934 53.291 42.5934 54.631C39.1834 52.381 35.7734 50.131 32.3734 47.881C34.9934 49.751 37.6134 51.621 40.2334 53.481C36.8534 49.051 34.3234 44.131 32.6634 38.711C33.8334 41.851 35.0134 44.991 36.1834 48.121C35.3834 44.071 34.5934 40.031 33.7934 35.981C34.2634 39.281 34.7434 42.571 35.2134 45.871C35.3334 43.871 35.4434 41.871 35.5634 39.871C35.1234 41.981 34.6734 44.101 34.2334 46.211C34.6934 45.181 35.1434 44.151 35.6034 43.131C35.1734 43.801 34.7434 44.471 34.3134 45.141C42.0834 38.261 49.8434 31.381 57.6134 24.501C49.8634 28.471 42.1134 32.441 34.3634 36.411C44.7634 37.441 55.1634 38.471 65.5534 39.501C57.7234 35.711 49.8934 31.921 42.0634 28.131C43.9734 43.481 50.4334 53.011 61.4334 56.731C61.9334 57.131 62.3434 57.051 62.6534 56.481C64.5734 55.371 63.3034 50.731 63.0834 49.031C62.3134 43.081 60.6434 37.451 59.1234 31.691C61.4334 38.321 63.7434 44.961 66.0534 51.591C66.6734 50.061 67.2934 48.531 67.9234 47.011C71.0234 37.761 67.6334 28.801 60.6734 22.371C54.1834 16.371 42.0334 15.601 34.5734 19.811C29.3634 22.751 24.4934 27.441 22.1334 33.081C20.6834 36.551 20.3234 41.221 20.5234 45.041C20.7434 46.731 20.9534 48.421 21.1734 50.111C27.1334 56.201 34.1634 60.971 42.2434 64.431C45.4434 66.531 50.2734 61.461 52.6334 59.731C55.3734 57.781 58.0234 55.711 60.5834 53.541C62.6734 52.201 64.2634 50.441 65.3334 48.271C66.5134 45.871 67.0934 43.341 67.0934 40.671C67.6934 35.481 59.3034 42.681 59.3034 42.681C55.8134 45.621 52.4534 48.691 49.2134 51.911C47.2134 53.451 45.7534 55.361 44.8434 57.651L44.8334 57.631Z" fill="url(#paint3_linear_58_2002)"/>
<path opacity="0.11" d="M36.5334 51.751C36.2934 52.431 36.0434 53.121 35.8034 53.801L38.2134 51.151C31.2034 54.101 24.6034 43.441 24.0234 37.361C23.6534 33.501 24.8734 29.911 26.6134 26.511C29.3234 22.261 32.0334 18.011 34.7334 13.761C41.0734 8.71101 48.6134 6.74101 57.3634 7.83101L53.0634 7.10101C62.1634 11.081 68.6834 17.321 72.6134 25.811C72.3534 24.931 72.0934 24.041 71.8334 23.161C71.6334 27.351 70.7634 31.401 69.2334 35.301C67.5834 39.511 65.3434 43.381 62.5234 46.921C61.8434 47.911 61.3634 49.871 62.2934 50.901C62.9534 51.631 65.8334 52.031 66.5034 51.141C70.2234 46.211 73.5134 41.481 75.6734 35.611C76.6234 33.561 77.2234 31.411 77.4834 29.171C78.1134 27.721 78.2734 26.251 77.9534 24.761C76.6134 19.661 72.8134 14.301 69.5434 10.491C65.6034 5.91101 61.8834 2.39101 55.6934 1.15101C51.8634 0.381009 47.7934 0.0210049 43.8934 0.381005C35.2534 1.181 26.4834 5.00101 21.4734 12.451C16.2834 20.181 13.2334 29.921 15.4934 39.131C17.0934 45.671 20.9134 51.931 26.6934 55.551C31.7234 58.701 39.7134 60.221 41.8934 53.221C42.8134 50.271 37.7934 48.281 36.5534 51.751H36.5334Z" fill="url(#paint4_linear_58_2002)"/>
<path opacity="0.18" d="M26.7634 55.301C26.1934 57.121 25.6234 58.941 25.0634 60.761C26.1734 58.901 27.2834 57.031 28.3934 55.171C27.1034 56.861 25.8134 58.551 24.5134 60.241C26.8934 57.661 29.2634 55.091 31.6434 52.511C28.8334 54.661 25.6434 55.601 22.0534 55.301C19.2834 54.281 16.9734 52.671 15.1334 50.461C13.2434 48.771 11.7334 46.771 10.6334 44.451C6.61344 31.301 10.7734 20.721 23.1034 12.721C22.3534 13.181 21.6034 13.641 20.8634 14.101C25.0634 13.461 29.2534 13.491 33.4434 14.201C37.8634 14.951 42.0734 16.331 46.0834 18.331C48.9534 21.151 51.2234 24.401 52.9034 28.071C57.7834 37.781 55.5234 47.381 46.1134 56.881C45.2634 57.771 46.0234 61.281 46.9334 61.961C48.0934 62.821 50.2234 62.341 51.1034 61.281C56.5534 54.731 61.2934 47.991 61.2534 39.061C61.2234 31.961 57.7634 24.081 53.5434 18.461C51.7534 15.191 49.1534 13.021 45.7234 11.981C42.4734 10.281 39.0334 9.07104 35.4034 8.35104C30.8634 7.32104 26.2834 7.04104 21.6534 7.49104C19.3234 8.35104 17.2434 9.68104 15.4134 11.461C8.19343 17.111 1.16343 25.201 0.583433 34.701C0.353433 38.501 0.503432 42.501 1.18343 46.231C3.15343 56.921 12.7034 69.141 24.7634 65.751C26.9134 65.151 28.1834 63.701 29.6734 62.071C31.2434 60.351 34.3034 57.541 34.8534 55.231C35.3134 53.311 35.7634 51.391 36.2234 49.461C36.7234 47.331 35.1934 46.381 33.4234 46.831C30.6934 47.521 27.8934 53.031 26.7534 55.271L26.7634 55.301Z" fill="url(#paint5_linear_58_2002)"/>
<path opacity="0.11" d="M35.0435 72.161C34.7135 73.261 34.3835 74.361 34.0435 75.461C34.9135 74.291 35.7934 73.121 36.6635 71.951C35.2334 73.291 33.8035 74.641 32.3635 75.981C35.2735 73.991 38.1835 72.001 41.0935 70.011L31.3535 74.061C33.3235 73.651 35.2935 73.231 37.2635 72.821C35.4935 72.761 33.7235 72.691 31.9535 72.631C26.1835 68.641 20.4035 64.641 14.6335 60.651C12.9935 55.801 13.5135 49.871 14.3335 44.981C14.2035 42.721 15.0035 40.871 16.7235 39.431C17.9035 37.631 19.3435 36.071 21.0435 34.751C31.5335 25.061 40.5435 23.501 57.6435 33.651C57.1135 33.151 56.5935 32.661 56.0635 32.161C57.8235 35.911 59.5835 39.661 61.3535 43.421C61.5835 46.261 61.5035 49.101 61.1035 51.921C61.3635 54.021 60.9835 55.951 59.9435 57.711C59.2034 59.641 58.1135 61.361 56.6735 62.871C55.4935 64.491 55.2535 70.051 56.2435 71.791C57.2335 73.521 59.2835 73.381 60.4635 71.991C64.7035 67.011 68.4035 61.881 69.2235 55.151C69.9435 49.211 69.1435 42.471 66.4435 37.081C63.5235 31.241 58.7735 27.691 52.9535 25.011C47.1235 22.321 39.7335 20.541 33.2935 21.671C28.6535 22.481 22.7335 26.121 19.1435 29.111C17.3535 30.751 15.5735 32.401 13.7835 34.041C10.7835 36.351 9.09346 39.311 8.72346 42.901C7.31346 48.611 6.85346 54.351 7.37346 60.211C7.19346 64.971 9.02345 68.771 12.8535 71.601C14.4335 72.931 16.0135 74.251 17.5935 75.581C19.8235 77.231 22.9835 78.951 25.6235 79.921C27.2735 80.701 29.0035 80.721 30.8135 79.971C33.0935 80.091 35.2035 79.581 37.1535 78.441C40.1635 76.891 43.6335 75.021 45.8835 72.471C48.1835 69.851 48.9135 67.311 49.8835 63.981C49.8835 62.951 49.3735 62.291 48.3835 62.001C46.8035 61.921 45.4135 62.441 44.2035 63.551C41.1035 65.461 36.1635 68.421 35.0435 72.131V72.161Z" fill="url(#paint6_linear_58_2002)"/>
<path opacity="0.11" d="M47.9834 57.941C47.6334 58.691 47.2834 59.451 46.9334 60.201C48.6934 59.391 50.4534 58.581 52.2034 57.771C48.9334 58.831 45.4934 59.371 42.2734 58.001C41.1434 57.331 40.0234 56.661 38.8934 56.001C33.4034 49.611 32.3834 43.431 35.8234 37.461C35.8734 35.181 36.8234 33.711 38.6634 33.021C39.4234 32.741 40.0534 32.301 40.5734 31.701C41.7034 30.471 43.1434 29.691 44.8934 29.361C49.7134 26.661 55.0034 25.511 60.7534 25.911C57.9934 26.101 55.2334 26.291 52.4734 26.491C56.2234 26.921 59.9734 27.351 63.7334 27.791L55.8934 26.221C59.1834 27.541 62.4634 28.861 65.7534 30.181C63.3434 28.991 60.9434 27.811 58.5334 26.621C61.3334 28.701 64.1334 30.771 66.9334 32.851C64.7834 31.041 62.6334 29.231 60.4834 27.421C63.1634 30.691 65.8534 33.971 68.5334 37.241C67.0834 35.261 65.6334 33.281 64.1834 31.301L69.3434 41.541L66.9634 35.291C68.0334 39.941 69.1034 44.601 70.1834 49.251C69.7634 45.891 69.3534 42.521 68.9334 39.161C68.5234 44.271 68.4034 49.381 68.5634 54.491C68.3934 55.251 68.5234 55.941 68.9534 56.561C69.5434 57.581 70.5834 58.241 71.7634 57.581C74.0934 56.281 73.2434 51.731 74.1734 49.971C74.8934 49.001 75.6134 48.031 76.3234 47.051C76.6234 45.161 76.9334 43.281 77.2334 41.391C78.3834 31.391 73.6334 22.701 65.5134 17.111C60.9934 13.991 53.8734 12.101 48.3834 12.771C43.0334 13.421 38.4534 15.451 34.1634 18.711C25.7234 25.131 21.9334 34.901 22.5634 45.421C22.8634 50.471 23.9734 54.511 27.4434 58.481C29.8434 61.221 32.6034 63.871 35.8934 65.491C40.2634 67.651 44.1634 67.871 48.6934 65.691C51.1234 64.521 53.4334 62.841 55.4534 61.041C57.8934 58.881 59.1734 56.541 60.0834 53.421C60.6934 51.341 59.9034 49.561 57.3934 50.171C55.5634 51.111 53.8734 52.261 52.3234 53.631C50.6834 54.891 49.2334 56.331 47.9734 57.961L47.9834 57.941Z" fill="url(#paint7_linear_58_2002)"/>
<path opacity="0.28" d="M30.7034 49.5609C30.1134 51.4109 29.5134 53.2609 28.9234 55.1209C30.1134 53.1409 31.3134 51.1509 32.5034 49.1709C31.1734 50.9509 29.8434 52.7209 28.5234 54.5009C31.0434 51.7109 33.5634 48.9209 36.0734 46.1309C33.4934 47.9909 30.6534 49.2909 27.5434 50.0309C29.0734 49.7409 30.6034 49.4509 32.1434 49.1509C29.6434 48.9109 22.9634 45.0009 20.9334 42.9109C14.7734 36.6109 19.5134 22.1809 21.3234 17.0409C20.5834 18.6709 19.8434 20.2909 19.1034 21.9209C20.8434 19.3209 22.5834 16.7309 24.3234 14.1309C23.1234 15.4609 21.9234 16.7909 20.7234 18.1209C28.2334 12.9709 36.8134 10.9509 46.4734 12.0709L42.8634 11.2709C46.4534 13.6609 49.5334 16.5909 52.0934 20.0609C54.5834 23.4909 56.5234 27.2209 57.9034 31.2309C58.4634 37.5909 53.9934 43.4009 50.2934 47.9709C49.2734 49.2309 49.6534 53.7509 50.6134 54.9809C51.6434 56.3109 53.8734 55.9909 54.8334 54.7909C58.4034 50.3409 61.4834 46.2009 63.2734 40.6609C64.0934 38.7809 64.5334 36.8209 64.5634 34.7709C65.2134 32.5309 64.9634 30.3709 63.8234 28.3009C62.0434 22.4809 59.2934 17.0109 55.3034 12.3709C53.6034 10.3909 51.5134 7.85094 48.9634 7.03094C44.0434 5.45094 38.6234 5.15094 33.5134 5.47094C30.3234 5.67094 26.6434 5.86094 23.6034 7.01094C21.8934 8.17094 20.1834 9.33094 18.4734 10.4909C17.2934 11.6609 16.1134 12.8309 14.9334 14.0009C12.8234 16.4009 11.0234 18.9509 9.42342 21.7009C2.15342 34.1609 4.54342 54.1709 19.4234 60.1109C22.6834 61.4109 27.0134 61.6309 30.2134 59.7409C32.1334 58.6009 33.7834 56.3109 35.1934 54.6609C38.7734 50.4809 39.3434 48.7609 40.5834 43.2109C41.0834 40.9909 39.7234 40.0209 37.8134 40.5409C36.6334 40.9309 35.7534 41.7309 35.1634 42.9509C33.5234 45.0609 32.0334 47.2709 30.7034 49.5909V49.5609Z" fill="url(#paint8_linear_58_2002)"/>
<path opacity="0.11" d="M44.5034 41.911C42.4934 45.861 40.4934 49.811 38.4834 53.761C39.3034 52.171 40.1134 50.581 40.9334 48.991C40.7734 48.991 40.6234 48.981 40.4634 48.971C42.8234 47.241 45.1834 45.511 47.5434 43.781C43.4834 45.661 39.4134 47.541 35.3534 49.421C38.1134 48.361 40.8634 47.301 43.6234 46.251C37.7534 43.991 32.1634 41.121 26.8634 37.651C30.0434 39.811 33.2134 41.971 36.3934 44.131C33.9734 34.231 32.4034 24.161 31.6734 13.931C31.6334 20.451 31.5934 26.981 31.5634 33.501C34.2834 27.491 37.0034 21.481 39.7134 15.471C37.3734 19.741 35.0434 24.001 32.7034 28.271C36.2534 23.901 39.8034 19.531 43.3534 15.151L33.8834 24.911C38.1634 21.801 42.4434 18.691 46.7234 15.581C42.8434 17.861 38.9634 20.131 35.0834 22.411C40.0034 20.521 44.9134 18.621 49.8334 16.731L36.1534 20.601C40.5434 20.191 44.9434 19.781 49.3334 19.361C46.7134 19.381 44.0934 19.391 41.4734 19.411C46.7934 20.141 52.1034 20.861 57.4234 21.591C53.6934 20.771 49.9534 19.961 46.2234 19.141C50.8334 21.011 55.4434 22.891 60.0534 24.761C56.7334 23.011 53.4234 21.261 50.1034 19.511C54.0134 22.421 57.9334 25.321 61.8434 28.231L53.2534 20.221C54.8634 27.471 56.4734 34.721 58.0834 41.971C58.0034 43.421 57.5834 48.821 59.3034 50.191C60.6934 51.301 62.0034 50.221 62.6934 48.921C65.6834 43.181 67.6134 37.611 67.6934 31.051C67.7434 26.271 65.3234 22.341 62.4334 18.661C54.0234 7.91095 37.6634 5.32095 26.5734 13.201C19.3134 18.361 15.1134 26.2409 14.9034 35.2109C14.8234 38.7909 15.0934 43.011 16.7834 46.231C18.4734 49.461 20.8934 52.461 23.6234 54.871C27.2234 58.031 30.3634 58.721 34.9234 58.691C37.8634 58.671 42.1234 54.561 43.8934 53.051C46.5334 50.801 49.7834 48.541 51.0334 45.221C51.8934 42.941 52.7534 40.671 53.6034 38.391C54.1334 36.991 54.2034 34.881 52.0934 34.951C49.2834 35.041 45.7934 40.271 44.5034 41.891V41.911Z" fill="url(#paint9_linear_58_2002)"/>
<path opacity="0.11" d="M47.2934 65.251C46.9334 66.331 46.5734 67.411 46.2134 68.501C47.0934 67.361 47.9734 66.221 48.8534 65.081C47.4134 66.431 45.9734 67.781 44.5334 69.131C47.3934 67.201 50.2634 65.281 53.1234 63.351C49.8434 64.791 46.5534 66.231 43.2734 67.681C45.1934 67.251 47.1134 66.821 49.0334 66.391C45.0234 66.181 41.5934 65.661 37.9434 63.771C31.8034 61.471 31.6834 55.971 37.5734 47.291C34.1134 35.781 37.2434 30.001 46.9634 29.951C48.4534 30.351 49.7834 31.001 51.3134 31.281C54.6134 30.501 57.0534 31.351 58.6334 33.821C62.6434 38.011 65.8234 42.821 68.1834 48.261C67.2634 46.101 66.3434 43.951 65.4234 41.791C66.1834 45.131 66.9434 48.461 67.7034 51.801C67.4034 49.501 67.0934 47.201 66.7934 44.891C66.7034 48.261 66.6134 51.631 66.5134 55.001C66.4534 57.241 65.7334 61.081 67.0734 62.981C67.5234 63.611 68.9834 65.231 69.9434 63.851C72.7934 59.781 75.0634 56.041 76.1634 51.091C77.2034 46.411 77.4234 41.071 75.7834 36.471C72.5134 27.341 65.4634 21.421 56.0734 19.051C46.7834 16.711 37.2734 19.271 29.9734 25.481C24.5634 30.081 21.6334 35.531 20.5934 42.421C19.7534 47.981 19.3934 55.011 21.9034 60.141C23.6634 63.751 27.3334 67.131 30.4834 69.551C34.7534 72.841 34.9134 72.331 40.8234 72.521C43.3934 73.421 45.7834 73.311 47.9834 72.191C49.6034 71.571 51.1334 70.771 52.5734 69.781C54.4234 68.611 56.2434 67.391 57.8334 65.891C60.4134 63.441 61.0434 60.851 62.2434 57.651C62.2634 56.621 61.7834 55.951 60.8034 55.631C59.2434 55.501 57.8434 55.961 56.6134 57.031C53.4734 58.821 48.5034 61.611 47.2834 65.251H47.2934Z" fill="url(#paint10_linear_58_2002)"/>
<path opacity="0.21" d="M27.5434 62.161C27.3034 63.251 27.0634 64.331 26.8134 65.421C28.4234 63.261 30.0334 61.101 31.6434 58.941C30.2934 60.171 28.9534 61.411 27.6034 62.641C29.8234 61.111 32.0434 59.5709 34.2534 58.0409C16.7834 61.0609 11.2234 57.421 10.6034 40.021C10.6334 41.321 9.92344 37.751 9.95344 39.061C13.5634 30.391 16.4934 19.591 28.3934 19.631C43.5334 19.691 53.3834 27.3309 56.8934 46.1809C56.9734 45.4609 57.0634 44.741 57.1434 44.021C55.2734 49.941 52.7734 53.031 47.9134 56.891C45.1334 59.101 47.9434 68.7809 51.2434 65.4609C55.9234 60.7509 59.6934 56.571 61.5634 50.051C62.8434 45.601 62.1434 40.9809 60.6834 36.6509C59.5334 33.2109 58.0934 30.1809 56.1534 27.1509C55.1134 25.1109 53.7334 23.341 52.0134 21.841C49.7734 18.881 46.7334 17.061 42.8834 16.381C37.2134 14.481 31.4834 13.421 25.4834 13.611C20.7834 13.761 20.2834 14.081 15.7834 17.491C11.9034 20.431 8.45344 23.8909 5.45344 27.7109C2.65344 30.1909 1.29344 33.2009 1.38344 36.7109C0.83344 39.9709 0.803438 43.241 1.30344 46.531C1.72344 50.221 2.29344 54.1309 3.59344 57.6209C5.13344 61.7409 8.82344 65.481 12.3334 68.001C17.2334 71.521 23.8034 73.381 28.9934 69.381C31.9034 67.131 34.6834 64.4709 37.0634 61.6509C39.6334 58.6109 39.8734 56.331 40.8434 52.251C41.4734 49.591 40.1734 48.0809 37.5434 49.6209C35.5434 51.4209 33.7234 53.3909 32.1034 55.5409C30.3634 57.6009 28.8434 59.811 27.5334 62.161H27.5434Z" fill="url(#paint11_linear_58_2002)"/>
<path opacity="0.9" d="M69.4835 27.351C67.6035 23.351 67.3335 19.111 64.4435 15.841C57.3535 7.82103 51.1135 11.241 42.8735 11.241C36.5535 11.241 31.0735 6.82103 25.3335 8.12103C14.4535 10.591 3.57346 30.871 10.6235 40.021C17.8035 49.341 11.5035 58.641 16.8535 64.411C21.6735 69.611 30.5835 70.831 37.9235 71.981C39.5735 72.241 41.2535 72.371 42.9735 72.371C44.6935 72.371 46.3835 72.241 48.0235 71.981C55.7535 70.771 62.5735 66.811 67.4735 61.151C72.3635 55.481 72.2535 47.491 75.3235 40.031C78.1235 33.221 71.4635 31.531 69.5035 27.361L69.4835 27.351Z" fill="url(#paint12_linear_58_2002)"/>
<path d="M60.7834 35.1109C60.7834 30.8209 57.3034 27.3409 53.0134 27.3409H33.1534C28.8634 27.3409 25.3834 30.8209 25.3834 35.1109V44.351C25.3834 48.641 28.8634 52.1209 33.1534 52.1209H53.0134C57.3034 52.1209 60.7834 48.641 60.7834 44.351V35.1109ZM49.1034 40.4209L40.1934 44.8309C39.8434 45.0209 38.6534 44.7709 38.6534 44.3709V35.3309C38.6534 34.9309 39.8534 34.6809 40.2034 34.8709L48.7334 39.5109C49.0934 39.7109 49.4634 40.2309 49.1034 40.4309V40.4209Z" fill="white"/>
<defs>
<linearGradient id="paint0_linear_58_2002" x1="75.9734" y1="16.071" x2="25.9234" y2="70.971" gradientUnits="userSpaceOnUse">
<stop stop-color="#FF0000"/>
<stop offset="1" stop-color="#840000"/>
</linearGradient>
<linearGradient id="paint1_linear_58_2002" x1="68.1434" y1="8.93101" x2="18.0834" y2="63.831" gradientUnits="userSpaceOnUse">
<stop stop-color="#FF0000"/>
<stop offset="1" stop-color="#840000"/>
</linearGradient>
<linearGradient id="paint2_linear_58_2002" x1="62.4034" y1="3.70099" x2="12.3534" y2="58.601" gradientUnits="userSpaceOnUse">
<stop stop-color="#FF0000"/>
<stop offset="1" stop-color="#840000"/>
</linearGradient>
<linearGradient id="paint3_linear_58_2002" x1="71.4334" y1="11.931" x2="21.3834" y2="66.831" gradientUnits="userSpaceOnUse">
<stop stop-color="#FF0000"/>
<stop offset="1" stop-color="#840000"/>
</linearGradient>
<linearGradient id="paint4_linear_58_2002" x1="66.2334" y1="7.191" x2="16.1734" y2="62.091" gradientUnits="userSpaceOnUse">
<stop stop-color="#FF0000"/>
<stop offset="1" stop-color="#840000"/>
</linearGradient>
<linearGradient id="paint5_linear_58_2002" x1="62.4734" y1="3.76104" x2="12.4134" y2="58.661" gradientUnits="userSpaceOnUse">
<stop stop-color="#FF0000"/>
<stop offset="1" stop-color="#840000"/>
</linearGradient>
<linearGradient id="paint6_linear_58_2002" x1="73.0835" y1="13.431" x2="23.0235" y2="68.331" gradientUnits="userSpaceOnUse">
<stop stop-color="#FF0000"/>
<stop offset="1" stop-color="#840000"/>
</linearGradient>
<linearGradient id="paint7_linear_58_2002" x1="74.2634" y1="14.501" x2="24.2034" y2="69.411" gradientUnits="userSpaceOnUse">
<stop stop-color="#FF0000"/>
<stop offset="1" stop-color="#840000"/>
</linearGradient>
<linearGradient id="paint8_linear_58_2002" x1="62.6434" y1="3.91094" x2="12.5834" y2="58.8109" gradientUnits="userSpaceOnUse">
<stop stop-color="#FF0000"/>
<stop offset="1" stop-color="#840000"/>
</linearGradient>
<linearGradient id="paint9_linear_58_2002" x1="66.1434" y1="7.11095" x2="16.0834" y2="62.0109" gradientUnits="userSpaceOnUse">
<stop stop-color="#FF0000"/>
<stop offset="1" stop-color="#840000"/>
</linearGradient>
<linearGradient id="paint10_linear_58_2002" x1="75.9234" y1="16.021" x2="25.8634" y2="70.921" gradientUnits="userSpaceOnUse">
<stop stop-color="#FF0000"/>
<stop offset="1" stop-color="#840000"/>
</linearGradient>
<linearGradient id="paint11_linear_58_2002" x1="65.1434" y1="6.19096" x2="15.0834" y2="61.091" gradientUnits="userSpaceOnUse">
<stop stop-color="#FF0000"/>
<stop offset="1" stop-color="#840000"/>
</linearGradient>
<linearGradient id="paint12_linear_58_2002" x1="68.0735" y1="8.87103" x2="18.0235" y2="63.771" gradientUnits="userSpaceOnUse">
<stop stop-color="#FF0000"/>
<stop offset="1" stop-color="#840000"/>
</linearGradient>
</defs>
</svg>
