<svg width="78" height="81" viewBox="0 0 78 81" fill="none" xmlns="http://www.w3.org/2000/svg">
<path opacity="0.11" d="M41.7515 71.121C40.8315 72.421 39.9215 73.711 39.0015 75.011C41.8615 73.241 44.7315 71.461 47.5915 69.691C44.2715 71.021 40.9515 72.341 37.6315 73.671C39.4815 73.371 41.3215 73.061 43.1715 72.761C34.9315 71.961 24.1415 69.931 21.7415 59.341C18.3415 44.331 25.0215 33.651 42.3015 25.861C41.5815 25.941 40.8515 26.021 40.1315 26.101C43.5715 26.381 46.4215 26.781 49.5115 28.481C55.0315 31.511 59.8115 36.921 61.8115 42.921C62.3315 44.481 63.0915 45.951 63.6215 47.511C64.7915 50.951 64.0015 54.121 62.9415 57.411C61.9515 60.481 60.9215 66.291 62.2215 69.371C63.2315 71.751 65.1015 71.271 66.4315 69.621C69.1015 66.321 70.7515 64.291 72.3115 60.281C74.4115 54.861 74.7015 47.381 72.9415 41.831C70.5615 34.321 66.3715 29.361 59.7515 25.231C55.0615 22.301 49.9215 20.181 44.2915 20.191C37.4815 20.191 30.8915 23.981 25.7715 28.221C22.6915 30.771 19.1215 34.231 17.2015 37.731C15.2815 41.231 14.9015 45.261 14.4915 49.181C13.9515 54.361 13.9415 59.711 15.4215 64.771C16.5815 68.751 21.1015 72.311 24.3915 74.881C26.8415 76.791 30.3715 78.771 33.4815 79.741C36.4215 80.651 40.6815 79.081 43.3115 77.901C46.4115 76.511 49.7415 74.891 52.1515 72.441C54.6015 69.941 55.5015 67.421 56.7315 64.171C56.7815 63.151 56.3215 62.461 55.3615 62.101C53.8315 61.901 52.4315 62.311 51.1815 63.321C48.1215 64.921 42.9115 67.5709 41.7415 71.111L41.7515 71.121Z" fill="url(#paint0_linear_58_1982)"/>
<path opacity="0.11" d="M33.7015 62.101C33.4515 63.181 33.2115 64.271 32.9615 65.351C34.4115 63.291 35.8615 61.241 37.3116 59.181C35.5515 61.171 33.7916 63.151 32.0316 65.141C36.7716 60.801 41.5115 56.461 46.2515 52.121C41.7915 55.681 37.3315 59.231 32.8615 62.791C38.1115 59.141 43.3515 55.501 48.6015 51.851C41.2715 55.341 33.9415 58.841 26.6115 62.331C32.2015 60.361 37.7815 58.391 43.3715 56.431C36.7715 57.871 30.1616 59.321 23.5616 60.761C29.1316 59.851 34.7015 58.941 40.2615 58.031C35.7915 58.071 31.3215 58.121 26.8415 58.161L37.2415 58.721C32.9915 57.831 28.7315 56.941 24.4815 56.051C27.8615 56.901 31.2315 57.741 34.6115 58.591C30.3315 56.801 26.0415 55.021 21.7615 53.231C24.5115 54.621 27.2615 56.011 30.0015 57.401C26.6415 54.971 23.2816 52.541 19.9216 50.111C22.0616 51.951 24.2015 53.781 26.3415 55.621C23.8415 52.711 21.3515 49.801 18.8515 46.901C20.4315 49.131 22.0015 51.351 23.5815 53.581C21.1415 48.821 18.7115 44.071 16.2715 39.311L21.5915 51.491L20.7615 34.751C20.5715 37.011 20.3916 39.271 20.2016 41.531C21.1316 38.001 22.0615 34.471 22.9915 30.941C22.2715 33.031 21.5515 35.121 20.8315 37.211C22.4715 34.121 24.1115 31.041 25.7515 27.951C24.5015 29.851 23.2515 31.751 22.0015 33.651C32.1515 24.871 39.7015 24.041 44.6815 31.161C47.7915 33.981 49.0415 37.711 48.4216 42.351C48.4715 45.371 48.7815 48.361 49.3515 51.331C49.6615 53.711 50.1615 56.051 50.8715 58.331C51.2515 59.661 53.0315 64.181 54.9815 61.341C59.4115 54.891 63.2316 48.081 62.1416 39.881C61.2316 33.011 55.9016 23.671 49.3916 20.581C42.8016 17.451 32.2515 16.201 25.5115 19.281C22.3015 20.751 19.1015 23.931 16.8515 26.601C14.4215 29.601 12.3615 32.841 10.6715 36.311C9.69154 39.871 9.30155 43.491 9.48155 47.181C9.71155 52.751 10.8615 57.661 14.3715 62.071C16.3815 64.591 18.7816 66.671 21.5616 68.291C24.8816 70.451 28.5016 70.771 32.4216 69.261C36.0816 68.931 42.2715 62.551 44.3015 60.751C46.0615 59.151 47.8215 57.541 49.5815 55.941C51.6915 54.381 53.2616 52.431 54.3116 50.091C55.3316 47.641 55.7515 45.091 55.5515 42.431C55.8015 37.061 47.5915 45.401 47.6915 45.301C44.2815 48.671 41.0015 52.161 37.8615 55.791C35.9015 57.561 34.5215 59.671 33.6915 62.121L33.7015 62.101Z" fill="url(#paint1_linear_58_1982)"/>
<path opacity="0.11" d="M30.3315 50.951C30.1115 51.831 29.9015 52.711 29.6915 53.591C30.6315 51.961 31.5715 50.331 32.5215 48.701C30.0515 48.381 27.5815 48.051 25.1115 47.731C24.4515 46.901 23.7916 46.081 23.1216 45.251C19.6116 39.721 18.3015 32.411 19.1315 26.021C19.1915 24.331 19.5616 22.701 20.2316 21.141C20.9016 17.781 22.9515 15.291 26.3815 13.681C29.1215 9.19099 33.0615 7.16099 38.2115 7.58099C42.7115 6.25099 47.2316 6.20099 51.7816 7.43099C50.8316 7.10099 49.8915 6.76099 48.9415 6.43099C52.4115 9.03099 55.3515 12.131 57.7515 15.741C60.5515 19.091 61.7716 22.921 61.4216 27.241C62.6516 31.301 62.1515 35.151 59.9115 38.771C58.0615 42.741 55.6715 46.341 52.7215 49.591C50.4915 52.461 55.5116 55.161 57.4516 52.621C61.2016 47.731 64.4815 43.071 66.5815 37.171C67.5115 35.121 68.0815 32.981 68.3015 30.741C69.1715 28.461 69.0516 26.221 67.9216 24.031C66.3616 18.261 63.8616 12.781 60.0916 8.08099C58.5616 6.18099 56.5315 3.60099 54.2715 2.54099C51.5215 1.25099 47.6615 0.940988 44.5715 0.520988C39.7015 -0.129012 32.5715 -0.489012 28.0515 1.42099C21.1815 4.32099 15.7615 9.88099 11.9915 16.171C7.26155 24.051 5.53155 34.321 9.25155 43.021C11.8915 49.161 16.5615 56.041 23.5015 57.661C26.5015 58.361 29.7815 58.741 32.3515 56.691C35.4215 54.241 36.9116 51.621 37.5616 47.781C37.8216 46.251 35.2716 44.971 34.0616 45.411C32.1816 46.101 30.7615 49.161 30.3315 50.931V50.951Z" fill="url(#paint2_linear_58_1982)"/>
<path opacity="0.11" d="M44.5815 57.621C44.3415 58.701 44.1115 59.771 43.8715 60.851C44.2615 60.131 44.6415 59.411 45.0315 58.691C44.3915 59.421 43.7415 60.151 43.1015 60.881C47.8115 57.091 52.5315 53.291 57.2415 49.501C51.7615 52.881 46.2715 56.251 40.7915 59.631C46.1615 57.091 51.5415 54.551 56.9115 52.021C49.5615 53.911 42.2215 55.801 34.8715 57.691C40.2515 56.921 45.6315 56.151 51.0115 55.381C45.1215 53.791 39.2315 52.201 33.3315 50.611C36.3315 51.951 39.3415 53.281 42.3415 54.621C38.9315 52.371 35.5215 50.121 32.1215 47.871C34.7415 49.741 37.3615 51.611 39.9815 53.471C36.6015 49.041 34.0715 44.121 32.4115 38.701L35.9315 48.111C35.1315 44.061 34.3415 40.021 33.5415 35.971C34.0115 39.271 34.4915 42.561 34.9615 45.861C35.0815 43.861 35.1915 41.861 35.3115 39.861C34.8715 41.971 34.4215 44.091 33.9815 46.201C34.4415 45.171 34.8915 44.141 35.3515 43.121C34.9215 43.791 34.4915 44.461 34.0615 45.131C41.8315 38.251 49.5915 31.371 57.3615 24.491C49.6115 28.461 41.8615 32.431 34.1115 36.401C44.5115 37.431 54.9115 38.461 65.3115 39.491C57.4815 35.701 49.6515 31.911 41.8215 28.121C43.7315 43.471 50.1915 53.001 61.1915 56.721C61.6915 57.121 62.1015 57.041 62.4115 56.471C64.3315 55.361 63.0615 50.721 62.8415 49.021C62.0715 43.071 60.4015 37.441 58.8815 31.681C61.1915 38.311 63.5015 44.951 65.8115 51.581C66.4315 50.051 67.0515 48.521 67.6815 47.001C70.7815 37.751 67.3915 28.791 60.4315 22.361C53.9415 16.361 41.7915 15.591 34.3315 19.801C29.1215 22.741 24.2515 27.431 21.8915 33.071C20.4415 36.541 20.0815 41.211 20.2815 45.031C20.5015 46.721 20.7115 48.411 20.9315 50.101C26.8915 56.191 33.9215 60.961 42.0015 64.421C45.2015 66.521 50.0315 61.451 52.3915 59.721C55.1315 57.771 57.7815 55.701 60.3415 53.531C62.4315 52.191 64.0215 50.431 65.0915 48.261C66.2715 45.861 66.8515 43.331 66.8515 40.661C67.4515 35.471 59.0615 42.671 59.0615 42.671C55.5715 45.611 52.2115 48.681 48.9715 51.901C46.9715 53.441 45.5115 55.351 44.6015 57.641L44.5815 57.621Z" fill="url(#paint3_linear_58_1982)"/>
<path opacity="0.11" d="M36.2715 51.741C36.0315 52.421 35.7815 53.111 35.5415 53.791C36.3415 52.901 37.1415 52.021 37.9515 51.141C30.9415 54.091 24.3415 43.431 23.7615 37.351C23.3915 33.491 24.6115 29.901 26.3515 26.501C29.0615 22.251 31.7715 18.001 34.4715 13.751C40.8115 8.701 48.3515 6.731 57.1015 7.821L52.8015 7.091C61.9015 11.071 68.4215 17.311 72.3515 25.801C72.0915 24.921 71.8315 24.031 71.5715 23.151C71.3715 27.341 70.5015 31.391 68.9715 35.291C67.3215 39.501 65.0815 43.371 62.2615 46.911C61.5815 47.901 61.1015 49.861 62.0315 50.891C62.6915 51.621 65.5715 52.021 66.2415 51.131C69.9615 46.201 73.2515 41.471 75.4115 35.601C76.3615 33.551 76.9615 31.401 77.2215 29.161C77.8515 27.711 78.0115 26.241 77.6915 24.751C76.3515 19.651 72.5515 14.291 69.2815 10.481C65.3415 5.901 61.6215 2.381 55.4315 1.141C51.6015 0.370996 47.5315 0.0109959 43.6315 0.370996C34.9915 1.171 26.2215 4.991 21.2115 12.441C16.0215 20.171 12.9715 29.911 15.2315 39.121C16.8315 45.661 20.6515 51.921 26.4315 55.541C31.4615 58.691 39.4515 60.211 41.6315 53.211C42.5515 50.261 37.5315 48.271 36.2915 51.741H36.2715Z" fill="url(#paint4_linear_58_1982)"/>
<path opacity="0.18" d="M26.5115 55.301C25.9415 57.121 25.3815 58.941 24.8115 60.761C25.9215 58.901 27.0315 57.031 28.1415 55.171C26.8515 56.861 25.5615 58.551 24.2615 60.241C26.6415 57.661 29.0115 55.091 31.3915 52.511C28.5815 54.661 25.3915 55.601 21.8015 55.301C19.0315 54.281 16.7215 52.671 14.8815 50.461C12.9915 48.771 11.4815 46.771 10.3815 44.451C6.36154 31.301 10.5215 20.721 22.8515 12.721C22.1015 13.181 21.3515 13.641 20.6115 14.101C24.8115 13.461 29.0015 13.491 33.1915 14.201C37.6115 14.951 41.8215 16.331 45.8315 18.331C48.7015 21.151 50.9715 24.401 52.6515 28.071C57.5315 37.781 55.2715 47.381 45.8615 56.881C45.0115 57.771 45.7715 61.281 46.6815 61.961C47.8415 62.821 49.9715 62.341 50.8515 61.281C56.3015 54.731 61.0415 47.991 61.0015 39.061C60.9715 31.961 57.5115 24.081 53.2915 18.461C51.5015 15.191 48.9015 13.021 45.4715 11.981C42.2215 10.281 38.7815 9.07104 35.1515 8.35104C30.6115 7.32104 26.0315 7.04104 21.4015 7.49104C19.0715 8.35104 16.9915 9.68104 15.1615 11.461C7.94154 17.111 0.911541 25.201 0.331541 34.701C0.101541 38.501 0.25154 42.501 0.93154 46.231C2.90154 56.921 12.4515 69.141 24.5115 65.751C26.6615 65.151 27.9315 63.701 29.4215 62.071C30.9915 60.351 34.0515 57.541 34.6015 55.231C35.0615 53.311 35.5115 51.391 35.9715 49.461C36.4715 47.331 34.9415 46.381 33.1715 46.831C30.4415 47.521 27.6415 53.031 26.5015 55.271L26.5115 55.301Z" fill="url(#paint5_linear_58_1982)"/>
<path opacity="0.11" d="M34.7915 72.151C34.4615 73.251 34.1315 74.351 33.7915 75.451C34.6615 74.281 35.5415 73.111 36.4115 71.941L32.1115 75.971C35.0215 73.981 37.9315 71.991 40.8415 70.001L31.1015 74.051C33.0715 73.641 35.0415 73.221 37.0115 72.811C35.2415 72.751 33.4715 72.681 31.7015 72.621C25.9315 68.631 20.1515 64.631 14.3815 60.641C12.7415 55.791 13.2615 49.861 14.0815 44.971C13.9515 42.711 14.7515 40.861 16.4715 39.421C17.6515 37.621 19.0915 36.061 20.7915 34.741C31.2815 25.051 40.2915 23.491 57.3915 33.641C56.8615 33.141 56.3415 32.651 55.8115 32.151C57.5715 35.901 59.3315 39.651 61.1015 43.411C61.3315 46.251 61.2515 49.091 60.8515 51.911C61.1115 54.011 60.7315 55.941 59.6915 57.701C58.9515 59.631 57.8615 61.351 56.4215 62.861C55.2415 64.481 55.0015 70.041 55.9915 71.781C56.9815 73.511 59.0315 73.371 60.2115 71.981C64.4515 67.001 68.1515 61.871 68.9715 55.141C69.6915 49.201 68.8915 42.461 66.1915 37.071C63.2715 31.231 58.5215 27.681 52.7015 25.001C46.8715 22.311 39.4815 20.531 33.0415 21.661C28.4015 22.471 22.4815 26.111 18.8915 29.101C17.1015 30.741 15.3215 32.391 13.5315 34.031C10.5315 36.341 8.84153 39.301 8.47153 42.891C7.06153 48.601 6.60153 54.341 7.12153 60.201C6.94153 64.961 8.77153 68.761 12.6015 71.591C14.1815 72.921 15.7615 74.241 17.3415 75.571C19.5715 77.221 22.7315 78.941 25.3715 79.911C27.0215 80.691 28.7515 80.711 30.5615 79.961C32.8415 80.081 34.9515 79.571 36.9015 78.431C39.9115 76.881 43.3815 75.011 45.6315 72.461C47.9315 69.841 48.6615 67.301 49.6315 63.971C49.6315 62.941 49.1215 62.281 48.1315 61.991C46.5515 61.911 45.1615 62.431 43.9515 63.551C40.8515 65.451 35.9115 68.421 34.7915 72.131V72.151Z" fill="url(#paint6_linear_58_1982)"/>
<path opacity="0.11" d="M47.7316 57.941C47.3816 58.691 47.0316 59.451 46.6816 60.201C48.4416 59.391 50.2016 58.581 51.9516 57.771C48.6816 58.831 45.2415 59.371 42.0215 58.001C40.8916 57.331 39.7716 56.661 38.6416 56.001C33.1516 49.611 32.1316 43.431 35.5716 37.461C35.6216 35.181 36.5715 33.711 38.4115 33.021C39.1715 32.741 39.8016 32.301 40.3216 31.701C41.4516 30.471 42.8916 29.691 44.6416 29.361C49.4616 26.661 54.7515 25.511 60.5015 25.911L52.2215 26.491C55.9715 26.921 59.7216 27.351 63.4816 27.791C60.8716 27.271 58.2516 26.741 55.6416 26.221C58.9316 27.541 62.2115 28.861 65.5015 30.181C63.0915 28.991 60.6916 27.811 58.2816 26.621C61.0816 28.701 63.8816 30.771 66.6816 32.851C64.5316 31.041 62.3816 29.231 60.2316 27.421C62.9116 30.691 65.6016 33.971 68.2816 37.241C66.8316 35.261 65.3816 33.281 63.9316 31.291C65.6516 34.701 67.3716 38.121 69.0916 41.531C68.3016 39.451 67.5016 37.361 66.7116 35.281C67.7816 39.931 68.8516 44.591 69.9316 49.241C69.5116 45.881 69.1016 42.511 68.6816 39.151C68.2716 44.261 68.1516 49.371 68.3116 54.481C68.1416 55.241 68.2716 55.931 68.7016 56.551C69.2916 57.571 70.3316 58.231 71.5116 57.571C73.8416 56.271 72.9916 51.721 73.9216 49.961C74.6416 48.991 75.3616 48.021 76.0716 47.041C76.3716 45.161 76.6816 43.271 76.9816 41.381C78.1316 31.381 73.3816 22.691 65.2616 17.101C60.7416 13.981 53.6215 12.091 48.1315 12.761C42.7815 13.411 38.2015 15.441 33.9115 18.701C25.4715 25.121 21.6816 34.891 22.3116 45.411C22.6116 50.461 23.7215 54.501 27.1915 58.471C29.5915 61.211 32.3516 63.861 35.6416 65.481C40.0116 67.641 43.9115 67.861 48.4415 65.681C50.8715 64.511 53.1816 62.831 55.2016 61.031C57.6416 58.871 58.9215 56.531 59.8315 53.411C60.4415 51.331 59.6516 49.551 57.1416 50.161C55.3116 51.101 53.6216 52.251 52.0716 53.621C50.4316 54.881 48.9815 56.321 47.7215 57.951L47.7316 57.941Z" fill="url(#paint7_linear_58_1982)"/>
<path opacity="0.28" d="M30.4515 49.5509C29.8615 51.4009 29.2615 53.2509 28.6715 55.1109C29.8615 53.1309 31.0615 51.1409 32.2515 49.1609C30.9215 50.9409 29.5915 52.7109 28.2715 54.4909C30.7915 51.7009 33.3115 48.9109 35.8215 46.1209C33.2415 47.9809 30.4015 49.2809 27.2915 50.0209C28.8215 49.7309 30.3515 49.4409 31.8915 49.1409C29.3915 48.9009 22.7115 44.9909 20.6815 42.9009C14.5215 36.6009 19.2615 22.1709 21.0715 17.0309C20.3315 18.6609 19.5915 20.2809 18.8515 21.9109C20.5915 19.3109 22.3315 16.7209 24.0715 14.1209C22.8715 15.4509 21.6715 16.7809 20.4715 18.1109C27.9815 12.9609 36.5615 10.9409 46.2215 12.0609C45.0215 11.7909 43.8115 11.5209 42.6115 11.2609C46.2015 13.6509 49.2815 16.5809 51.8415 20.0509C54.3315 23.4809 56.2715 27.2109 57.6515 31.2209C58.2115 37.5809 53.7415 43.3909 50.0415 47.9609C49.0215 49.2209 49.4015 53.7409 50.3615 54.9709C51.3915 56.3009 53.6215 55.9809 54.5815 54.7809C58.1515 50.3309 61.2315 46.1909 63.0215 40.6509C63.8415 38.7709 64.2815 36.8109 64.3115 34.7609C64.9615 32.5209 64.7115 30.3609 63.5715 28.2909C61.7915 22.4709 59.0415 17.0009 55.0515 12.3609C53.3515 10.3809 51.2615 7.84093 48.7115 7.02093C43.7915 5.44093 38.3715 5.14093 33.2615 5.46093C30.0715 5.66093 26.3915 5.85093 23.3515 7.00093C21.6415 8.16093 19.9315 9.32093 18.2215 10.4809C17.0415 11.6509 15.8615 12.8209 14.6815 13.9909C12.5715 16.3909 10.7715 18.9409 9.17152 21.6909C1.90152 34.1509 4.29153 54.1609 19.1715 60.1009C22.4315 61.4009 26.7615 61.6209 29.9615 59.7309C31.8815 58.5909 33.5315 56.3009 34.9415 54.6509C38.5215 50.4709 39.0915 48.7509 40.3315 43.2009C40.8315 40.9809 39.4715 40.0109 37.5615 40.5309C36.3815 40.9209 35.5015 41.7209 34.9115 42.9409C33.2715 45.0509 31.7815 47.2609 30.4515 49.5809V49.5509Z" fill="url(#paint8_linear_58_1982)"/>
<path opacity="0.11" d="M44.2515 41.911C42.2415 45.861 40.2415 49.811 38.2315 53.761C39.0515 52.171 39.8615 50.581 40.6815 48.991C40.5215 48.991 40.3715 48.981 40.2115 48.971C42.5715 47.241 44.9315 45.511 47.2915 43.781C43.2315 45.661 39.1615 47.541 35.1015 49.421C37.8615 48.361 40.6115 47.301 43.3715 46.251C37.5015 43.991 31.9115 41.121 26.6115 37.651L36.1415 44.131C33.7215 34.231 32.1515 24.161 31.4215 13.931C31.3815 20.451 31.3415 26.981 31.3115 33.501C34.0315 27.491 36.7515 21.481 39.4615 15.471C37.1215 19.741 34.7915 24.001 32.4515 28.271C36.0015 23.901 39.5515 19.531 43.1015 15.151L33.6315 24.911C37.9115 21.801 42.1915 18.691 46.4715 15.581C42.5915 17.861 38.7115 20.131 34.8315 22.411C39.7515 20.521 44.6615 18.621 49.5815 16.731C45.0215 18.021 40.4615 19.311 35.9015 20.601C40.2915 20.191 44.6915 19.781 49.0815 19.361C46.4615 19.381 43.8415 19.391 41.2215 19.411C46.5415 20.141 51.8515 20.861 57.1715 21.591C53.4415 20.771 49.7015 19.961 45.9715 19.141C50.5815 21.011 55.1915 22.891 59.8015 24.761C56.4815 23.011 53.1715 21.261 49.8515 19.511C53.7615 22.421 57.6815 25.321 61.5915 28.231C58.7315 25.561 55.8715 22.891 53.0015 20.221C54.6115 27.471 56.2215 34.721 57.8315 41.971C57.7515 43.421 57.3315 48.821 59.0515 50.191C60.4415 51.301 61.7515 50.221 62.4415 48.921C65.4315 43.181 67.3615 37.611 67.4415 31.051C67.4915 26.271 65.0715 22.341 62.1815 18.661C53.7715 7.91095 37.4115 5.32095 26.3215 13.201C19.0615 18.361 14.8615 26.241 14.6515 35.211C14.5715 38.791 14.8415 43.001 16.5315 46.231C18.2215 49.461 20.6415 52.461 23.3715 54.871C26.9615 58.031 30.1115 58.721 34.6715 58.691C37.6115 58.671 41.8715 54.561 43.6415 53.051C46.2815 50.811 49.5315 48.541 50.7815 45.221C51.6415 42.941 52.5015 40.671 53.3515 38.391C53.8815 36.991 53.9515 34.881 51.8415 34.951C49.0315 35.041 45.5415 40.271 44.2515 41.891V41.911Z" fill="url(#paint9_linear_58_1982)"/>
<path opacity="0.11" d="M47.0315 65.251C46.6715 66.331 46.3115 67.411 45.9515 68.501C46.8315 67.361 47.7115 66.221 48.5915 65.081C47.1515 66.431 45.7115 67.781 44.2715 69.131C47.1315 67.201 50.0015 65.281 52.8615 63.351C49.5815 64.791 46.2915 66.231 43.0115 67.681C44.9315 67.251 46.8515 66.821 48.7715 66.391C44.7615 66.181 41.3315 65.661 37.6815 63.771C31.5415 61.471 31.4215 55.971 37.3115 47.291C33.8515 35.781 36.9815 30.001 46.7015 29.951C48.1915 30.351 49.5215 31.001 51.0515 31.281C54.3515 30.501 56.7915 31.351 58.3715 33.821C62.3815 38.011 65.5615 42.821 67.9215 48.261C67.0015 46.101 66.0815 43.951 65.1615 41.791C65.9215 45.131 66.6815 48.461 67.4415 51.801C67.1415 49.501 66.8315 47.201 66.5315 44.891C66.4415 48.261 66.3515 51.631 66.2515 55.001C66.1915 57.241 65.4715 61.081 66.8115 62.981C67.2615 63.611 68.7215 65.231 69.6815 63.851C72.5315 59.781 74.8015 56.041 75.9015 51.091C76.9415 46.411 77.1615 41.071 75.5215 36.471C72.2515 27.341 65.2015 21.421 55.8115 19.051C46.5215 16.711 37.0115 19.271 29.7115 25.481C24.3015 30.081 21.3715 35.531 20.3315 42.421C19.4915 47.981 19.1315 55.011 21.6415 60.141C23.4015 63.751 27.0715 67.131 30.2215 69.551C34.4915 72.841 34.6515 72.331 40.5615 72.521C43.1315 73.421 45.5215 73.311 47.7215 72.191C49.3415 71.571 50.8715 70.771 52.3115 69.781C54.1615 68.611 55.9815 67.391 57.5715 65.891C60.1515 63.441 60.7815 60.851 61.9815 57.651C62.0015 56.621 61.5215 55.951 60.5415 55.631C58.9815 55.501 57.5815 55.961 56.3515 57.031C53.2115 58.821 48.2415 61.611 47.0215 65.251H47.0315Z" fill="url(#paint10_linear_58_1982)"/>
<path opacity="0.21" d="M27.2915 62.161C27.0515 63.251 26.8116 64.331 26.5616 65.421C28.1716 63.261 29.7816 61.101 31.3916 58.941C30.0416 60.171 28.7015 61.411 27.3515 62.641C29.5715 61.111 31.7915 59.571 34.0015 58.041C16.5315 61.061 10.9715 57.421 10.3515 40.021C10.3815 41.321 9.67154 37.751 9.70154 39.061C13.3115 30.391 16.2416 19.591 28.1416 19.631C43.2816 19.691 53.1316 27.331 56.6416 46.181C56.7216 45.461 56.8116 44.741 56.8916 44.021C55.0216 49.941 52.5215 53.031 47.6615 56.891C44.8715 59.101 47.6915 68.781 50.9915 65.461C55.6715 60.751 59.4416 56.571 61.3116 50.051C62.5915 45.601 61.8915 40.981 60.4315 36.651C59.2815 33.211 57.8415 30.181 55.9015 27.151C54.8615 25.111 53.4815 23.341 51.7615 21.841C49.5215 18.881 46.4815 17.061 42.6315 16.381C36.9615 14.481 31.2316 13.421 25.2316 13.611C20.5316 13.761 20.0316 14.081 15.5316 17.491C11.6516 20.431 8.20154 23.881 5.20154 27.711C2.40154 30.191 1.04154 33.201 1.13154 36.711C0.581543 39.971 0.551549 43.241 1.05155 46.531C1.47155 50.221 2.04154 54.131 3.34154 57.621C4.88154 61.741 8.57155 65.481 12.0815 68.001C16.9815 71.521 23.5515 73.381 28.7415 69.381C31.6515 67.131 34.4315 64.471 36.8116 61.651C39.3815 58.611 39.6215 56.331 40.5915 52.251C41.2215 49.591 39.9215 48.081 37.2915 49.621C35.2915 51.421 33.4715 53.391 31.8515 55.541C30.1115 57.601 28.5916 59.811 27.2816 62.161H27.2915Z" fill="url(#paint11_linear_58_1982)"/>
<path opacity="0.84" d="M69.2216 27.341C67.3416 23.341 67.0716 19.101 64.1816 15.831C57.1016 7.81102 50.8516 11.231 42.6116 11.231C36.2916 11.231 30.8116 6.81102 25.0716 8.11102C14.1916 10.581 3.31156 30.861 10.3616 40.011C17.5416 49.331 11.2416 58.631 16.5916 64.401C21.4116 69.601 30.3216 70.821 37.6616 71.971C39.3116 72.231 40.9916 72.361 42.7116 72.361C44.4316 72.361 46.1216 72.231 47.7616 71.971C55.4916 70.761 62.3216 66.801 67.2116 61.141C72.1016 55.471 71.9916 47.481 75.0616 40.021C77.8616 33.211 71.2016 31.521 69.2416 27.351L69.2216 27.341Z" fill="url(#paint12_linear_58_1982)"/>
<path d="M51.0715 27.811C49.8415 27.811 48.8515 28.811 48.8515 30.031C48.8515 31.251 49.8515 32.251 51.0715 32.251C52.2915 32.251 53.2915 31.251 53.2915 30.031C53.2915 28.811 52.2915 27.811 51.0715 27.811Z" fill="white"/>
<path d="M41.1815 30.661C36.0315 30.661 31.8416 34.851 31.8416 40.001C31.8416 45.151 36.0315 49.341 41.1815 49.341C46.3315 49.341 50.5215 45.151 50.5215 40.001C50.5215 34.851 46.3315 30.661 41.1815 30.661ZM41.1815 45.981C37.8815 45.981 35.2016 43.301 35.2016 40.001C35.2016 36.701 37.8815 34.021 41.1815 34.021C44.4815 34.021 47.1615 36.701 47.1615 40.001C47.1615 43.301 44.4815 45.981 41.1815 45.981Z" fill="white"/>
<path d="M48.6015 58.961H33.4615C27.1815 58.961 22.0715 53.851 22.0715 47.571V32.431C22.0715 26.151 27.1815 21.041 33.4615 21.041H48.6015C54.8815 21.041 59.9915 26.151 59.9915 32.431V47.571C59.9915 53.851 54.8815 58.961 48.6015 58.961ZM33.4615 24.601C29.1515 24.601 25.6415 28.111 25.6415 32.421V47.561C25.6415 51.871 29.1515 55.381 33.4615 55.381H48.6015C52.9115 55.381 56.4215 51.871 56.4215 47.561V32.421C56.4215 28.111 52.9115 24.601 48.6015 24.601H33.4615Z" fill="white"/>
<defs>
<linearGradient id="paint0_linear_58_1982" x1="69.6315" y1="5.89096" x2="27.2415" y2="79.961" gradientUnits="userSpaceOnUse">
<stop stop-color="#FAE089"/>
<stop offset="0.21" stop-color="#FBBA45"/>
<stop offset="0.38" stop-color="#F65274"/>
<stop offset="0.52" stop-color="#D43691"/>
<stop offset="0.74" stop-color="#8E39CD"/>
<stop offset="1" stop-color="#5B4FE8"/>
</linearGradient>
<linearGradient id="paint1_linear_58_1982" x1="60.5016" y1="0.661008" x2="18.1116" y2="74.741" gradientUnits="userSpaceOnUse">
<stop stop-color="#FAE089"/>
<stop offset="0.21" stop-color="#FBBA45"/>
<stop offset="0.38" stop-color="#F65274"/>
<stop offset="0.52" stop-color="#D43691"/>
<stop offset="0.74" stop-color="#8E39CD"/>
<stop offset="1" stop-color="#5B4FE8"/>
</linearGradient>
<linearGradient id="paint2_linear_58_1982" x1="56.0016" y1="-1.90901" x2="13.6116" y2="72.161" gradientUnits="userSpaceOnUse">
<stop stop-color="#FAE089"/>
<stop offset="0.21" stop-color="#FBBA45"/>
<stop offset="0.38" stop-color="#F65274"/>
<stop offset="0.52" stop-color="#D43691"/>
<stop offset="0.74" stop-color="#8E39CD"/>
<stop offset="1" stop-color="#5B4FE8"/>
</linearGradient>
<linearGradient id="paint3_linear_58_1982" x1="65.8215" y1="3.71097" x2="23.4315" y2="77.781" gradientUnits="userSpaceOnUse">
<stop stop-color="#FAE089"/>
<stop offset="0.21" stop-color="#FBBA45"/>
<stop offset="0.38" stop-color="#F65274"/>
<stop offset="0.52" stop-color="#D43691"/>
<stop offset="0.74" stop-color="#8E39CD"/>
<stop offset="1" stop-color="#5B4FE8"/>
</linearGradient>
<linearGradient id="paint4_linear_58_1982" x1="61.5815" y1="1.281" x2="19.1915" y2="75.361" gradientUnits="userSpaceOnUse">
<stop stop-color="#FAE089"/>
<stop offset="0.21" stop-color="#FBBA45"/>
<stop offset="0.38" stop-color="#F65274"/>
<stop offset="0.52" stop-color="#D43691"/>
<stop offset="0.74" stop-color="#8E39CD"/>
<stop offset="1" stop-color="#5B4FE8"/>
</linearGradient>
<linearGradient id="paint5_linear_58_1982" x1="54.0815" y1="-3.00896" x2="11.6915" y2="71.071" gradientUnits="userSpaceOnUse">
<stop stop-color="#FAE089"/>
<stop offset="0.21" stop-color="#FBBA45"/>
<stop offset="0.38" stop-color="#F65274"/>
<stop offset="0.52" stop-color="#D43691"/>
<stop offset="0.74" stop-color="#8E39CD"/>
<stop offset="1" stop-color="#5B4FE8"/>
</linearGradient>
<linearGradient id="paint6_linear_58_1982" x1="65.2615" y1="3.39098" x2="22.8715" y2="77.461" gradientUnits="userSpaceOnUse">
<stop stop-color="#FAE089"/>
<stop offset="0.21" stop-color="#FBBA45"/>
<stop offset="0.38" stop-color="#F65274"/>
<stop offset="0.52" stop-color="#D43691"/>
<stop offset="0.74" stop-color="#8E39CD"/>
<stop offset="1" stop-color="#5B4FE8"/>
</linearGradient>
<linearGradient id="paint7_linear_58_1982" x1="69.9316" y1="6.061" x2="27.5416" y2="80.131" gradientUnits="userSpaceOnUse">
<stop stop-color="#FAE089"/>
<stop offset="0.21" stop-color="#FBBA45"/>
<stop offset="0.38" stop-color="#F65274"/>
<stop offset="0.52" stop-color="#D43691"/>
<stop offset="0.74" stop-color="#8E39CD"/>
<stop offset="1" stop-color="#5B4FE8"/>
</linearGradient>
<linearGradient id="paint8_linear_58_1982" x1="55.5315" y1="-2.17907" x2="13.1415" y2="71.9009" gradientUnits="userSpaceOnUse">
<stop stop-color="#FAE089"/>
<stop offset="0.21" stop-color="#FBBA45"/>
<stop offset="0.38" stop-color="#F65274"/>
<stop offset="0.52" stop-color="#D43691"/>
<stop offset="0.74" stop-color="#8E39CD"/>
<stop offset="1" stop-color="#5B4FE8"/>
</linearGradient>
<linearGradient id="paint9_linear_58_1982" x1="60.3315" y1="0.560954" x2="17.9415" y2="74.6409" gradientUnits="userSpaceOnUse">
<stop stop-color="#FAE089"/>
<stop offset="0.21" stop-color="#FBBA45"/>
<stop offset="0.38" stop-color="#F65274"/>
<stop offset="0.52" stop-color="#D43691"/>
<stop offset="0.74" stop-color="#8E39CD"/>
<stop offset="1" stop-color="#5B4FE8"/>
</linearGradient>
<linearGradient id="paint10_linear_58_1982" x1="70.7215" y1="6.51102" x2="28.3315" y2="80.591" gradientUnits="userSpaceOnUse">
<stop stop-color="#FAE089"/>
<stop offset="0.21" stop-color="#FBBA45"/>
<stop offset="0.38" stop-color="#F65274"/>
<stop offset="0.52" stop-color="#D43691"/>
<stop offset="0.74" stop-color="#8E39CD"/>
<stop offset="1" stop-color="#5B4FE8"/>
</linearGradient>
<linearGradient id="paint11_linear_58_1982" x1="56.4715" y1="-1.63905" x2="14.0816" y2="72.431" gradientUnits="userSpaceOnUse">
<stop stop-color="#FAE089"/>
<stop offset="0.21" stop-color="#FBBA45"/>
<stop offset="0.38" stop-color="#F65274"/>
<stop offset="0.52" stop-color="#D43691"/>
<stop offset="0.74" stop-color="#8E39CD"/>
<stop offset="1" stop-color="#5B4FE8"/>
</linearGradient>
<linearGradient id="paint12_linear_58_1982" x1="62.0116" y1="1.53102" x2="19.6216" y2="75.601" gradientUnits="userSpaceOnUse">
<stop stop-color="#FAE089"/>
<stop offset="0.21" stop-color="#FBBA45"/>
<stop offset="0.38" stop-color="#F65274"/>
<stop offset="0.52" stop-color="#D43691"/>
<stop offset="0.74" stop-color="#8E39CD"/>
<stop offset="1" stop-color="#5B4FE8"/>
</linearGradient>
</defs>
</svg>
