<svg width="79" height="81" viewBox="0 0 79 81" fill="none" xmlns="http://www.w3.org/2000/svg">
<g clip-path="url(#clip0_68_2762)">
<path opacity="0.11" d="M42.141 71.1C41.221 72.4 40.311 73.69 39.391 74.99C42.251 73.22 45.121 71.44 47.981 69.67C44.661 71 41.341 72.32 38.021 73.65C39.871 73.35 41.7109 73.04 43.5609 72.74C35.3209 71.94 24.531 69.91 22.131 59.32C18.731 44.31 25.4109 33.63 42.691 25.84L40.521 26.08C43.961 26.36 46.811 26.76 49.901 28.46C55.421 31.49 60.201 36.9 62.201 42.9C62.721 44.46 63.481 45.93 64.011 47.49C65.181 50.93 64.391 54.1 63.331 57.39C62.341 60.46 61.311 66.27 62.611 69.35C63.621 71.73 65.4909 71.25 66.8209 69.6C69.491 66.3 71.141 64.27 72.701 60.26C74.801 54.84 75.091 47.36 73.331 41.81C70.951 34.3 66.761 29.34 60.141 25.21C55.451 22.28 50.311 20.16 44.681 20.17C37.871 20.17 31.281 23.96 26.161 28.2C23.081 30.75 19.511 34.21 17.591 37.71C15.671 41.21 15.291 45.24 14.881 49.16C14.341 54.34 14.331 59.69 15.811 64.75C16.971 68.73 21.491 72.29 24.781 74.86C27.231 76.77 30.761 78.75 33.871 79.72C36.811 80.63 41.071 79.06 43.701 77.88C46.801 76.49 50.131 74.87 52.541 72.42C54.991 69.92 55.891 67.4 57.121 64.15C57.171 63.13 56.711 62.44 55.751 62.08C54.221 61.88 52.821 62.29 51.571 63.3C48.511 64.9 43.3009 67.55 42.1309 71.09L42.141 71.1Z" fill="url(#paint0_linear_68_2762)"/>
<path opacity="0.11" d="M34.091 62.08C33.841 63.16 33.601 64.25 33.351 65.33C34.801 63.27 36.251 61.22 37.701 59.16C35.941 61.15 34.181 63.13 32.421 65.12C37.161 60.78 41.901 56.44 46.641 52.1C42.181 55.66 37.711 59.21 33.251 62.77C38.501 59.12 43.741 55.48 48.991 51.83C41.661 55.32 34.331 58.82 27.001 62.31C32.591 60.34 38.171 58.37 43.761 56.41C37.161 57.85 30.551 59.3 23.951 60.74C29.521 59.83 35.091 58.92 40.651 58.01C36.181 58.05 31.711 58.1 27.231 58.14C30.701 58.33 34.171 58.52 37.631 58.7C33.381 57.81 29.121 56.92 24.871 56.03C28.251 56.88 31.621 57.72 35.001 58.57C30.721 56.78 26.431 55 22.151 53.21C24.901 54.6 27.651 55.99 30.391 57.38C27.031 54.95 23.671 52.52 20.311 50.09C22.451 51.93 24.591 53.76 26.731 55.6C24.231 52.69 21.741 49.78 19.241 46.88C20.821 49.11 22.391 51.33 23.971 53.56C21.531 48.8 19.101 44.05 16.661 39.29C18.431 43.35 20.211 47.41 21.981 51.47C21.701 45.89 21.431 40.31 21.151 34.73C20.961 36.99 20.781 39.25 20.591 41.51C21.521 37.98 22.451 34.45 23.381 30.92C22.661 33.01 21.941 35.1 21.221 37.19C22.861 34.1 24.501 31.02 26.141 27.93C24.891 29.83 23.641 31.73 22.391 33.63C32.541 24.85 40.091 24.02 45.071 31.14C48.181 33.96 49.431 37.69 48.811 42.33C48.861 45.35 49.171 48.34 49.741 51.31C50.051 53.69 50.551 56.03 51.261 58.31C51.641 59.64 53.421 64.16 55.371 61.32C59.801 54.87 63.621 48.06 62.531 39.86C61.621 32.99 56.291 23.65 49.781 20.56C43.191 17.43 32.641 16.18 25.901 19.26C22.691 20.73 19.491 23.91 17.241 26.58C14.811 29.58 12.751 32.82 11.061 36.29C10.081 39.85 9.69095 43.47 9.87095 47.16C10.101 52.73 11.251 57.64 14.761 62.05C16.771 64.57 19.171 66.65 21.951 68.27C25.271 70.43 28.891 70.75 32.811 69.24C36.471 68.91 42.661 62.53 44.691 60.73C46.451 59.13 48.211 57.52 49.971 55.92C52.081 54.36 53.651 52.41 54.701 50.07C55.721 47.62 56.141 45.07 55.941 42.41C56.191 37.04 47.981 45.38 48.081 45.28C44.671 48.65 41.391 52.14 38.251 55.77C36.291 57.54 34.911 59.65 34.081 62.1L34.091 62.08Z" fill="url(#paint1_linear_68_2762)"/>
<path opacity="0.11" d="M30.721 50.93C30.511 51.81 30.291 52.69 30.081 53.57L32.911 48.68C30.441 48.36 27.971 48.03 25.501 47.71C24.841 46.88 24.181 46.06 23.511 45.23C20.001 39.71 18.691 32.39 19.521 26C19.581 24.31 19.951 22.68 20.621 21.12C21.291 17.76 23.341 15.27 26.771 13.66C29.511 9.16999 33.451 7.13999 38.601 7.55999C43.101 6.22999 47.621 6.17999 52.171 7.40999C51.221 7.07999 50.281 6.73999 49.331 6.40999C52.801 9.00999 55.741 12.11 58.141 15.72C60.941 19.07 62.1609 22.9 61.811 27.22C63.041 31.28 62.541 35.13 60.301 38.75C58.451 42.72 56.061 46.32 53.111 49.57C50.881 52.44 55.901 55.14 57.841 52.6C61.591 47.71 64.871 43.05 66.971 37.15C67.901 35.1 68.471 32.96 68.691 30.72C69.561 28.44 69.441 26.2 68.311 24.01C66.751 18.24 64.251 12.76 60.481 8.05999C58.951 6.15999 56.921 3.57999 54.661 2.51999C51.911 1.22999 48.051 0.919992 44.961 0.499992C40.091 -0.150008 32.961 -0.510008 28.441 1.39999C21.571 4.29999 16.151 9.85999 12.381 16.15C7.65095 24.03 5.92095 34.3 9.64095 43C12.281 49.14 16.951 56.02 23.891 57.64C26.891 58.34 30.171 58.72 32.741 56.67C35.801 54.22 37.301 51.6 37.951 47.76C38.211 46.23 35.661 44.95 34.451 45.39C32.571 46.08 31.151 49.14 30.721 50.91V50.93Z" fill="url(#paint2_linear_68_2762)"/>
<path opacity="0.11" d="M44.971 57.6C44.731 58.68 44.501 59.75 44.261 60.83C44.651 60.11 45.031 59.39 45.421 58.67C44.781 59.4 44.131 60.13 43.491 60.86C48.201 57.07 52.921 53.27 57.631 49.48C52.151 52.86 46.661 56.23 41.181 59.61C46.551 57.07 51.931 54.53 57.301 52C49.951 53.89 42.611 55.78 35.261 57.67C40.641 56.9 46.021 56.13 51.401 55.36C45.511 53.77 39.621 52.18 33.721 50.59C36.721 51.93 39.731 53.26 42.731 54.6C39.321 52.35 35.911 50.1 32.511 47.85C35.131 49.72 37.751 51.59 40.371 53.45C36.991 49.02 34.461 44.1 32.801 38.68C33.971 41.82 35.151 44.96 36.321 48.09C35.521 44.04 34.731 40 33.931 35.95C34.401 39.25 34.881 42.54 35.351 45.84C35.471 43.84 35.581 41.84 35.701 39.84C35.261 41.95 34.811 44.07 34.371 46.18C34.831 45.15 35.281 44.12 35.741 43.1C35.311 43.77 34.881 44.44 34.451 45.11C42.221 38.23 49.981 31.35 57.751 24.47C50.001 28.44 42.251 32.41 34.501 36.38C44.901 37.41 55.301 38.44 65.701 39.47C57.871 35.68 50.041 31.89 42.211 28.1C44.121 43.45 50.581 52.98 61.581 56.7C62.081 57.1 62.491 57.02 62.801 56.45C64.721 55.34 63.451 50.7 63.231 49C62.461 43.05 60.791 37.42 59.271 31.66C61.581 38.29 63.891 44.93 66.201 51.56C66.821 50.03 67.4409 48.5 68.0709 46.98C71.1709 37.73 67.781 28.77 60.821 22.34C54.331 16.34 42.181 15.57 34.721 19.78C29.511 22.72 24.631 27.41 22.281 33.05C20.831 36.52 20.471 41.19 20.671 45.01C20.891 46.7 21.101 48.39 21.321 50.08C27.281 56.17 34.311 60.94 42.391 64.4C45.591 66.5 50.421 61.43 52.781 59.7C55.521 57.75 58.171 55.68 60.731 53.51C62.821 52.17 64.411 50.41 65.481 48.24C66.661 45.84 67.241 43.31 67.241 40.64C67.841 35.45 59.451 42.65 59.451 42.65C55.961 45.59 52.601 48.66 49.361 51.88C47.361 53.42 45.901 55.33 44.991 57.62L44.971 57.6Z" fill="url(#paint3_linear_68_2762)"/>
<path opacity="0.11" d="M36.661 51.72C36.421 52.4 36.171 53.09 35.931 53.77C36.731 52.89 37.531 52 38.341 51.12C31.331 54.07 24.731 43.41 24.151 37.33C23.781 33.47 25.001 29.88 26.741 26.48C29.451 22.23 32.161 17.98 34.861 13.73C41.201 8.68 48.741 6.71 57.491 7.8L53.191 7.07C62.291 11.05 68.811 17.29 72.741 25.78C72.481 24.9 72.221 24.01 71.961 23.13C71.761 27.32 70.891 31.37 69.361 35.27C67.711 39.48 65.471 43.35 62.651 46.89C61.971 47.88 61.491 49.84 62.421 50.87C63.081 51.6 65.961 52 66.631 51.11C70.351 46.18 73.641 41.45 75.801 35.58C76.751 33.53 77.351 31.38 77.611 29.14C78.241 27.69 78.401 26.22 78.081 24.73C76.741 19.63 72.941 14.27 69.671 10.46C65.731 5.88 62.011 2.36 55.821 1.12C51.991 0.35 47.921 -0.0100002 44.021 0.35C35.381 1.15 26.611 4.97 21.601 12.42C16.411 20.15 13.361 29.89 15.621 39.1C17.221 45.64 21.041 51.9 26.821 55.52C31.851 58.67 39.841 60.19 42.021 53.19C42.941 50.24 37.921 48.25 36.681 51.72H36.661Z" fill="url(#paint4_linear_68_2762)"/>
<path opacity="0.18" d="M26.901 55.28C26.331 57.1 25.771 58.92 25.201 60.74C26.311 58.88 27.421 57.01 28.531 55.15C27.241 56.84 25.951 58.53 24.651 60.22C27.031 57.64 29.401 55.07 31.781 52.49C28.971 54.64 25.781 55.58 22.191 55.28C19.421 54.26 17.111 52.65 15.271 50.44C13.381 48.75 11.871 46.75 10.771 44.43C6.75095 31.28 10.911 20.7 23.241 12.7C22.491 13.16 21.741 13.62 21.001 14.08C25.201 13.44 29.391 13.47 33.581 14.18C38.001 14.93 42.211 16.31 46.221 18.31C49.091 21.13 51.361 24.38 53.041 28.05C57.921 37.76 55.661 47.36 46.251 56.86C45.401 57.75 46.161 61.26 47.071 61.94C48.231 62.8 50.361 62.32 51.241 61.26C56.691 54.71 61.431 47.97 61.391 39.04C61.361 31.94 57.901 24.06 53.681 18.44C51.891 15.17 49.291 13 45.861 11.96C42.611 10.26 39.171 9.05004 35.541 8.33004C31.0009 7.30004 26.421 7.02004 21.791 7.47004C19.461 8.33004 17.381 9.66004 15.551 11.44C8.33095 17.09 1.29095 25.18 0.720953 34.69C0.490953 38.49 0.640953 42.49 1.32095 46.22C3.29095 56.91 12.841 69.13 24.901 65.74C27.051 65.14 28.321 63.69 29.811 62.06C31.381 60.34 34.441 57.53 34.991 55.22C35.451 53.3 35.901 51.38 36.361 49.45C36.861 47.32 35.331 46.37 33.561 46.82C30.831 47.51 28.031 53.02 26.891 55.26L26.901 55.28Z" fill="url(#paint5_linear_68_2762)"/>
<path opacity="0.11" d="M35.181 72.13C34.851 73.23 34.521 74.33 34.181 75.43C35.051 74.26 35.931 73.09 36.801 71.92C35.371 73.26 33.931 74.61 32.501 75.95C35.411 73.96 38.321 71.97 41.231 69.98L31.491 74.03C33.461 73.62 35.431 73.2 37.401 72.79C35.631 72.73 33.861 72.66 32.091 72.6C26.321 68.61 20.541 64.61 14.771 60.62C13.131 55.77 13.651 49.84 14.471 44.95C14.341 42.69 15.141 40.84 16.861 39.4C18.041 37.6 19.481 36.04 21.181 34.72C31.671 25.03 40.681 23.47 57.781 33.62C57.251 33.12 56.731 32.63 56.201 32.13C57.961 35.88 59.721 39.63 61.491 43.39C61.721 46.23 61.641 49.07 61.241 51.89C61.5009 53.99 61.121 55.92 60.081 57.68C59.341 59.61 58.2509 61.33 56.811 62.84C55.631 64.46 55.3909 70.02 56.381 71.76C57.371 73.49 59.421 73.35 60.601 71.96C64.841 66.98 68.541 61.85 69.361 55.12C70.081 49.18 69.281 42.44 66.581 37.05C63.6609 31.21 58.911 27.66 53.091 24.98C47.261 22.29 39.871 20.51 33.431 21.64C28.791 22.45 22.871 26.09 19.281 29.08C17.491 30.72 15.711 32.37 13.921 34.01C10.921 36.32 9.23095 39.28 8.86095 42.87C7.45095 48.58 6.99095 54.32 7.51095 60.18C7.33095 64.94 9.16095 68.74 12.991 71.57C14.571 72.9 16.151 74.22 17.731 75.55C19.961 77.2 23.121 78.92 25.761 79.89C27.411 80.67 29.141 80.69 30.951 79.94C33.231 80.06 35.341 79.55 37.291 78.41C40.301 76.86 43.771 74.99 46.021 72.44C48.321 69.82 49.051 67.28 50.021 63.95C50.021 62.92 49.511 62.26 48.521 61.97C46.941 61.89 45.551 62.41 44.341 63.52C41.241 65.43 36.301 68.39 35.181 72.1V72.13Z" fill="url(#paint6_linear_68_2762)"/>
<path opacity="0.11" d="M48.121 57.92C47.771 58.67 47.421 59.43 47.071 60.18C48.831 59.37 50.591 58.56 52.341 57.75C49.071 58.81 45.631 59.35 42.411 57.98C41.281 57.31 40.161 56.64 39.031 55.98C33.541 49.59 32.521 43.41 35.961 37.44C36.011 35.16 36.961 33.69 38.801 33C39.561 32.72 40.191 32.28 40.711 31.68C41.841 30.45 43.281 29.67 45.031 29.34C49.851 26.64 55.141 25.49 60.891 25.89C58.131 26.08 55.371 26.27 52.611 26.47C56.361 26.9 60.111 27.33 63.871 27.77C61.261 27.25 58.641 26.72 56.031 26.2C59.321 27.52 62.601 28.84 65.891 30.16C63.481 28.97 61.081 27.79 58.671 26.6C61.471 28.68 64.271 30.75 67.071 32.83C64.921 31.02 62.771 29.21 60.621 27.4C63.301 30.67 65.991 33.95 68.671 37.22C67.221 35.24 65.771 33.26 64.321 31.28C66.041 34.69 67.761 38.11 69.481 41.52C68.691 39.44 67.891 37.35 67.101 35.27C68.171 39.92 69.241 44.58 70.321 49.23C69.901 45.87 69.491 42.5 69.071 39.14C68.661 44.25 68.541 49.36 68.701 54.47C68.531 55.23 68.661 55.92 69.091 56.54C69.681 57.56 70.721 58.22 71.901 57.56C74.231 56.26 73.381 51.71 74.311 49.95C75.031 48.98 75.751 48.01 76.471 47.03C76.771 45.14 77.081 43.26 77.381 41.37C78.531 31.37 73.781 22.68 65.661 17.09C61.141 13.97 54.021 12.08 48.531 12.75C43.181 13.4 38.601 15.43 34.311 18.69C25.871 25.11 22.081 34.88 22.711 45.4C23.011 50.45 24.121 54.49 27.591 58.46C29.991 61.2 32.751 63.85 36.041 65.47C40.411 67.63 44.311 67.85 48.841 65.67C51.271 64.5 53.581 62.82 55.601 61.02C58.041 58.86 59.321 56.52 60.231 53.4C60.841 51.32 60.051 49.54 57.541 50.15C55.711 51.09 54.021 52.24 52.471 53.61C50.831 54.87 49.381 56.31 48.121 57.94V57.92Z" fill="url(#paint7_linear_68_2762)"/>
<path opacity="0.28" d="M30.841 49.5299C30.251 51.3799 29.651 53.2299 29.061 55.0899C30.251 53.1099 31.451 51.1199 32.641 49.1399C31.311 50.9199 29.981 52.6899 28.661 54.4699C31.181 51.6799 33.701 48.8899 36.211 46.0999C33.631 47.9599 30.791 49.2599 27.681 49.9999C29.211 49.7099 30.741 49.4199 32.281 49.1199C29.781 48.8799 23.101 44.9699 21.071 42.8799C14.911 36.5799 19.651 22.1499 21.461 17.0099C20.721 18.6399 19.981 20.2599 19.241 21.8899C20.981 19.2899 22.721 16.6999 24.461 14.0999C23.261 15.4299 22.061 16.7599 20.861 18.0899C28.371 12.9399 36.951 10.9199 46.611 12.0399L43.001 11.2399C46.591 13.6299 49.671 16.5599 52.231 20.0299C54.721 23.4599 56.6609 27.1899 58.041 31.1999C58.601 37.5599 54.131 43.3699 50.431 47.9399C49.411 49.1999 49.791 53.7199 50.751 54.9499C51.781 56.2799 54.011 55.9599 54.971 54.7599C58.541 50.3099 61.621 46.1699 63.411 40.6299C64.231 38.7499 64.671 36.7899 64.701 34.7399C65.351 32.4999 65.101 30.3399 63.961 28.2699C62.181 22.4499 59.431 16.9799 55.441 12.3399C53.741 10.3599 51.651 7.81994 49.101 6.99994C44.181 5.41994 38.761 5.11994 33.651 5.43994C30.461 5.63994 26.781 5.82994 23.741 6.97994C22.031 8.13994 20.321 9.29994 18.611 10.4599C17.431 11.6299 16.251 12.7999 15.071 13.9699C12.961 16.3699 11.161 18.9199 9.56095 21.6699C2.29095 34.1299 4.68095 54.1399 19.561 60.0799C22.821 61.3799 27.151 61.5999 30.351 59.7099C32.271 58.5699 33.921 56.2799 35.331 54.6299C38.9109 50.4499 39.4809 48.7299 40.721 43.1799C41.221 40.9599 39.861 39.9899 37.951 40.5099C36.771 40.8999 35.891 41.6999 35.301 42.9199C33.661 45.0299 32.181 47.2399 30.841 49.5599V49.5299Z" fill="url(#paint8_linear_68_2762)"/>
<path opacity="0.11" d="M44.6409 41.89C42.6309 45.84 40.6309 49.79 38.6209 53.74C39.4409 52.15 40.2509 50.56 41.0709 48.97C40.9109 48.97 40.7609 48.96 40.6009 48.95C42.9609 47.22 45.3209 45.49 47.681 43.76C43.621 45.64 39.5509 47.52 35.4909 49.4C38.2509 48.34 41.0009 47.28 43.7609 46.23C37.8909 43.97 32.3009 41.1 27.0009 37.63L36.5309 44.11C34.1109 34.21 32.5409 24.14 31.8109 13.91C31.7709 20.43 31.7309 26.96 31.7009 33.48L39.8509 15.45C37.5109 19.72 35.181 23.98 32.841 28.25L43.4909 15.13C40.3309 18.38 37.181 21.64 34.021 24.89C38.301 21.78 42.5809 18.67 46.861 15.56C42.9809 17.84 39.1009 20.11 35.2209 22.39C40.1409 20.5 45.0509 18.6 49.9709 16.71L36.2909 20.58C40.6809 20.17 45.0809 19.76 49.4709 19.34C46.8509 19.36 44.2309 19.37 41.611 19.39C46.931 20.12 52.2409 20.84 57.5609 21.57C53.8309 20.75 50.091 19.94 46.361 19.12C50.971 20.99 55.5809 22.87 60.1909 24.74C56.8709 22.99 53.5609 21.24 50.2409 19.49C54.1509 22.4 58.0709 25.3 61.9809 28.21L53.3909 20.2C55.0009 27.45 56.6109 34.7 58.2209 41.95C58.1409 43.4 57.7209 48.8 59.4409 50.17C60.8309 51.28 62.1409 50.2 62.8309 48.9C65.8209 43.16 67.7509 37.59 67.8309 31.03C67.8809 26.25 65.4609 22.32 62.5709 18.64C54.1609 7.88996 37.8009 5.29996 26.7109 13.18C19.4509 18.34 15.2509 26.22 15.0409 35.19C14.9609 38.77 15.2309 42.99 16.9209 46.21C18.6109 49.44 21.0309 52.44 23.7609 54.85C27.3509 58.01 30.5009 58.7 35.0609 58.67C38.0009 58.65 42.2609 54.54 44.0309 53.03C46.6709 50.78 49.9209 48.52 51.1709 45.2C52.0309 42.92 52.8909 40.65 53.7409 38.37C54.2709 36.97 54.341 34.86 52.2309 34.93C49.4209 35.02 45.931 40.25 44.6409 41.87V41.89Z" fill="url(#paint9_linear_68_2762)"/>
<path opacity="0.11" d="M47.4209 65.23C47.0609 66.31 46.701 67.39 46.341 68.48C47.221 67.34 48.101 66.2 48.981 65.06L44.661 69.11C47.521 67.18 50.391 65.26 53.251 63.33C49.971 64.77 46.681 66.21 43.4009 67.66L49.161 66.37C45.151 66.16 41.721 65.64 38.071 63.75C31.931 61.45 31.811 55.95 37.701 47.27C34.241 35.76 37.371 29.98 47.091 29.93C48.581 30.33 49.9109 30.98 51.441 31.26C54.741 30.48 57.181 31.33 58.761 33.8C62.771 37.99 65.951 42.8 68.311 48.24C67.391 46.08 66.471 43.93 65.551 41.77C66.311 45.11 67.071 48.44 67.831 51.78C67.531 49.48 67.221 47.18 66.921 44.87C66.831 48.24 66.7409 51.61 66.6409 54.98C66.5809 57.22 65.861 61.06 67.201 62.96C67.651 63.59 69.111 65.21 70.0709 63.83C72.9209 59.76 75.191 56.02 76.291 51.07C77.331 46.39 77.551 41.05 75.911 36.45C72.641 27.32 65.591 21.4 56.201 19.03C46.911 16.69 37.401 19.25 30.101 25.46C24.691 30.06 21.761 35.51 20.721 42.4C19.881 47.96 19.521 54.99 22.031 60.12C23.791 63.73 27.461 67.11 30.611 69.53C34.881 72.82 35.041 72.31 40.951 72.5C43.521 73.4 45.911 73.29 48.111 72.17C49.731 71.55 51.261 70.75 52.701 69.76C54.551 68.59 56.371 67.37 57.961 65.87C60.541 63.42 61.171 60.83 62.371 57.63C62.391 56.6 61.911 55.93 60.931 55.61C59.371 55.48 57.971 55.94 56.741 57.01C53.601 58.8 48.631 61.59 47.411 65.23H47.4209Z" fill="url(#paint10_linear_68_2762)"/>
<path opacity="0.21" d="M27.681 62.14C27.441 63.23 27.201 64.31 26.951 65.4C28.561 63.24 30.1709 61.08 31.781 58.92C30.431 60.15 29.091 61.39 27.741 62.62C29.961 61.09 32.181 59.55 34.391 58.02C16.921 61.04 11.361 57.4 10.741 40C10.771 41.3 10.071 37.73 10.091 39.04C13.701 30.37 16.631 19.57 28.531 19.61C43.671 19.67 53.521 27.31 57.031 46.16C57.111 45.44 57.201 44.72 57.281 44C55.411 49.92 52.911 53.01 48.051 56.87C45.271 59.08 48.081 68.76 51.381 65.44C56.061 60.73 59.831 56.55 61.701 50.03C62.981 45.58 62.281 40.96 60.821 36.63C59.671 33.19 58.2309 30.16 56.291 27.13C55.2509 25.09 53.871 23.32 52.151 21.82C49.9109 18.86 46.871 17.04 43.021 16.36C37.351 14.46 31.621 13.4 25.621 13.59C20.921 13.74 20.421 14.06 15.921 17.47C12.041 20.41 8.59095 23.87 5.59095 27.69C2.79095 30.17 1.43095 33.18 1.52095 36.69C0.970951 39.95 0.940951 43.22 1.44095 46.51C1.86095 50.2 2.43095 54.11 3.73095 57.6C5.26095 61.72 8.96095 65.46 12.471 67.98C17.371 71.5 23.941 73.36 29.131 69.36C32.041 67.11 34.821 64.45 37.201 61.63C39.781 58.59 40.011 56.31 40.981 52.23C41.611 49.57 40.311 48.06 37.681 49.6C35.681 51.4 33.861 53.37 32.241 55.52C30.501 57.58 28.9809 59.79 27.6709 62.14H27.681Z" fill="url(#paint11_linear_68_2762)"/>
<path opacity="0.9" d="M69.611 27.32C67.731 23.32 67.461 19.08 64.571 15.81C57.491 7.79002 51.241 11.21 43.001 11.21C36.681 11.21 31.201 6.79002 25.461 8.09002C14.581 10.56 3.70096 30.84 10.751 39.99C17.931 49.31 11.631 58.61 16.981 64.38C21.801 69.58 30.711 70.8 38.051 71.95C39.701 72.21 41.381 72.34 43.101 72.34C44.821 72.34 46.511 72.21 48.151 71.95C55.881 70.74 62.701 66.78 67.601 61.12C72.491 55.45 72.381 47.46 75.451 40C78.251 33.19 71.591 31.5 69.631 27.33L69.611 27.32Z" fill="url(#paint12_linear_68_2762)"/>
<path d="M61.0833 40C61.0833 29.4143 52.3159 20.8334 41.5 20.8334C30.6841 20.8334 21.9167 29.4143 21.9167 40C21.9167 50.5858 30.6841 59.1667 41.5 59.1667" stroke="white" stroke-width="2.5" stroke-linecap="round" stroke-linejoin="round"/>
<path d="M43.4583 20.9292C43.4583 20.9292 49.3333 28.5 49.3333 40M39.5417 59.0709C39.5417 59.0709 33.6667 51.5 33.6667 40C33.6667 28.5 39.5417 20.9292 39.5417 20.9292M23.1504 46.7084H41.5M23.1504 33.2917H59.8496" stroke="white" stroke-width="2.5" stroke-linecap="round" stroke-linejoin="round"/>
<path d="M60.8464 51.341C61.8138 51.9236 61.7531 53.3401 60.7583 53.4512L55.7312 54.009L53.4772 58.4403C53.0307 59.3201 51.65 58.8888 51.4209 57.8001L48.9632 46.0778C48.7693 45.1578 49.6153 44.579 50.432 45.0716L60.8464 51.341Z" stroke="white" stroke-width="2.5"/>
</g>
<defs>
<linearGradient id="paint0_linear_68_2762" x1="74.651" y1="16.59" x2="26.701" y2="70.82" gradientUnits="userSpaceOnUse">
<stop stop-color="#60FB7C"/>
<stop offset="1" stop-color="#4AB061"/>
</linearGradient>
<linearGradient id="paint1_linear_68_2762" x1="66.721" y1="9.58001" x2="18.771" y2="63.81" gradientUnits="userSpaceOnUse">
<stop stop-color="#60FB7C"/>
<stop offset="1" stop-color="#4AB061"/>
</linearGradient>
<linearGradient id="paint2_linear_68_2762" x1="61.021" y1="4.53" x2="13.071" y2="58.77" gradientUnits="userSpaceOnUse">
<stop stop-color="#60FB7C"/>
<stop offset="1" stop-color="#4AB061"/>
</linearGradient>
<linearGradient id="paint3_linear_68_2762" x1="70.1509" y1="12.6" x2="22.1909" y2="66.84" gradientUnits="userSpaceOnUse">
<stop stop-color="#60FB7C"/>
<stop offset="1" stop-color="#4AB061"/>
</linearGradient>
<linearGradient id="paint4_linear_68_2762" x1="64.971" y1="8.02" x2="17.011" y2="62.26" gradientUnits="userSpaceOnUse">
<stop stop-color="#60FB7C"/>
<stop offset="1" stop-color="#4AB061"/>
</linearGradient>
<linearGradient id="paint5_linear_68_2762" x1="60.961" y1="4.48003" x2="13.001" y2="58.71" gradientUnits="userSpaceOnUse">
<stop stop-color="#60FB7C"/>
<stop offset="1" stop-color="#4AB061"/>
</linearGradient>
<linearGradient id="paint6_linear_68_2762" x1="71.6409" y1="13.92" x2="23.6809" y2="68.16" gradientUnits="userSpaceOnUse">
<stop stop-color="#60FB7C"/>
<stop offset="1" stop-color="#4AB061"/>
</linearGradient>
<linearGradient id="paint7_linear_68_2762" x1="73.071" y1="15.19" x2="25.111" y2="69.42" gradientUnits="userSpaceOnUse">
<stop stop-color="#60FB7C"/>
<stop offset="1" stop-color="#4AB061"/>
</linearGradient>
<linearGradient id="paint8_linear_68_2762" x1="61.211" y1="4.69994" x2="13.261" y2="58.9399" gradientUnits="userSpaceOnUse">
<stop stop-color="#60FB7C"/>
<stop offset="1" stop-color="#4AB061"/>
</linearGradient>
<linearGradient id="paint9_linear_68_2762" x1="64.831" y1="7.89996" x2="16.871" y2="62.13" gradientUnits="userSpaceOnUse">
<stop stop-color="#60FB7C"/>
<stop offset="1" stop-color="#4AB061"/>
</linearGradient>
<linearGradient id="paint10_linear_68_2762" x1="74.681" y1="16.61" x2="26.721" y2="70.84" gradientUnits="userSpaceOnUse">
<stop stop-color="#60FB7C"/>
<stop offset="1" stop-color="#4AB061"/>
</linearGradient>
<linearGradient id="paint11_linear_68_2762" x1="63.641" y1="6.84996" x2="15.691" y2="61.09" gradientUnits="userSpaceOnUse">
<stop stop-color="#60FB7C"/>
<stop offset="1" stop-color="#4AB061"/>
</linearGradient>
<linearGradient id="paint12_linear_68_2762" x1="66.751" y1="9.59002" x2="18.791" y2="63.83" gradientUnits="userSpaceOnUse">
<stop stop-color="#60FB7C"/>
<stop offset="1" stop-color="#4AB061"/>
</linearGradient>
<clipPath id="clip0_68_2762">
<rect width="77.61" height="80.51" fill="white" transform="translate(0.620956)"/>
</clipPath>
</defs>
</svg>
