<svg width="24" height="24" viewBox="0 0 24 24" fill="none" xmlns="http://www.w3.org/2000/svg">
<circle cx="12" cy="12" r="12" fill="#F1FFFC"/>
<path d="M12 5.62495C12.082 5.62395 12.1632 5.64012 12.2386 5.67241C12.3139 5.7047 12.3817 5.7524 12.4375 5.81245L18.0625 11.4375C18.3125 11.6875 18.3125 12.075 18.0625 12.325C17.8125 12.575 17.425 12.575 17.175 12.325L11.9875 7.13745L6.8125 12.3125C6.5625 12.5625 6.175 12.5625 5.925 12.3125C5.675 12.0625 5.675 11.675 5.925 11.425L11.55 5.79995C11.675 5.67495 11.8375 5.61245 11.9875 5.61245L12 5.62495Z" fill="#1FAB89"/>
<path d="M12 10.375C12.082 10.374 12.1632 10.3901 12.2386 10.4224C12.3139 10.4547 12.3817 10.5024 12.4375 10.5625L18.0625 16.1875C18.3125 16.4375 18.3125 16.825 18.0625 17.075C17.8125 17.325 17.425 17.325 17.175 17.075L11.9875 11.8875L6.8125 17.0625C6.5625 17.3125 6.175 17.3125 5.925 17.0625C5.675 16.8125 5.675 16.425 5.925 16.175L11.55 10.55C11.675 10.425 11.8375 10.3625 11.9875 10.3625L12 10.375Z" fill="#1FAB89"/>
</svg>
