<svg width="19" height="16" viewBox="0 0 19 16" fill="none" xmlns="http://www.w3.org/2000/svg">
<path d="M6.07202 15.44C13.168 15.44 17.048 9.56004 17.048 4.46404C17.048 4.29604 17.048 4.12804 17.04 3.96804C17.792 3.42404 18.448 2.74404 18.968 1.96803C18.28 2.27204 17.536 2.48003 16.752 2.57603C17.552 2.09603 18.16 1.34403 18.448 0.440034C17.704 0.880034 16.88 1.20003 16 1.37603C15.296 0.624034 14.296 0.160034 13.184 0.160034C11.056 0.160034 9.32803 1.88803 9.32803 4.01603C9.32803 4.32003 9.36003 4.61603 9.43202 4.89603C6.22403 4.73603 3.38403 3.20004 1.48003 0.864035C1.15203 1.43203 0.960026 2.09603 0.960026 2.80003C0.960026 4.13603 1.64003 5.32004 2.68003 6.00804C2.04803 5.99204 1.45603 5.81604 0.936025 5.52804C0.936025 5.54404 0.936025 5.56003 0.936025 5.57604C0.936025 7.44804 2.26402 9.00004 4.03203 9.36004C3.71203 9.44804 3.36803 9.49604 3.01603 9.49604C2.76803 9.49604 2.52803 9.47204 2.28803 9.42404C2.77603 10.96 4.20003 12.072 5.88803 12.104C4.56803 13.136 2.90403 13.752 1.09603 13.752C0.784025 13.752 0.480025 13.736 0.176025 13.696C1.86403 14.8 3.89602 15.44 6.07202 15.44Z" fill="#F1FFFC"/>
</svg>
